<svg width="75" height="71" viewBox="0 0 75 71" fill="none" xmlns="http://www.w3.org/2000/svg">
<g opacity="0.3">
<path d="M2.91318 9.59844H40.6784C41.8697 9.59844 42.9216 10.5364 43.0276 11.6935L47.5779 61.3483C47.6838 62.5054 46.804 63.4434 45.6127 63.4434H7.8476C6.65626 63.4434 5.60454 62.5054 5.49852 61.3483L0.948119 11.6935C0.84206 10.5364 1.72184 9.59844 2.91318 9.59844Z" fill="#484C52"/>
<path d="M4.03626 9.59844H41.8013C42.9926 9.59844 44.0446 10.5364 44.1505 11.6935L48.7008 61.3483C48.8072 62.5054 47.9273 63.4434 46.736 63.4434H8.97064C7.77931 63.4434 6.72758 62.5054 6.62156 61.3483L2.07117 11.6935C1.96511 10.5364 2.84488 9.59844 4.03626 9.59844Z" fill="white"/>
<path d="M4.03582 9.68536C3.48662 9.68536 2.98921 9.8923 2.63536 10.2679C2.27937 10.6455 2.11042 11.1492 2.15957 11.6859L6.70997 61.3408C6.81189 62.4524 7.82581 63.357 8.9702 63.357H46.7356C47.2846 63.357 47.782 63.1501 48.136 62.7744C48.4921 62.3965 48.6606 61.8927 48.6118 61.3561L44.0611 11.7012C43.9595 10.5896 42.9453 9.68536 41.8009 9.68536H4.03582ZM46.7356 63.5303H8.9702C7.73574 63.5303 6.64207 62.5549 6.53215 61.3561L1.98176 11.7012C1.92804 11.1156 2.11345 10.5648 2.50366 10.1509C2.89174 9.73891 3.4359 9.5117 4.03582 9.5117H41.8009C43.0355 9.5117 44.1292 10.4871 44.2391 11.6859L48.7894 61.3408C48.843 61.9264 48.6579 62.4772 48.2676 62.8915C47.8797 63.3034 47.3354 63.5303 46.7356 63.5303Z" fill="#484C52"/>
<path d="M11.2486 58.0703H44.226L40.0888 12.9238H7.11133L11.2486 58.0703Z" fill="white"/>
<path d="M11.3297 57.983H44.1277L40.0063 13.0097H7.20826L11.3297 57.983ZM44.2254 58.1562H11.248C11.2018 58.1562 11.1632 58.1222 11.1591 58.0775L7.02182 12.9309C7.01966 12.9068 7.028 12.8827 7.0449 12.8647C7.06176 12.8467 7.0857 12.8364 7.11075 12.8364H40.0882C40.1343 12.8364 40.1729 12.8708 40.1768 12.9156L44.314 58.0622C44.3164 58.0862 44.3081 58.1103 44.2912 58.1283C44.2742 58.1463 44.2502 58.1562 44.2254 58.1562Z" fill="#484C52"/>
<path d="M12.4208 20.6076H36.1897L36.018 18.7367H12.2493L12.4208 20.6076ZM36.287 20.7812H12.3391C12.2929 20.7812 12.2543 20.7468 12.2502 20.7021L12.0628 18.6579C12.0607 18.6334 12.0691 18.6093 12.086 18.5914C12.1028 18.5738 12.1268 18.5634 12.1518 18.5634H36.0999C36.146 18.5634 36.1846 18.5975 36.1885 18.6422L36.376 20.6868C36.3783 20.7109 36.3697 20.735 36.3531 20.7529C36.3362 20.7709 36.3122 20.7812 36.287 20.7812Z" fill="#484C52"/>
<path d="M12.2542 32.5953H22.7536L21.819 22.3971H11.3196L12.2542 32.5953ZM22.8511 32.7686H12.1725C12.1263 32.7686 12.0877 32.7345 12.0836 32.6898L11.1332 22.3179C11.131 22.2938 11.1393 22.2697 11.1562 22.2517C11.1731 22.2337 11.1971 22.2234 11.2221 22.2234H21.9007C21.9469 22.2234 21.9855 22.2578 21.9896 22.3026L22.94 32.6745C22.9422 32.6986 22.9339 32.7227 22.9169 32.7406C22.9001 32.7586 22.8762 32.7686 22.8511 32.7686Z" fill="#484C52"/>
<path d="M24.953 23.7037H38.5344L38.4147 22.397H24.8333L24.953 23.7037ZM38.6321 23.877H24.8714C24.8252 23.877 24.7865 23.8429 24.7824 23.7982L24.6468 22.3178C24.6446 22.2937 24.653 22.2696 24.6699 22.2517C24.6867 22.2337 24.7107 22.2233 24.7357 22.2233H38.4962C38.5423 22.2233 38.5813 22.2578 38.5852 22.3025L38.7207 23.7825C38.723 23.807 38.7148 23.831 38.6978 23.849C38.6809 23.8666 38.6569 23.877 38.6321 23.877Z" fill="#484C52"/>
<path d="M25.1718 26.0744H38.7532L38.6335 24.7677H25.052L25.1718 26.0744ZM38.8505 26.248H25.0901C25.0439 26.248 25.0053 26.2136 25.0012 26.1689L24.8656 24.6885C24.8634 24.6644 24.8718 24.6403 24.8887 24.6224C24.9055 24.6044 24.9295 24.5944 24.9545 24.5944H38.715C38.7611 24.5944 38.7997 24.6285 38.804 24.6732L38.9395 26.1536C38.9419 26.1777 38.9332 26.2018 38.9163 26.2197C38.8997 26.2377 38.8757 26.248 38.8505 26.248Z" fill="#484C52"/>
<path d="M25.3886 28.4468H38.9697L38.85 27.1398H25.2688L25.3886 28.4468ZM39.0674 28.6201H25.3069C25.2607 28.6201 25.2221 28.5857 25.218 28.5409L25.0824 27.061C25.0802 27.0365 25.0886 27.0124 25.1054 26.9948C25.1223 26.9768 25.1462 26.9665 25.1713 26.9665H38.9319C38.978 26.9665 39.0166 27.0009 39.0205 27.0453L39.1564 28.5256C39.1583 28.5501 39.1501 28.5738 39.1331 28.5918C39.1166 28.6098 39.0926 28.6201 39.0674 28.6201Z" fill="#484C52"/>
<path d="M25.5546 30.9445H39.1357L39.016 29.6378H25.4348L25.5546 30.9445ZM39.2334 31.1182H25.4729C25.4268 31.1182 25.3881 31.0837 25.384 31.039L25.2484 29.5587C25.2462 29.5346 25.2546 29.5105 25.2715 29.4925C25.2883 29.4745 25.3123 29.4646 25.3373 29.4646H39.0979C39.144 29.4646 39.1826 29.4986 39.1865 29.5434L39.3224 31.0237C39.3244 31.0478 39.3161 31.0719 39.2992 31.0899C39.2826 31.1078 39.2586 31.1182 39.2334 31.1182Z" fill="#484C52"/>
<path d="M25.6621 33.5484H39.2432L39.1235 32.2414H25.5423L25.6621 33.5484ZM39.3408 33.7217H25.5804C25.5342 33.7217 25.4955 33.6873 25.4914 33.6425L25.3558 32.1626C25.3536 32.1381 25.362 32.1144 25.3789 32.0964C25.3957 32.0784 25.4197 32.0681 25.4447 32.0681H39.2054C39.2515 32.0681 39.29 32.1025 39.294 32.1473L39.4299 33.6272C39.4318 33.6517 39.4236 33.6754 39.4066 33.6934C39.3897 33.7114 39.3661 33.7217 39.3408 33.7217Z" fill="#484C52"/>
<path d="M26.8182 40.3004H38.9352L38.8801 39.6987H26.7629L26.8182 40.3004ZM39.0325 40.4736H26.7364C26.6903 40.4736 26.6517 40.4392 26.6476 40.3945L26.5765 39.6195C26.5743 39.5954 26.5827 39.5713 26.5995 39.5533C26.6164 39.5353 26.6404 39.5254 26.6654 39.5254H38.9616C39.0077 39.5254 39.0463 39.5594 39.0506 39.6042L39.1215 40.3792C39.1239 40.4036 39.1152 40.4273 39.0987 40.4453C39.0817 40.4633 39.0577 40.4736 39.0325 40.4736Z" fill="#484C52"/>
<path d="M26.9314 41.5416H39.0485L38.993 40.9399H26.8763L26.9314 41.5416ZM39.1458 41.7148H26.8498C26.8036 41.7148 26.765 41.6804 26.7609 41.636L26.6898 40.8607C26.6876 40.8366 26.696 40.8125 26.7128 40.7945C26.7297 40.7765 26.7537 40.7666 26.7787 40.7666H39.0749C39.121 40.7666 39.1596 40.8006 39.1639 40.8454L39.2348 41.6204C39.2372 41.6448 39.2285 41.6686 39.2119 41.6865C39.195 41.7045 39.171 41.7148 39.1458 41.7148Z" fill="#484C52"/>
<path d="M27.0447 42.7837H39.1614L39.1063 42.1821H26.9895L27.0447 42.7837ZM39.2591 42.957H26.963C26.9168 42.957 26.8782 42.9226 26.8741 42.8782L26.8031 42.1029C26.8009 42.0788 26.8093 42.0547 26.8261 42.0367C26.843 42.0187 26.867 42.0088 26.892 42.0088H39.1882C39.2343 42.0088 39.2729 42.0428 39.2772 42.0876L39.3481 42.8625C39.3501 42.887 39.3418 42.9111 39.3249 42.9291C39.3079 42.9467 39.2843 42.957 39.2591 42.957Z" fill="#484C52"/>
<path d="M27.3377 45.9644H39.4547L39.3996 45.3627H27.2825L27.3377 45.9644ZM39.5524 46.1377H27.256C27.2098 46.1377 27.1712 46.1037 27.1671 46.0589L27.096 45.2835C27.0938 45.2594 27.1022 45.2353 27.119 45.2174C27.136 45.1994 27.16 45.1894 27.185 45.1894H39.4811C39.5272 45.1894 39.5658 45.2235 39.5701 45.2682L39.641 46.0432C39.6434 46.0677 39.6351 46.0918 39.6182 46.1098C39.6012 46.1274 39.5772 46.1377 39.5524 46.1377Z" fill="#484C52"/>
<path d="M27.4509 47.2066H39.568L39.5124 46.6049H27.3958L27.4509 47.2066ZM39.6653 47.3799H27.3693C27.3231 47.3799 27.2845 47.3458 27.2804 47.3011L27.2093 46.5261C27.2071 46.5016 27.2155 46.4775 27.2323 46.4596C27.2492 46.4416 27.2732 46.4316 27.2982 46.4316H39.5944C39.6404 46.4316 39.679 46.4657 39.6834 46.5104L39.7543 47.2858C39.7566 47.3099 39.748 47.334 39.7314 47.352C39.7145 47.3699 39.6905 47.3799 39.6653 47.3799Z" fill="#484C52"/>
<path d="M27.5643 48.4478H39.6809L39.6262 47.8461H27.5091L27.5643 48.4478ZM39.7786 48.6211H27.4826C27.4364 48.6211 27.3977 48.5871 27.3936 48.5423L27.3226 47.7673C27.3204 47.7428 27.3288 47.7187 27.3456 47.7008C27.3625 47.6832 27.3865 47.6728 27.4115 47.6728H39.7077C39.7538 47.6728 39.7924 47.7069 39.7967 47.7516L39.8676 48.527C39.8696 48.5511 39.8613 48.5752 39.8444 48.5932C39.8274 48.6111 39.8038 48.6211 39.7786 48.6211Z" fill="#484C52"/>
<path d="M27.8572 51.6291H39.9741L39.919 51.0274H27.8021L27.8572 51.6291ZM40.0718 51.8027H27.7755C27.7292 51.8027 27.6906 51.7683 27.6865 51.7236L27.6156 50.9486C27.6134 50.9241 27.6218 50.9004 27.6387 50.8824C27.6556 50.8644 27.6795 50.8541 27.7045 50.8541H40.0005C40.0466 50.8541 40.0856 50.8885 40.0895 50.9329L40.1604 51.7083C40.1628 51.7324 40.1545 51.7565 40.1376 51.7744C40.1206 51.7924 40.0966 51.8027 40.0718 51.8027Z" fill="#484C52"/>
<path d="M27.9705 52.8713H40.0875L40.0323 52.2696H27.9153L27.9705 52.8713ZM40.1847 53.0449H27.8888C27.8426 53.0449 27.804 53.0105 27.7999 52.9657L27.7289 52.1908C27.7267 52.1663 27.735 52.1426 27.7519 52.1246C27.7687 52.1066 27.7927 52.0963 27.8178 52.0963H40.1138C40.1599 52.0963 40.1985 52.1307 40.2028 52.1755L40.2737 52.9504C40.2761 52.9745 40.2678 52.9986 40.2509 53.0166C40.234 53.0346 40.2099 53.0449 40.1847 53.0449Z" fill="#484C52"/>
<path d="M28.0838 54.1125H40.2008L40.1457 53.5108H28.0287L28.0838 54.1125ZM40.2985 54.2861H28.0021C27.9559 54.2861 27.9173 54.2517 27.9132 54.207L27.8421 53.432C27.84 53.4075 27.8484 53.3838 27.8651 53.3658C27.8821 53.3478 27.9061 53.3375 27.9311 53.3375H40.2272C40.2733 53.3375 40.3119 53.3719 40.3162 53.4167L40.3871 54.1917C40.3895 54.2158 40.3812 54.2398 40.3643 54.2578C40.3473 54.2758 40.3233 54.2861 40.2985 54.2861Z" fill="#484C52"/>
<path d="M13.2732 40.3H25.3902L25.3351 39.6983H13.2181L13.2732 40.3ZM25.4878 40.4736H13.1916C13.1454 40.4736 13.1068 40.4392 13.1027 40.3945L13.0316 39.6195C13.0294 39.595 13.0378 39.5713 13.0546 39.5533C13.0716 39.5353 13.0955 39.525 13.1205 39.525H25.4167C25.4629 39.525 25.5015 39.5594 25.5056 39.6042L25.5767 40.3792C25.5789 40.4032 25.5705 40.4273 25.5537 40.4453C25.5367 40.4633 25.5128 40.4736 25.4878 40.4736Z" fill="#484C52"/>
<path d="M13.3884 41.5412H25.5053L25.4501 40.9395H13.3333L13.3884 41.5412ZM25.6029 41.7148H13.3067C13.2605 41.7148 13.2219 41.6804 13.2178 41.6357L13.1468 40.8607C13.1446 40.8366 13.153 40.8125 13.1699 40.7945C13.1868 40.7765 13.2107 40.7662 13.2357 40.7662H25.5318C25.578 40.7662 25.6167 40.8006 25.6207 40.8454L25.6918 41.6204C25.694 41.6445 25.6856 41.6686 25.6688 41.6865C25.6519 41.7045 25.6279 41.7148 25.6029 41.7148Z" fill="#484C52"/>
<path d="M13.5018 42.7834H25.6186L25.5635 42.1817H13.4466L13.5018 42.7834ZM25.7162 42.957H13.4201C13.3738 42.957 13.3352 42.9226 13.3311 42.8779L13.2601 42.1029C13.2579 42.0788 13.2663 42.0547 13.2831 42.0367C13.3 42.0187 13.324 42.0084 13.349 42.0084H25.6452C25.6914 42.0084 25.73 42.0428 25.7341 42.0876L25.8051 42.8625C25.8073 42.8866 25.7989 42.9107 25.782 42.9287C25.7651 42.9467 25.7412 42.957 25.7162 42.957Z" fill="#484C52"/>
<path d="M13.7927 45.9644H25.9097L25.8546 45.3627H13.7376L13.7927 45.9644ZM26.0073 46.1377H13.7111C13.6649 46.1377 13.6263 46.1033 13.6222 46.0585L13.5511 45.2835C13.5489 45.2594 13.5573 45.2353 13.5741 45.2174C13.5911 45.1994 13.615 45.1891 13.64 45.1891H25.9362C25.9824 45.1891 26.021 45.2235 26.0251 45.2682L26.0962 46.0432C26.0984 46.0673 26.09 46.0914 26.0732 46.1094C26.0562 46.1274 26.0323 46.1377 26.0073 46.1377Z" fill="#484C52"/>
<path d="M13.908 47.2066H26.0248L25.9697 46.6049H13.8528L13.908 47.2066ZM26.1224 47.3799H13.8263C13.7801 47.3799 13.7415 47.3455 13.7374 47.3007L13.6664 46.5257C13.6642 46.5016 13.6725 46.4775 13.6894 46.4596C13.7063 46.4416 13.7302 46.4312 13.7553 46.4312H26.0514C26.0976 46.4312 26.1362 46.4657 26.1403 46.5104L26.2113 47.2854C26.2135 47.3099 26.2051 47.3336 26.1883 47.3516C26.1714 47.3696 26.1475 47.3799 26.1224 47.3799Z" fill="#484C52"/>
<path d="M14.0213 48.4478H26.1382L26.0831 47.8461H13.9661L14.0213 48.4478ZM26.2357 48.6211H13.9396C13.8934 48.6211 13.8548 48.5867 13.8507 48.5419L13.7796 47.7669C13.7775 47.7428 13.7858 47.7187 13.8026 47.7008C13.8196 47.6828 13.8435 47.6725 13.8686 47.6725H26.1647C26.2109 47.6725 26.2496 47.7069 26.2537 47.7516L26.3246 48.5266C26.3268 48.5511 26.3184 48.5748 26.3015 48.5928C26.2846 48.6108 26.2607 48.6211 26.2357 48.6211Z" fill="#484C52"/>
<path d="M14.3122 51.6295H26.4292L26.374 51.0278H14.2571L14.3122 51.6295ZM26.5267 51.8027H14.2305C14.1843 51.8027 14.1457 51.7683 14.1416 51.7236L14.0706 50.9486C14.0685 50.9245 14.0768 50.9004 14.0938 50.8824C14.1107 50.8644 14.1346 50.8545 14.1596 50.8545H26.4557C26.5019 50.8545 26.5405 50.8885 26.5446 50.9333L26.6157 51.7083C26.6178 51.7327 26.6095 51.7568 26.5926 51.7744C26.5757 51.7924 26.5517 51.8027 26.5267 51.8027Z" fill="#484C52"/>
<path d="M14.4256 52.8707H26.5425L26.4873 52.269H14.3704L14.4256 52.8707ZM26.64 53.0439H14.3439C14.2977 53.0439 14.2591 53.0095 14.255 52.9651L14.1839 52.1898C14.1818 52.1657 14.1902 52.1416 14.207 52.1236C14.2239 52.1056 14.2478 52.0957 14.2729 52.0957H26.569C26.6152 52.0957 26.6538 52.1297 26.6579 52.1745L26.7289 52.9495C26.7311 52.9739 26.7227 52.998 26.7059 53.0156C26.689 53.0336 26.665 53.0439 26.64 53.0439Z" fill="#484C52"/>
<path d="M14.5408 54.1129H26.6578L26.6026 53.5112H14.4856L14.5408 54.1129ZM26.7553 54.2861H14.4591C14.4129 54.2861 14.3743 54.2521 14.3702 54.2073L14.2992 53.432C14.297 53.4079 14.3053 53.3838 14.3222 53.3658C14.3391 53.3478 14.3631 53.3379 14.3881 53.3379H26.6843C26.7305 53.3379 26.7691 53.3719 26.7732 53.4167L26.8442 54.1917C26.8464 54.2161 26.8381 54.2402 26.8212 54.2578C26.8043 54.2758 26.7804 54.2861 26.7553 54.2861Z" fill="#484C52"/>
<path d="M19.6924 38.1451H31.81L31.7698 36.9623H19.6522L19.6924 38.1451ZM31.9021 38.3184H19.606C19.5578 38.3184 19.5184 38.2813 19.5168 38.2346L19.4708 36.8782C19.4699 36.8549 19.479 36.8319 19.4958 36.8151C19.5126 36.7983 19.5358 36.7887 19.5599 36.7887H31.8561C31.9041 36.7887 31.9439 36.8258 31.9455 36.8725L31.9911 38.2288C31.9919 38.2526 31.9829 38.2751 31.9663 38.292C31.9494 38.3092 31.9262 38.3184 31.9021 38.3184Z" fill="#484C52"/>
<path d="M12.1889 15.5479H33.875C34.6777 15.5479 35.27 14.9159 35.1987 14.1364L34.9573 11.5005C34.7946 9.72485 33.1807 8.28583 31.353 8.28583H13.3799C11.5521 8.28583 10.2022 9.72523 10.3649 11.5005L10.6064 14.1364C10.6779 14.9159 11.3864 15.5479 12.1889 15.5479Z" fill="#484C52"/>
<path d="M20.6818 3.64896C20.6198 2.97267 21.1341 2.42415 21.8306 2.42415C22.5272 2.42415 23.1421 2.97267 23.204 3.64896C23.266 4.32563 22.7516 4.87415 22.0551 4.87415C21.3586 4.87415 20.7437 4.32563 20.6818 3.64896ZM17.9694 4.52415L18.532 10.6635C18.5955 11.3558 19.2248 11.917 19.9377 11.917H25.4635C26.1764 11.917 26.7028 11.3558 26.6394 10.6635L26.0768 4.52415C25.8775 2.34956 23.9011 0.586937 21.6623 0.586937C19.4235 0.586937 17.7701 2.34956 17.9694 4.52415Z" fill="#484C52"/>
<path d="M12.6205 15.5479H34.3066C35.1092 15.5479 35.7019 14.9159 35.6302 14.1364L35.3888 11.5005C35.2262 9.72485 33.6122 8.28583 31.7845 8.28583H13.8115C11.9837 8.28583 10.6338 9.72523 10.7965 11.5005L11.0381 14.1364C11.1095 14.9159 11.818 15.5479 12.6205 15.5479Z" fill="white"/>
<path d="M13.8131 8.37312C12.9569 8.37312 12.1812 8.69597 11.6292 9.28198C11.0739 9.87144 10.8103 10.6567 10.8869 11.4933L11.1285 14.1292C11.1958 14.864 11.8659 15.4615 12.6221 15.4615H34.3081C34.6696 15.4615 34.9973 15.3253 35.2301 15.0782C35.464 14.8296 35.5755 14.4979 35.5432 14.1445L35.3013 11.5086C35.143 9.77963 33.5661 8.37312 31.786 8.37312H13.8131ZM34.3081 15.6348H12.6221C11.7757 15.6348 11.0259 14.9665 10.9507 14.1445L10.7091 11.5086C10.6279 10.6231 10.9079 9.79072 11.4975 9.16493C12.0838 8.54258 12.9062 8.19947 13.8131 8.19947H31.786C33.6559 8.19947 35.3128 9.67712 35.4794 11.4933L35.7208 14.1292C35.7578 14.5316 35.6302 14.9103 35.3616 15.1953C35.0946 15.4787 34.7204 15.6348 34.3081 15.6348Z" fill="#484C52"/>
<path d="M21.1134 3.64896C21.0514 2.97267 21.5658 2.42415 22.2623 2.42415C22.9588 2.42415 23.5737 2.97267 23.6356 3.64896C23.6977 4.32563 23.1833 4.87415 22.4868 4.87415C21.7903 4.87415 21.1753 4.32563 21.1134 3.64896ZM18.401 4.52415L18.9637 10.6635C19.0271 11.3558 19.6565 11.917 20.3693 11.917H25.8951C26.608 11.917 27.1344 11.3558 27.071 10.6635L26.5084 4.52415C26.3091 2.34956 24.3327 0.586937 22.0939 0.586937C19.8551 0.586937 18.2018 2.34956 18.401 4.52415Z" fill="white"/>
<path d="M22.2618 2.51106C21.9512 2.51106 21.6702 2.62773 21.4703 2.84002C21.2693 3.05308 21.174 3.33805 21.2019 3.64139C21.2598 4.2733 21.836 4.78741 22.4864 4.78741C22.7969 4.78741 23.0779 4.67036 23.2777 4.45844C23.4787 4.245 23.5741 3.9604 23.5463 3.65669C23.4884 3.02516 22.9122 2.51106 22.2618 2.51106ZM22.4864 4.96068C21.7459 4.96068 21.0899 4.37581 21.024 3.65669C20.9917 3.30439 21.1035 2.97237 21.3387 2.72297C21.5726 2.47434 21.9005 2.33741 22.2618 2.33741C23.0022 2.33741 23.6582 2.92264 23.7241 3.64139C23.7565 3.99407 23.6446 4.32571 23.4094 4.57549C23.1754 4.82412 22.8476 4.96068 22.4864 4.96068ZM22.0935 0.67347C21.039 0.67347 20.0838 1.07128 19.4038 1.79309C18.7198 2.5191 18.3951 3.48647 18.4895 4.5162L19.0521 10.6559C19.1115 11.3035 19.7022 11.8306 20.3688 11.8306H25.8947C26.2132 11.8306 26.5013 11.7109 26.7063 11.4933C26.9124 11.2745 27.0102 10.9826 26.9817 10.6712L26.419 4.53188C26.224 2.40434 24.2837 0.67347 22.0935 0.67347ZM25.8947 12.0039H20.3688C19.6121 12.0039 18.9417 11.406 18.8743 10.6712L18.3117 4.53188C18.2128 3.45281 18.5538 2.43839 19.2721 1.67604C19.9864 0.917895 20.9883 0.500189 22.0935 0.500189C24.3738 0.500189 26.3939 2.30183 26.5968 4.5162L27.1595 10.6559C27.1926 11.0163 27.0783 11.3552 26.838 11.6103C26.5989 11.8643 26.2639 12.0039 25.8947 12.0039Z" fill="#484C52"/>
<path d="M61.3507 13.0889C61.3015 13.0889 61.2617 13.0502 61.2617 13.002V12.3296C61.2617 12.2818 61.3015 12.2427 61.3507 12.2427C61.4004 12.2427 61.4401 12.2818 61.4401 12.3296V13.002C61.4401 13.0502 61.4004 13.0889 61.3507 13.0889Z" fill="#484C52"/>
<path d="M61.3507 14.6553C61.3015 14.6553 61.2617 14.6166 61.2617 14.5684V13.896C61.2617 13.8482 61.3015 13.8092 61.3507 13.8092C61.4004 13.8092 61.4401 13.8482 61.4401 13.896V14.5684C61.4401 14.6166 61.4004 14.6553 61.3507 14.6553Z" fill="#484C52"/>
<path d="M60.8911 13.5361H60.1988C60.1495 13.5361 60.1094 13.4971 60.1094 13.4493C60.1094 13.4015 60.1495 13.3629 60.1988 13.3629H60.8911C60.9408 13.3629 60.9805 13.4015 60.9805 13.4493C60.9805 13.4971 60.9408 13.5361 60.8911 13.5361Z" fill="#484C52"/>
<path d="M62.5044 13.5361H61.8121C61.7628 13.5361 61.7227 13.4971 61.7227 13.4493C61.7227 13.4015 61.7628 13.3629 61.8121 13.3629H62.5044C62.554 13.3629 62.5938 13.4015 62.5938 13.4493C62.5938 13.4971 62.554 13.5361 62.5044 13.5361Z" fill="#484C52"/>
<path d="M59.0965 9.88852C59.0275 9.88852 58.9582 9.90267 58.8933 9.93136C58.6373 10.0431 58.5207 10.341 58.6337 10.5954C58.6889 10.7197 58.7893 10.8146 58.9169 10.8628C59.0417 10.9098 59.1776 10.9064 59.3001 10.8532C59.5561 10.7415 59.6726 10.4432 59.5596 10.1888C59.5045 10.0645 59.4037 9.96961 59.2761 9.92141C59.2178 9.89961 59.1571 9.88852 59.0965 9.88852ZM59.0969 11.0693C59.0142 11.0693 58.9315 11.0544 58.8523 11.0242C58.6798 10.9592 58.5439 10.8314 58.4699 10.6643C58.3183 10.3231 58.4754 9.92332 58.8204 9.773C58.9866 9.7007 59.1713 9.69612 59.341 9.76C59.5135 9.82502 59.6494 9.95278 59.7235 10.1199C59.8751 10.4611 59.7179 10.8609 59.3729 11.0112C59.2847 11.0498 59.1906 11.0693 59.0969 11.0693Z" fill="#484C52"/>
<path d="M26.5724 60.1959C26.521 60.274 24.5547 63.0047 24.5547 63.0047C24.5547 63.0047 24.6044 63.7005 25.1139 63.8359L27.4521 61.3783L26.5724 60.1959Z" fill="white"/>
<path d="M24.6464 63.0272C24.6619 63.1477 24.7427 63.6048 25.0867 63.7352L27.3364 61.3709L26.5737 60.3458C26.2339 60.822 24.8377 62.7613 24.6464 63.0272ZM25.1133 63.9219C25.1055 63.9219 25.0976 63.9207 25.0897 63.9188C24.5257 63.7685 24.4673 63.0409 24.465 63.01C24.4637 62.9901 24.4693 62.9706 24.481 62.9541C25.1607 62.0101 26.4568 60.2088 26.4968 60.1484C26.5127 60.1243 26.5399 60.1094 26.5694 60.1086C26.6019 60.1074 26.627 60.1212 26.6443 60.1446L27.5239 61.3269C27.5488 61.3602 27.546 61.4061 27.5172 61.4363L25.1789 63.894C25.1617 63.9119 25.1379 63.9219 25.1133 63.9219Z" fill="#484C52"/>
<path d="M23.4824 63.4847C23.4824 63.4847 23.65 65.6406 24.6302 66.7755C25.6103 67.91 27.1836 67.5474 27.1836 67.5474C27.1836 67.5474 27.3029 66.5877 27.0988 66.3379C26.8948 66.0885 25.7666 64.7547 25.7697 63.5559L25.1705 62.7629L24.8167 63.2078L24.6654 62.4814L23.4824 63.4847Z" fill="white"/>
<path d="M23.5767 63.5209C23.607 63.8277 23.8249 65.7063 24.6999 66.7195C25.5271 67.677 26.8106 67.5243 27.1036 67.4746C27.1426 67.1108 27.1546 66.544 27.0303 66.3917L27.0085 66.3653C25.9287 65.0514 25.6887 64.1314 25.682 63.5841L25.17 62.907L24.8887 63.2608C24.8675 63.2876 24.8319 63.2999 24.7979 63.2922C24.7638 63.2846 24.7376 63.2582 24.7306 63.2249L24.6098 62.6446L23.5767 63.5209ZM26.605 67.6865C26.0373 67.6865 25.1826 67.5481 24.5632 66.8308C23.5758 65.6879 23.4017 63.5802 23.3948 63.4911C23.3927 63.4636 23.4038 63.4372 23.425 63.4192L24.6081 62.4159C24.632 62.3956 24.6652 62.3891 24.6955 62.399C24.7256 62.409 24.748 62.4338 24.7543 62.4641L24.8669 63.0046L25.1013 62.71C25.1183 62.6882 25.143 62.6756 25.1729 62.6764C25.201 62.6764 25.2272 62.6897 25.2438 62.7116L25.843 63.5041C25.8544 63.519 25.8605 63.5374 25.8604 63.5558C25.8591 64.0718 26.0814 64.9592 27.148 66.2571L27.1702 66.2838C27.391 66.5539 27.2863 67.4559 27.2737 67.5576C27.2692 67.5936 27.2421 67.6234 27.2056 67.6314C27.1994 67.633 26.9575 67.6865 26.605 67.6865Z" fill="#484C52"/>
<path d="M23.8789 63.567C23.8789 63.567 24.1331 67.1493 26.8702 67.072L23.8789 63.567Z" fill="white"/>
<path d="M26.7832 67.1602C24.0751 67.1602 23.7919 63.6097 23.7893 63.5733C23.786 63.5255 23.823 63.4842 23.8722 63.4808C23.9205 63.4777 23.964 63.5137 23.9675 63.5615C23.97 63.5963 24.2482 67.0599 26.8671 66.9853C26.9162 66.9842 26.9574 67.0217 26.959 67.0695C26.9604 67.1173 26.9216 67.1575 26.8723 67.1586C26.8425 67.1594 26.8125 67.1602 26.7832 67.1602Z" fill="#484C52"/>
<path d="M27.5636 62.5394C27.5522 62.6561 27.6765 64.2925 28.1991 65.3203C28.1991 65.3203 27.9578 66.0742 27.219 65.9388C27.219 65.9388 26.0839 63.8399 25.8457 62.4813L27.5636 62.5394Z" fill="white"/>
<path d="M27.277 65.8603C27.8267 65.9357 28.0512 65.4564 28.102 65.3259C27.6444 64.4006 27.491 63.0102 27.4745 62.6231L25.953 62.5714C26.2028 63.8005 27.1278 65.5784 27.277 65.8603ZM27.3917 66.042C27.332 66.042 27.2687 66.0363 27.2018 66.024C27.175 66.019 27.152 66.0026 27.1393 65.9793C27.0927 65.8928 25.9949 63.8525 25.7571 62.4957C25.7526 62.4701 25.7602 62.4437 25.7779 62.4238C25.7956 62.4043 25.8217 62.394 25.8482 62.3943L27.5661 62.4525C27.5905 62.4532 27.6135 62.4643 27.6297 62.4819C27.6459 62.4999 27.6539 62.5236 27.6518 62.5473C27.6444 62.6311 27.7551 64.2526 28.2784 65.2819C28.2887 65.3018 28.2906 65.3248 28.2839 65.3458C28.2812 65.3535 28.0527 66.042 27.3917 66.042Z" fill="#484C52"/>
<path d="M26.8065 65.1535C26.8065 65.1535 26.6182 67.3001 26.896 67.908C26.896 67.908 28.9991 68.9587 31.4409 68.956C31.6142 68.9557 31.7563 68.8195 31.7548 68.6512C31.7512 68.2453 31.6413 67.5036 30.9734 66.9169C30.0022 66.0635 27.9178 64.662 27.9178 64.662L27.4973 65.1565L27.6735 65.9384L26.8065 65.1535Z" fill="white"/>
<path d="M26.9652 67.8449C27.2247 67.9685 29.1968 68.8693 31.4306 68.8693C31.4948 68.8693 31.5559 68.8487 31.6012 68.8043C31.6429 68.7634 31.6658 68.709 31.665 68.652C31.6618 68.2718 31.5598 67.5496 30.9131 66.9812C30.055 66.2269 28.2989 65.0266 27.9339 64.7787L27.5934 65.1792L27.7603 65.9201C27.7687 65.9572 27.7512 65.9951 27.7174 66.0138C27.6835 66.0326 27.6408 66.028 27.6123 66.002L26.8813 65.3402C26.8446 65.8555 26.7609 67.3358 26.9652 67.8449ZM31.4306 69.043C28.9999 69.043 26.876 67.996 26.8548 67.9853C26.8366 67.9761 26.8223 67.9616 26.814 67.9432C26.5302 67.3224 26.7095 65.2347 26.7172 65.1463C26.7201 65.113 26.7422 65.0847 26.7741 65.0725C26.8058 65.0606 26.8419 65.0675 26.867 65.0901L27.5248 65.6856L27.4097 65.175C27.4038 65.149 27.4106 65.1218 27.428 65.1012L27.8486 64.607C27.8781 64.5721 27.93 64.5649 27.9682 64.5905C27.9891 64.6047 30.0688 66.005 31.0329 66.8527C31.73 67.4655 31.8402 68.242 31.8438 68.6505C31.8446 68.7542 31.8036 68.8521 31.728 68.9263C31.6516 69.0013 31.5496 69.0426 31.4405 69.043C31.4373 69.043 31.4342 69.043 31.4306 69.043Z" fill="#484C52"/>
<path d="M27.0605 67.2732C27.0605 67.2732 29.061 68.5 31.4539 68.36L27.0605 67.2732Z" fill="white"/>
<path d="M31.0741 68.458C28.8505 68.458 27.0315 67.3587 27.0123 67.3472C26.9706 67.3216 26.9582 67.268 26.9845 67.2275C27.0109 67.1869 27.066 67.1751 27.1077 67.2003C27.1275 67.2125 29.1144 68.4106 31.4482 68.2736C31.4971 68.271 31.5396 68.3073 31.5427 68.3551C31.5455 68.4029 31.5081 68.4439 31.4589 68.4469C31.3297 68.4546 31.2009 68.458 31.0741 68.458Z" fill="#484C52"/>
<path d="M28.4385 55.4729C28.3105 56.405 28.0269 57.2668 27.6882 58.0231C27.6751 55.7062 27.7919 52.8982 28.2557 50.3181C28.4849 52.0861 28.6334 54.0545 28.4385 55.4729ZM33.2995 52.101C33.2881 47.7465 30.9744 41.1343 30.9744 41.1343L30.0296 41.2812L30.0756 40.8761L23.8748 41.1343C23.8748 41.1343 22.4096 50.6773 25.846 63.293L27.9188 63.0042C27.9188 63.0042 27.8584 62.409 27.7994 61.4225C29.5184 59.684 33.3082 55.4683 33.2995 52.101Z" fill="white"/>
<path d="M28.241 50.9379C27.9357 52.8753 27.7796 55.1069 27.776 57.5875C28.061 56.8737 28.2536 56.1607 28.3493 55.4619C28.4986 54.3755 28.4624 52.8554 28.241 50.9379ZM27.6877 58.11C27.6817 58.11 27.6757 58.1096 27.6697 58.1085C27.6284 58.1 27.5987 58.0649 27.5984 58.0239C27.5818 55.0931 27.7732 52.4955 28.167 50.3037C28.1749 50.2612 28.2123 50.2298 28.2572 50.2317C28.3013 50.2329 28.3383 50.265 28.3438 50.3075C28.6317 52.5291 28.6931 54.2711 28.5266 55.4848C28.4104 56.3309 28.1556 57.1966 27.7695 58.058C27.7551 58.0901 27.7226 58.11 27.6877 58.11ZM23.9526 41.2186C23.8306 42.1144 22.6986 51.3449 25.9115 63.1967L27.8215 62.9304C27.8032 62.7338 27.7558 62.1972 27.7098 61.4279C27.7083 61.4038 27.7173 61.3805 27.7345 61.3629C29.3835 59.6951 33.2187 55.4534 33.2096 52.1019C33.1994 48.0487 31.1585 41.9507 30.9132 41.2323L30.0432 41.3674C30.0156 41.3716 29.9877 41.3632 29.9676 41.3448C29.9475 41.3261 29.9373 41.2993 29.9404 41.2725L29.9751 40.9676L23.9526 41.2186ZM25.8454 63.3799C25.8055 63.3799 25.7697 63.3539 25.7592 63.3156C22.3574 50.8273 23.7714 41.2178 23.7861 41.1222C23.7924 41.0813 23.8278 41.0503 23.8705 41.0484L30.0712 40.7902C30.0968 40.7886 30.1224 40.799 30.1401 40.8173C30.1578 40.8357 30.1665 40.8609 30.1637 40.8862L30.1306 41.1784L30.9596 41.0495C31.0026 41.0426 31.0443 41.0671 31.0581 41.1069C31.0813 41.1734 33.377 47.7825 33.3884 52.1015C33.3971 55.4978 29.569 59.754 27.8902 61.4558C27.9478 62.4064 28.0064 62.9905 28.0071 62.9962C28.0118 63.0425 27.9782 63.0838 27.9308 63.0903L25.8582 63.3791C25.8539 63.3799 25.8496 63.3799 25.8454 63.3799Z" fill="#484C52"/>
<path d="M27.98 52.0381C27.9309 52.0381 27.891 51.9995 27.8907 51.952C27.882 50.4931 28.4912 47.6568 29.126 46.7552C29.154 46.7158 29.2095 46.7055 29.2501 46.7326C29.291 46.7594 29.3013 46.8133 29.2733 46.8531C28.666 47.7157 28.0607 50.5459 28.0694 51.9509C28.0694 51.9987 28.0296 52.0377 27.9805 52.0381C27.9803 52.0381 27.9802 52.0381 27.98 52.0381Z" fill="#484C52"/>
<path d="M27.7722 60.2822C27.7252 60.2822 27.6858 60.2467 27.6832 60.2004C27.606 58.8589 27.6178 56.6556 27.6179 56.6334C27.6181 56.5856 27.6581 56.5474 27.7071 56.5474C27.7073 56.5474 27.7075 56.5474 27.7077 56.5474C27.7569 56.5477 27.7967 56.5868 27.7964 56.6346C27.7963 56.6564 27.7845 58.8543 27.8614 60.1908C27.8641 60.2386 27.8265 60.2795 27.7772 60.2822C27.7755 60.2822 27.7738 60.2822 27.7722 60.2822Z" fill="#484C52"/>
<path d="M35.0977 38.6203C34.3833 38.6987 35.1572 36.8875 35.1572 36.8875L37.9939 36.7467L40.1415 36.1714C40.3621 36.1125 40.5905 36.2365 40.6551 36.4499C40.7212 36.6679 40.5909 36.8963 40.3656 36.9571L39.4066 37.2168C39.2735 37.2528 39.2255 37.4119 39.3176 37.5125C39.4602 37.6674 39.6299 37.7964 39.8197 37.892C40.1651 38.0656 40.7705 38.3514 41.4045 38.5618C41.7019 38.6605 41.757 39.0258 41.4604 39.126L39.4208 39.0411C38.9037 39.0196 38.2578 38.6482 37.9124 38.2737C37.9124 38.2737 36.3265 38.4856 35.0977 38.6203Z" fill="white"/>
<path d="M37.9117 38.1868C37.9369 38.1868 37.961 38.1971 37.9783 38.2155C38.2981 38.5624 38.9262 38.9331 39.4236 38.9541L41.4452 39.0379C41.5511 38.9962 41.5673 38.9181 41.5673 38.8745C41.5669 38.7908 41.5074 38.6871 41.3751 38.6431C40.7544 38.4377 40.164 38.1627 39.7781 37.9684C39.5788 37.8681 39.4012 37.7339 39.2504 37.5694C39.1866 37.4998 39.1645 37.4049 39.1913 37.3154C39.2185 37.2259 39.2897 37.1578 39.3819 37.1326L40.3409 36.8732C40.4267 36.8499 40.4976 36.7956 40.5406 36.7202C40.5839 36.6445 40.5941 36.5569 40.5689 36.4739C40.5185 36.3067 40.3369 36.2084 40.1644 36.2547L38.0173 36.83C38.011 36.8315 38.0043 36.8327 37.998 36.8327L35.2175 36.9708C35.0135 37.4646 34.7713 38.2705 34.9387 38.4867C34.958 38.5115 34.9942 38.544 35.0872 38.5337C36.301 38.4006 37.8838 38.1895 37.8995 38.1875C37.9035 38.1868 37.9078 38.1868 37.9117 38.1868ZM41.4598 39.2119C41.4582 39.2119 41.457 39.2119 41.4558 39.2119L39.4162 39.127C38.8683 39.1044 38.226 38.7242 37.8775 38.3654C37.6069 38.4014 36.2064 38.5854 35.1069 38.7062C34.9379 38.7246 34.8446 38.6538 34.7961 38.5907C34.5051 38.2155 35.0151 36.9922 35.0742 36.8541C35.0872 36.8231 35.1175 36.8025 35.1518 36.8005L37.9791 36.6602L40.1168 36.0875C40.3822 36.0164 40.6622 36.1675 40.7402 36.4249C40.7788 36.5531 40.7635 36.6877 40.6965 36.8044C40.6303 36.9207 40.5209 37.0044 40.3889 37.04L39.43 37.2997C39.3969 37.3085 39.3724 37.3322 39.3626 37.3644C39.3532 37.3965 39.3606 37.429 39.3835 37.4543C39.5197 37.6027 39.68 37.7239 39.8604 37.8146C40.1719 37.9714 40.7906 38.2663 41.4326 38.479C41.6196 38.541 41.7453 38.6997 41.7457 38.8738C41.7461 39.026 41.6476 39.1538 41.4889 39.2073C41.4794 39.2104 41.4696 39.2119 41.4598 39.2119Z" fill="#484C52"/>
<path d="M28.1096 25.9865C26.5014 26.3449 25.3638 27.1165 25.3638 27.1165C25.3638 27.1165 22.9039 28.64 22.9624 31.5475C23.0077 33.8032 24.5429 36.2654 24.5293 36.4575C24.3775 38.6106 22.7321 41.9155 22.9613 42.6825C23.518 44.5446 33.2452 44.5958 33.3854 43.7424C33.4476 43.3615 32.5201 40.3476 33.0983 37.7377C33.6812 35.108 33.8907 32.5252 33.8907 32.5252C35.0989 34.5537 36.5908 35.8202 40.0644 35.3443C43.5301 34.8693 45.5087 34.4416 45.5087 34.4416L45.2361 32.5619C45.2361 32.5619 42.6089 31.6795 39.7544 31.9767C38.0542 32.1538 35.5558 28.1818 34.6968 27.4401C33.8308 26.6919 32.7797 26.1694 31.6403 25.9613C30.638 25.7781 29.3951 25.7004 28.1096 25.9865Z" fill="white"/>
<path d="M28.1307 26.0714C26.5593 26.4214 25.4271 27.1803 25.4158 27.188C25.3887 27.2048 22.9958 28.7234 23.0526 31.5459C23.0866 33.2374 23.9683 35.0478 24.392 35.9181C24.5683 36.2803 24.624 36.3977 24.6193 36.4639C24.5395 37.595 24.0612 39.0118 23.6392 40.2623C23.2826 41.3188 22.9457 42.3164 23.048 42.6587C23.4045 43.851 28.1649 44.338 31.2841 44.1494C32.8381 44.0553 33.2808 43.8334 33.2981 43.729C33.3119 43.6441 33.2576 43.348 33.189 42.9735C32.9767 41.8168 32.5813 39.664 33.0122 37.7197C33.5868 35.1259 33.8002 32.5443 33.8026 32.5187C33.8054 32.4808 33.8337 32.4494 33.8719 32.441C33.9093 32.4326 33.9491 32.449 33.9688 32.4819C35.1625 34.4856 36.6543 35.7245 40.0531 35.2586C43.0907 34.8424 45.0043 34.4584 45.4096 34.3742L45.1564 32.6281C44.7755 32.5087 42.3491 31.7942 39.7648 32.0631C39.7246 32.0673 39.6837 32.0696 39.6427 32.0696C38.3785 32.0696 36.8083 30.1169 35.652 28.6786C35.231 28.1553 34.8675 27.7032 34.6383 27.5054C33.7664 26.7519 32.7243 26.2477 31.6247 26.0469C30.3916 25.8212 29.2161 25.8296 28.1307 26.0714ZM29.9419 44.3594C27.1574 44.3594 23.2462 43.9436 22.8766 42.7069C22.7589 42.3133 23.0726 41.3842 23.4696 40.208C23.8883 38.9675 24.363 37.5617 24.4412 36.4521C24.4357 36.413 24.3361 36.2084 24.2306 35.9919C23.8016 35.1113 22.9089 33.278 22.8741 31.5494C22.8153 28.6274 25.2917 27.0594 25.3167 27.0437C25.3252 27.038 26.4841 26.2604 28.0905 25.9023C29.2003 25.6552 30.4003 25.6464 31.6578 25.8763C32.7893 26.0833 33.8609 26.6016 34.7573 27.3758C34.9983 27.5842 35.3492 28.0199 35.793 28.5719C36.895 29.9428 38.5601 32.0149 39.7459 31.891C42.5866 31.5949 45.2399 32.4716 45.2662 32.4804C45.2977 32.4911 45.3206 32.5179 45.3253 32.5504L45.5978 34.4301C45.6045 34.4748 45.5746 34.5169 45.5289 34.5265C45.5092 34.5311 43.5074 34.9606 40.0779 35.4304C36.713 35.8913 35.1637 34.7277 33.9558 32.801C33.8849 33.5312 33.6557 35.6396 33.1867 37.7564C32.7633 39.6671 33.1544 41.7984 33.3647 42.9433C33.4513 43.4153 33.4923 43.6471 33.4742 43.7565C33.4265 44.0472 32.6936 44.2377 31.2955 44.3223C30.8977 44.3464 30.4373 44.3594 29.9419 44.3594Z" fill="#484C52"/>
<path d="M26.5429 27.3275C26.5429 27.3275 24.7913 28.0497 23.8665 30.9897C23.3561 32.6123 23.4496 34.9261 25.9668 38.0019C26.4703 38.617 27.1774 39.229 27.9758 39.3174L35.6264 38.9674L35.5925 36.5675C35.5925 36.5675 29.6595 36.2347 28.7674 35.9061C27.9778 35.615 26.8339 31.8255 26.7148 29.9657L26.5429 27.3275Z" fill="white"/>
<path d="M27.9751 39.4043C27.9717 39.4043 27.9685 39.4039 27.965 39.4035C27.0873 39.3064 26.3556 38.6171 25.8962 38.0559C25.6254 37.7251 25.3636 37.3888 25.1183 37.0572C25.0896 37.0182 25.0987 36.9642 25.1388 36.9363C25.1786 36.9084 25.2346 36.9172 25.2634 36.9562C25.5069 37.2856 25.767 37.6191 26.0361 37.9481C26.4731 38.4821 27.1643 39.1369 27.9782 39.2306L35.5352 38.8848L35.5037 36.6491C34.7526 36.6062 29.582 36.2994 28.7353 35.9873C28.0186 35.723 27.1748 33.0863 26.8301 31.3876C26.8206 31.3405 26.8521 31.295 26.9005 31.2858C26.9486 31.2766 26.9958 31.3072 27.0053 31.3543C27.4004 33.3021 28.2343 35.617 28.7987 35.8251C29.6675 36.1453 35.5375 36.4777 35.597 36.4807C35.6435 36.4834 35.6805 36.5205 35.6809 36.566L35.7151 38.9663C35.7155 39.013 35.6781 39.052 35.6301 39.0539L27.9793 39.4039C27.9779 39.4043 27.9765 39.4043 27.9751 39.4043Z" fill="#484C52"/>
<path d="M28.3108 21.3232L27.9848 19.8066C27.9144 19.4791 28.08 19.1475 28.3876 18.9968C28.8271 18.7818 29.5242 18.542 30.3776 18.599C30.7088 18.6212 30.9857 18.8522 31.0613 19.1666L31.3799 20.4886L28.3108 21.3232Z" fill="white"/>
<path d="M30.1217 18.6771C29.3994 18.6771 28.8095 18.8871 28.4271 19.0745C28.1557 19.2073 28.0097 19.501 28.0714 19.7891L28.3778 21.2147L31.2729 20.4279L30.974 19.1862C30.9066 18.9066 30.664 18.7054 30.3706 18.6855C30.286 18.6798 30.2029 18.6771 30.1217 18.6771ZM28.3101 21.4102C28.294 21.4102 28.2778 21.4056 28.2636 21.3975C28.2428 21.3849 28.2278 21.3646 28.2227 21.3409L27.8967 19.8243C27.8184 19.4597 28.0035 19.0875 28.3467 18.9196C28.7922 18.7016 29.5074 18.4541 30.3828 18.5126C30.755 18.5375 31.0622 18.7922 31.1477 19.1468L31.4659 20.4692C31.4769 20.5143 31.4493 20.5598 31.4033 20.5725L28.3341 21.4067C28.3263 21.409 28.318 21.4102 28.3101 21.4102Z" fill="#484C52"/>
<path d="M31.2294 19.2218C31.1029 19.2084 30.361 19.1407 29.6887 19.5695C29.0353 19.9864 29.0964 20.4588 28.4682 20.7334C27.9982 20.9392 27.7557 20.7996 27.189 20.8669C26.3453 20.9672 25.3183 21.4924 24.8916 22.3086C24.2241 23.5855 25.0171 25.5887 26.4783 26.1234C27.4253 26.4696 28.3418 26.0852 28.5265 26.003C28.9676 25.806 29.4044 25.2528 30.2779 24.1466C31.1821 23.0021 31.6338 22.4295 31.6456 21.9399C31.6472 21.8687 31.6441 21.6102 31.8083 21.5031C31.9485 21.4113 32.0942 21.5008 32.2766 21.4904C32.6657 21.4683 33.0737 21.0012 33.1052 20.6179C33.1599 19.9577 32.1171 19.3158 31.2294 19.2218Z" fill="#484C52"/>
<path d="M30.7676 25.3909L30.7259 24.3084C31.6124 24.3183 31.7148 22.8395 31.7148 22.8395L31.7935 21.3584C31.7935 21.3584 31.3146 21.3642 30.9429 21.1526C30.5711 20.9411 29.3049 20.7127 29.1482 21.5114L29.1293 21.8304C29.1293 21.8304 28.8536 21.5382 28.5799 21.8304C28.3066 22.1223 28.9481 22.7381 29.106 22.9026C29.106 22.9026 29.1218 22.9478 29.1545 23.0216L29.0541 25.4134C29.0474 25.5764 28.945 25.7214 28.791 25.7864L27.5 26.3338L30.5998 27.3555L32.1338 26.1712L31.0508 25.7734C30.8858 25.7126 30.7743 25.5619 30.7676 25.3909Z" fill="white"/>
<path d="M27.7465 26.3235L30.5815 27.2584L31.9544 26.1984L31.0187 25.8546C30.8194 25.7815 30.6859 25.6006 30.6776 25.394L30.6359 24.3119C30.6351 24.2882 30.6441 24.2652 30.6611 24.248C30.678 24.2312 30.7052 24.2209 30.7261 24.222C30.7284 24.222 30.7312 24.222 30.7335 24.222C31.5188 24.222 31.624 22.8476 31.6252 22.8339L31.6992 21.4423C31.535 21.4327 31.188 21.3929 30.897 21.2273C30.6646 21.0953 29.9837 20.9389 29.5643 21.1236C29.3819 21.204 29.2748 21.3344 29.2362 21.5222L29.2177 21.8355C29.2157 21.8699 29.1925 21.9001 29.1586 21.912C29.1247 21.9239 29.0869 21.9147 29.0629 21.8891C29.0621 21.8883 28.9637 21.7873 28.8432 21.7873C28.8428 21.7873 28.8424 21.7873 28.842 21.7873C28.7742 21.7877 28.7081 21.8217 28.6454 21.8887C28.5131 22.0298 28.677 22.3381 29.1326 22.8044L29.1708 22.8438C29.1795 22.8526 29.1858 22.8633 29.1901 22.8752C29.1905 22.8767 29.2055 22.9188 29.2358 22.9872C29.2413 22.9991 29.2437 23.0121 29.2433 23.0251L29.1425 25.417C29.1346 25.6117 29.0101 25.788 28.8262 25.866L27.7465 26.3235ZM30.5992 27.4424C30.5894 27.4424 30.5795 27.4409 30.5705 27.4378L27.4707 26.4161C27.4358 26.4042 27.4118 26.3733 27.4102 26.3373C27.4087 26.3017 27.4299 26.2688 27.4637 26.2543L28.7549 25.7073C28.8766 25.6557 28.9589 25.539 28.9641 25.4097L29.0637 23.0377C29.0464 22.9976 29.0346 22.9674 29.0275 22.949L29.003 22.9237C28.7636 22.6786 28.2024 22.104 28.5135 21.772C28.6116 21.6672 28.7222 21.614 28.8428 21.614H28.8432C28.9219 21.614 28.9924 21.6374 29.0487 21.6664L29.0586 21.5065C29.0586 21.5027 29.059 21.4989 29.0598 21.4951C29.1078 21.2518 29.2563 21.0689 29.4902 20.966C29.9778 20.7507 30.7131 20.9217 30.9876 21.0777C31.3333 21.2747 31.7874 21.2721 31.7918 21.2717C31.7922 21.2717 31.7925 21.2717 31.7929 21.2717C31.8174 21.2717 31.8406 21.2812 31.8571 21.2984C31.8745 21.3157 31.8835 21.339 31.8823 21.3627L31.8032 22.8442C31.7988 22.9069 31.6913 24.3069 30.8174 24.3915L30.856 25.3875C30.8615 25.5245 30.9501 25.6438 31.0817 25.6924L32.1647 26.0902C32.1946 26.1013 32.2163 26.1273 32.2214 26.1579C32.2262 26.1889 32.2139 26.2199 32.1887 26.2394L30.6548 27.4233C30.6386 27.4359 30.6189 27.4424 30.5992 27.4424Z" fill="#484C52"/>
<path d="M29.6731 22.6348C29.7219 22.7553 29.8007 23.0009 29.7503 23.3038C29.7239 23.4634 29.6691 23.5907 29.6211 23.6806C29.7286 23.8872 29.8621 24.0188 29.9499 24.0922C29.9499 24.0922 30.2335 24.3607 30.7778 24.4235C30.892 24.4365 30.9546 24.4368 31.0397 24.4166C31.2929 24.3558 31.4347 24.148 31.5134 24.0321C31.8458 23.5452 31.7718 22.8617 31.7509 22.6976C31.7509 22.6976 30.3485 22.9102 29.6731 22.6348Z" fill="white"/>
<path d="M29.7207 23.6799C29.7964 23.8138 29.8928 23.9301 30.0078 24.0272C30.0141 24.033 30.2835 24.2797 30.7876 24.3375C30.8995 24.3505 30.9487 24.3493 31.018 24.3329C31.237 24.2805 31.3634 24.0953 31.4386 23.9848C31.7017 23.5996 31.6974 23.0748 31.6714 22.7967C31.3721 22.8353 30.4288 22.9375 29.8117 22.773C29.8507 22.9214 29.8728 23.1088 29.8381 23.3181C29.8172 23.4431 29.7778 23.5644 29.7207 23.6799ZM30.907 24.5195C30.8644 24.5195 30.8195 24.5157 30.7667 24.51C30.1988 24.4446 29.8995 24.1665 29.8873 24.1546C29.7475 24.0376 29.6298 23.8899 29.5408 23.7201C29.5278 23.6952 29.5282 23.6658 29.5415 23.6409C29.601 23.53 29.6416 23.4118 29.6617 23.2905C29.705 23.03 29.6463 22.8078 29.5896 22.667C29.5766 22.6349 29.5849 22.5978 29.6105 22.5733C29.6361 22.5492 29.6743 22.5419 29.7073 22.5553C30.3517 22.8181 31.723 22.6146 31.7368 22.6123C31.7608 22.6089 31.7848 22.6146 31.8041 22.6288C31.8234 22.6429 31.836 22.664 31.8392 22.6873C31.8722 22.9466 31.9148 23.6015 31.5875 24.0808C31.5036 24.2036 31.3473 24.4323 31.0609 24.5012C31.0058 24.5142 30.9578 24.5195 30.907 24.5195Z" fill="#484C52"/>
<path d="M29.673 22.7168C29.6443 22.7168 29.6159 22.7034 29.5986 22.6782L29.0539 21.8783C29.0268 21.8382 29.0378 21.7846 29.0791 21.7578C29.1201 21.7314 29.1756 21.7425 29.2028 21.7823L29.7475 22.5825C29.7746 22.6223 29.7636 22.6763 29.7223 22.7026C29.7073 22.7122 29.69 22.7168 29.673 22.7168Z" fill="#484C52"/>
<path d="M29.6215 23.7676C29.5919 23.7676 29.5632 23.7534 29.5462 23.7278L29.0303 22.9494C29.0236 22.9394 29.0193 22.9283 29.0173 22.9165C28.9539 22.5401 28.9531 22.2586 28.9531 22.2467C28.9531 22.1989 28.9929 22.1603 29.0421 22.1599C29.0914 22.1599 29.1315 22.1989 29.1315 22.2467C29.1315 22.2494 29.1327 22.5175 29.1906 22.8706L29.6963 23.6337C29.7231 23.6739 29.7112 23.7278 29.6695 23.7534C29.6545 23.763 29.638 23.7676 29.6215 23.7676Z" fill="#484C52"/>
<path d="M49.7346 48.504L52.1913 46.9843C52.4288 46.837 52.4973 46.5302 52.3437 46.3007L51.0031 44.2971L47.6914 46.3458L49.0375 48.3571C49.1891 48.5835 49.4999 48.649 49.7346 48.504Z" fill="white"/>
<path d="M47.8167 46.3715L49.1136 48.3097C49.238 48.4952 49.4956 48.5496 49.6878 48.4306L52.1445 46.9105C52.239 46.852 52.3044 46.7613 52.328 46.6546C52.3521 46.5483 52.3316 46.4392 52.2701 46.3478L50.9776 44.4161L47.8167 46.3715ZM49.4653 48.667C49.2695 48.667 49.0778 48.574 48.9639 48.4042L47.6178 46.3929C47.6048 46.3734 47.6005 46.3497 47.6056 46.3272C47.6107 46.3046 47.6245 46.2847 47.6446 46.2725L50.9563 44.2237C50.9977 44.1981 51.0524 44.2096 51.0792 44.2497L52.4202 46.2533C52.5072 46.3838 52.5368 46.5395 52.5029 46.6913C52.4686 46.8435 52.3757 46.9732 52.2406 47.057L49.7839 48.5767C49.685 48.6379 49.5748 48.667 49.4653 48.667Z" fill="#484C52"/>
<path d="M40.74 35.1543L43.5906 33.3909L37.9056 24.7216L35.0547 26.4854L40.74 35.1543Z" fill="white"/>
<path d="M35.1773 26.5119L40.7669 35.0347L43.4666 33.3642L37.8774 24.8414L35.1773 26.5119ZM40.7393 35.2412C40.7098 35.2412 40.681 35.2271 40.6641 35.201L34.9788 26.5321C34.9662 26.5126 34.9618 26.4889 34.9669 26.4667C34.9721 26.4442 34.9862 26.4247 35.0059 26.4124L37.8569 24.6486C37.8982 24.623 37.9534 24.6349 37.9801 24.675L43.6655 33.3443C43.6781 33.3638 43.6824 33.3872 43.6773 33.4097C43.6722 33.4319 43.658 33.4514 43.6379 33.4641L40.7874 35.2274C40.7724 35.2366 40.7559 35.2412 40.7393 35.2412Z" fill="#484C52"/>
<path d="M38.3164 66.4795H45.4597V60.1975H42.3906L38.3164 66.4795Z" fill="#484C52"/>
<path d="M38.4779 66.3927H45.3703V60.2844H42.4394L38.4779 66.3927ZM45.4593 66.5664H38.316C38.2833 66.5664 38.2534 66.5492 38.2376 66.5213C38.2219 66.4937 38.2231 66.4601 38.2404 66.4333L42.3146 60.1513C42.3311 60.126 42.3595 60.1107 42.3902 60.1107H45.4593C45.5089 60.1107 45.5487 60.1497 45.5487 60.1976V66.4796C45.5487 66.5274 45.5089 66.5664 45.4593 66.5664Z" fill="#484C52"/>
<path d="M36.2754 66.4795H43.4187V60.1975H40.3496L36.2754 66.4795Z" fill="white"/>
<path d="M36.4365 66.3927H43.3289V60.2844H40.3984L36.4365 66.3927ZM43.4183 66.5664H36.275C36.2423 66.5664 36.2124 66.5492 36.1966 66.5213C36.1809 66.4937 36.182 66.4601 36.1994 66.4333L40.2736 60.1513C40.2897 60.126 40.3185 60.1107 40.3488 60.1107H43.4183C43.4675 60.1107 43.5077 60.1497 43.5077 60.1976V66.4796C43.5077 66.5274 43.4675 66.5664 43.4183 66.5664Z" fill="#484C52"/>
<path d="M43.9119 38.6408L46.4722 42.5451C46.0941 42.4977 45.7082 42.4732 45.3163 42.4732C40.3607 42.4732 36.3437 46.3752 36.3437 51.1884C36.3437 56.0015 40.3607 59.9418 45.3163 59.9418C47.9873 59.9418 50.3849 58.7832 52.0288 57.0481H56.8689C54.7096 61.076 50.3471 63.8477 45.3163 63.8477C38.1399 63.8477 32.3223 58.1777 32.3223 51.2075C32.3223 44.6979 37.396 39.3216 43.9119 38.6408Z" fill="#484C52"/>
<path d="M43.8662 38.7334C37.3317 39.4434 32.4108 44.7966 32.4108 51.208C32.4108 58.1299 38.2001 63.7613 45.3163 63.7613C50.1104 63.7613 54.4665 61.226 56.7204 57.1354H52.0673C50.31 58.9745 47.8514 60.0291 45.3163 60.0291C40.3189 60.0291 36.2538 56.0632 36.2538 51.1888C36.2538 46.3355 40.3189 42.3872 45.3163 42.3872C45.6424 42.3872 45.9712 42.404 46.2957 42.4381L43.8662 38.7334ZM45.3163 63.9346C38.1017 63.9346 32.2324 58.2256 32.2324 51.208C32.2324 48.0522 33.4308 45.0239 35.6068 42.681C37.7685 40.3534 40.7144 38.8883 43.902 38.5552C43.9363 38.5513 43.9686 38.567 43.9867 38.5946L46.5474 42.4989C46.5659 42.5272 46.5659 42.5635 46.5474 42.5922C46.5289 42.6205 46.495 42.6358 46.4603 42.6316C46.0831 42.5846 45.6979 42.5605 45.3163 42.5605C40.4174 42.5605 36.4322 46.4311 36.4322 51.1888C36.4322 55.9676 40.4174 59.8554 45.3163 59.8554C47.8147 59.8554 50.2372 58.8112 51.9625 56.99C51.9795 56.9721 52.0031 56.9617 52.0279 56.9617H56.8685C56.9 56.9617 56.9288 56.9778 56.9449 57.0038C56.961 57.0294 56.9622 57.0619 56.9477 57.0887C54.6835 61.3117 50.2265 63.9346 45.3163 63.9346Z" fill="#484C52"/>
<path d="M42.4354 38.6408L44.996 42.5451C44.6176 42.4977 44.2316 42.4732 43.8401 42.4732C38.8846 42.4732 34.8671 46.3752 34.8671 51.1884C34.8671 56.0015 38.8846 59.9418 43.8401 59.9418C46.5107 59.9418 48.9084 58.7832 50.5522 57.0481H55.3928C53.233 61.076 48.8705 63.8477 43.8401 63.8477C36.6634 63.8477 30.8457 58.1777 30.8457 51.2075C30.8457 44.6979 35.9194 39.3216 42.4354 38.6408Z" fill="white"/>
<path d="M42.3896 38.7334C35.8552 39.4434 30.9347 44.7966 30.9347 51.208C30.9347 58.1299 36.7236 63.7613 43.8397 63.7613C48.6342 63.7613 52.9904 61.226 55.2442 57.1354H50.5907C48.8335 58.9745 46.3752 60.0291 43.8397 60.0291C38.8428 60.0291 34.7773 56.0632 34.7773 51.1888C34.7773 46.3355 38.8428 42.3872 43.8397 42.3872C44.1662 42.3872 44.4946 42.404 44.8192 42.4381L42.3896 38.7334ZM43.8397 63.9346C36.6255 63.9346 30.7559 58.2256 30.7559 51.208C30.7559 48.0522 31.9543 45.0239 34.1306 42.681C36.2919 40.3534 39.2378 38.8883 42.4255 38.5552C42.4597 38.5513 42.492 38.567 42.5105 38.5946L45.0708 42.4989C45.0893 42.5272 45.0893 42.5635 45.0708 42.5922C45.0523 42.6205 45.0192 42.6358 44.9842 42.6316C44.6065 42.5846 44.2213 42.5605 43.8397 42.5605C38.9412 42.5605 34.9561 46.4311 34.9561 51.1888C34.9561 55.9676 38.9412 59.8554 43.8397 59.8554C46.3382 59.8554 48.7606 58.8112 50.486 56.99C50.5029 56.9721 50.5269 56.9617 50.5518 56.9617H55.3923C55.4234 56.9617 55.4522 56.9778 55.4683 57.0038C55.4845 57.0294 55.4857 57.0619 55.4711 57.0887C53.2074 61.3117 48.7504 63.9346 43.8397 63.9346Z" fill="#484C52"/>
<path d="M44.775 46.2793L47.4803 44.5653L41.6681 35.7024L38.9629 37.4168L44.775 46.2793Z" fill="#484C52"/>
<path d="M39.0868 37.4416L44.8032 46.1579L47.3588 44.5384L41.6427 35.822L39.0868 37.4416ZM44.7764 46.3652C44.7701 46.3652 44.7638 46.3645 44.7575 46.3633C44.7343 46.3583 44.7138 46.3446 44.7012 46.3251L38.8891 37.4626C38.8627 37.4225 38.8745 37.3693 38.9155 37.3433L41.6207 35.6288C41.6408 35.6162 41.6652 35.612 41.688 35.617C41.7117 35.622 41.7317 35.6353 41.7447 35.6552L47.5569 44.5177C47.5829 44.5579 47.5715 44.6106 47.5305 44.6367L44.8253 46.3511C44.8107 46.3603 44.7938 46.3652 44.7764 46.3652Z" fill="#484C52"/>
<path d="M48.0471 47.003L51.5258 44.8506C51.8846 44.6287 51.9901 44.1666 51.7617 43.8185L43.0076 30.47C42.8084 30.1662 42.394 30.0771 42.0813 30.2703L38.4353 32.526C38.1229 32.7195 38.0312 33.1219 38.2301 33.4256L46.9841 46.7738C47.2126 47.1223 47.6883 47.2248 48.0471 47.003Z" fill="white"/>
<path d="M42.4397 30.2542C42.3302 30.2542 42.2231 30.2844 42.1286 30.3429L38.4825 32.5982C38.2123 32.7658 38.1324 33.1154 38.3045 33.3782L47.0586 46.7268C47.1562 46.8756 47.3078 46.9785 47.4855 47.0167C47.6627 47.055 47.845 47.024 47.9982 46.9291L51.4773 44.7767C51.7936 44.5809 51.8873 44.1716 51.6857 43.864L42.9312 30.5158C42.8481 30.3885 42.7185 30.3005 42.5669 30.2676C42.5248 30.2588 42.4818 30.2542 42.4397 30.2542ZM47.6343 47.2061C47.5717 47.2061 47.5091 47.1996 47.4465 47.1862C47.2228 47.138 47.0314 47.0079 46.9081 46.8197L38.154 33.4715C37.9288 33.128 38.0331 32.6709 38.3868 32.4521L42.0325 30.1964C42.2038 30.0905 42.407 30.0557 42.6055 30.0985C42.8036 30.141 42.973 30.2561 43.082 30.4225L51.8361 43.7711C52.0905 44.159 51.9724 44.6757 51.573 44.9228L48.0943 47.0752C47.9545 47.1617 47.7958 47.2061 47.6343 47.2061Z" fill="#484C52"/>
<path d="M34.3264 26.6113L33.9436 26.0276C33.8581 25.8972 33.8975 25.7239 34.0322 25.6405L37.4762 23.5095C37.6109 23.4265 37.7893 23.4647 37.8748 23.5956L38.258 24.1793C38.3435 24.3101 38.3041 24.4834 38.1694 24.5664L34.7253 26.6974C34.5906 26.7804 34.4122 26.7421 34.3264 26.6113Z" fill="white"/>
<path d="M37.6305 23.5523C37.5931 23.5523 37.5561 23.5626 37.5238 23.5829L34.0797 25.7135C34.0348 25.7414 34.0037 25.7846 33.9919 25.8351C33.9805 25.8856 33.9899 25.9373 34.0187 25.9809L34.4015 26.565C34.4298 26.6086 34.4744 26.6388 34.5263 26.6499C34.5787 26.661 34.6319 26.6518 34.6768 26.6242L38.1208 24.4933C38.1661 24.4653 38.1968 24.4225 38.2087 24.372C38.2201 24.3215 38.2106 24.2695 38.1819 24.2259L37.7991 23.6422C37.7707 23.5986 37.7262 23.5683 37.6742 23.5569C37.6597 23.5538 37.6451 23.5523 37.6305 23.5523ZM34.57 26.8281C34.5429 26.8281 34.5153 26.8251 34.4877 26.8193C34.3893 26.7979 34.305 26.7405 34.2507 26.6579L33.8679 26.0742C33.8135 25.9916 33.7958 25.8933 33.8178 25.7976C33.8395 25.7016 33.8986 25.6201 33.9836 25.5674L37.4281 23.4364C37.5131 23.384 37.6144 23.3664 37.7128 23.3878C37.8113 23.4088 37.8956 23.4662 37.9499 23.5488L38.3327 24.1326C38.3867 24.2156 38.4048 24.3135 38.3827 24.4095C38.3611 24.5051 38.302 24.587 38.2169 24.6394L34.7725 26.7704C34.711 26.8082 34.6413 26.8281 34.57 26.8281Z" fill="#484C52"/>
<path d="M46.8418 57.0332H59.1498V55.6638H46.8418V57.0332Z" fill="white"/>
<path d="M46.9304 56.9459H59.0599V55.7497H46.9304V56.9459ZM59.1494 57.1191H46.8414C46.7917 57.1191 46.752 57.0805 46.752 57.0327V55.6633C46.752 55.6155 46.7917 55.5765 46.8414 55.5765H59.1494C59.1986 55.5765 59.2384 55.6155 59.2384 55.6633V57.0327C59.2384 57.0805 59.1986 57.1191 59.1494 57.1191Z" fill="#484C52"/>
<path d="M56.152 66.4634H34.3555V68.9199H56.152V66.4634Z" fill="#484C52"/>
<path d="M34.444 68.8336H56.0622V66.5507H34.444V68.8336ZM56.1512 69.0068H34.3546C34.3054 69.0068 34.2656 68.9682 34.2656 68.9204V66.4639C34.2656 66.4161 34.3054 66.3771 34.3546 66.3771H56.1512C56.2008 66.3771 56.2406 66.4161 56.2406 66.4639V68.9204C56.2406 68.9682 56.2008 69.0068 56.1512 69.0068Z" fill="#484C52"/>
<path d="M53.62 66.4634H31.1074V68.9199H53.62V66.4634Z" fill="white"/>
<path d="M31.196 68.8336H53.5297V66.5507H31.196V68.8336ZM53.6191 69.0068H31.1066C31.0574 69.0068 31.0176 68.9682 31.0176 68.9204V66.4639C31.0176 66.4161 31.0574 66.3771 31.1066 66.3771H53.6191C53.6683 66.3771 53.7085 66.4161 53.7085 66.4639V68.9204C53.7085 68.9682 53.6683 69.0068 53.6191 69.0068Z" fill="#484C52"/>
<path d="M36.7949 41.5512C36.7949 43.326 38.2761 44.7646 40.1035 44.7646C41.9305 44.7646 43.4117 43.326 43.4117 41.5512C43.4117 39.7767 41.9305 38.338 40.1035 38.338C38.2761 38.338 36.7949 39.7767 36.7949 41.5512Z" fill="white"/>
<path d="M40.1027 38.4244C38.3277 38.4244 36.8835 39.8267 36.8835 41.5506C36.8835 43.2746 38.3277 44.6773 40.1027 44.6773C41.8776 44.6773 43.3214 43.2746 43.3214 41.5506C43.3214 39.8267 41.8776 38.4244 40.1027 38.4244ZM40.1027 44.8506C38.2292 44.8506 36.7051 43.3703 36.7051 41.5506C36.7051 39.731 38.2292 38.2507 40.1027 38.2507C41.9761 38.2507 43.5002 39.731 43.5002 41.5506C43.5002 43.3703 41.9761 44.8506 40.1027 44.8506Z" fill="#484C52"/>
<path d="M38.3555 41.5512C38.3555 42.4884 39.1376 43.248 40.1025 43.248C41.0674 43.248 41.8495 42.4884 41.8495 41.5512C41.8495 40.6141 41.0674 39.8544 40.1025 39.8544C39.1376 39.8544 38.3555 40.6141 38.3555 41.5512Z" fill="#484C52"/>
<path d="M40.104 39.9413C39.1895 39.9413 38.446 40.6635 38.446 41.5513C38.446 42.4391 39.1895 43.1617 40.104 43.1617C41.0181 43.1617 41.7616 42.4391 41.7616 41.5513C41.7616 40.6635 41.0181 39.9413 40.104 39.9413ZM40.104 43.335C39.0915 43.335 38.2676 42.5347 38.2676 41.5513C38.2676 40.5679 39.0915 39.768 40.104 39.768C41.1165 39.768 41.94 40.5679 41.94 41.5513C41.94 42.5347 41.1165 43.335 40.104 43.335Z" fill="#484C52"/>
<path d="M55.7293 55.4863C55.8601 55.4863 55.9507 55.3632 55.9125 55.2423C55.7025 54.5725 54.6443 54.0634 53.3707 54.0634C52.0978 54.0634 51.0404 54.5717 50.8293 55.2404C50.7907 55.3616 50.8813 55.4848 51.012 55.4848C51.858 55.4852 54.8838 55.4859 55.7293 55.4863Z" fill="white"/>
<path d="M53.3721 54.1493C52.1729 54.1493 51.1171 54.6294 50.9158 55.2655C50.906 55.2976 50.9115 55.3313 50.9316 55.3577C50.9509 55.3829 50.9808 55.3975 51.0135 55.3975C51.8594 55.3982 54.8856 55.399 55.7312 55.399C55.7757 55.399 55.8013 55.3741 55.8127 55.3592C55.8328 55.3324 55.8387 55.2992 55.8285 55.267C55.6288 54.6298 54.5725 54.1493 53.3721 54.1493ZM55.7312 55.5723C54.8856 55.5723 51.8594 55.5715 51.0131 55.5711C50.9233 55.5711 50.8414 55.5306 50.7882 55.4606C50.7339 55.3894 50.7185 55.2999 50.7453 55.2146C50.9717 54.497 52.0768 53.976 53.3721 53.976C54.669 53.976 55.7737 54.4978 55.9994 55.2161C56.0262 55.3014 56.0104 55.3913 55.9561 55.4625C55.9029 55.5321 55.821 55.5723 55.7312 55.5723Z" fill="#484C52"/>
<path d="M52.0016 55.0371C51.9756 55.0371 51.9496 55.026 51.9319 55.0046C51.9008 54.9675 51.9071 54.9128 51.9457 54.883C52.2615 54.6366 52.7515 54.4878 53.289 54.474C53.3343 54.4725 53.3792 54.5104 53.3808 54.5586C53.382 54.6064 53.343 54.6462 53.2938 54.6473C52.8015 54.66 52.3395 54.7984 52.0571 55.018C52.041 55.031 52.0209 55.0371 52.0016 55.0371Z" fill="#484C52"/>
<path d="M37.252 36.7855L37.8529 36.7552L38.5591 36.6114L40.1864 36.1757C40.4069 36.1164 40.6357 36.2404 40.6999 36.4538C40.7657 36.6718 40.6357 36.9002 40.4105 36.961L39.4515 37.2208C39.3184 37.2567 39.2703 37.4162 39.3625 37.5164C39.5051 37.6717 39.6748 37.8003 39.8646 37.8959C40.21 38.0699 40.8153 38.3557 41.4494 38.5657C41.7467 38.6644 41.8019 39.0297 41.5053 39.1299L39.4657 39.045C39.062 39.0285 38.678 38.8878 38.3633 38.6498C37.6155 38.0849 37.252 36.7855 37.252 36.7855Z" fill="white"/>
<path d="M41.5064 39.2168C41.5048 39.2168 41.5036 39.2168 41.5024 39.2164L39.4628 39.1319C38.9926 39.1124 38.5416 38.9314 38.1935 38.6231L37.9265 38.3691L36.1038 38.5937C36.0546 38.6002 36.0101 38.5661 36.0042 38.5187C35.9979 38.4713 36.0325 38.4277 36.0814 38.4219L37.9469 38.192C37.9741 38.1886 38.0013 38.1974 38.021 38.2161L38.3164 38.4973C38.631 38.7761 39.0418 38.9406 39.4703 38.9586L41.4918 39.0428C41.5978 39.0007 41.6139 38.923 41.6139 38.879C41.6135 38.7957 41.554 38.6916 41.4217 38.648C40.7683 38.4311 40.1406 38.132 39.8247 37.9732C39.6254 37.8726 39.4478 37.7384 39.297 37.5743C39.2332 37.5047 39.2111 37.4094 39.2379 37.3203C39.2651 37.2308 39.3364 37.1623 39.4285 37.1375L40.3875 36.8777C40.4734 36.8548 40.5443 36.8001 40.5872 36.7247C40.6305 36.649 40.6407 36.5614 40.6155 36.4784C40.5647 36.3112 40.3836 36.2129 40.2111 36.2592L38.2502 36.7844C38.2466 36.7855 38.2431 36.7863 38.2396 36.7867C38.2313 36.7878 37.3822 36.9079 35.7332 36.9669C35.6844 36.9691 35.6426 36.9313 35.6407 36.8835C35.6391 36.8356 35.6773 36.7951 35.7265 36.7936C37.2971 36.7373 38.1348 36.626 38.2081 36.6161L40.1634 36.092C40.4296 36.0209 40.7089 36.1724 40.7869 36.4294C40.8254 36.5576 40.8101 36.6922 40.7435 36.8089C40.677 36.9252 40.5675 37.0089 40.4356 37.0449L39.4766 37.3046C39.4435 37.3134 39.4191 37.3367 39.4092 37.3689C39.3998 37.401 39.4073 37.4339 39.4301 37.4588C39.5664 37.6072 39.7271 37.7284 39.907 37.8191C40.2186 37.9759 40.8369 38.2708 41.4792 38.4839C41.6663 38.5455 41.7919 38.7042 41.7923 38.8787C41.7927 39.0305 41.6942 39.1583 41.5355 39.2118C41.5261 39.2149 41.5162 39.2168 41.5064 39.2168Z" fill="#484C52"/>
<path d="M45.1012 32.4223L45.1071 32.4173C44.5227 32.2846 43.9611 32.2769 43.431 32.4372C43.3321 32.6238 43.7299 32.7118 44.4337 32.8709C44.1347 33.3315 43.8405 33.8708 43.6428 34.393C43.5428 34.6565 43.7685 34.927 44.0556 34.8925C44.4242 34.8485 44.8429 34.7154 45.1685 34.6011L45.5092 34.4423C45.5695 33.3881 45.5139 32.5592 45.1012 32.4223Z" fill="white"/>
<path d="M43.5124 32.5037C43.5817 32.5894 43.9964 32.6831 44.4344 32.7822L44.4537 32.7864C44.4816 32.7929 44.5049 32.812 44.5159 32.8381C44.5269 32.8637 44.5242 32.8935 44.5088 32.9172C44.2764 33.2749 43.9519 33.8265 43.7263 34.4228C43.6904 34.5169 43.7077 34.6198 43.7719 34.6986C43.8377 34.7789 43.9397 34.8191 44.0441 34.8065C44.4182 34.7617 44.8439 34.6225 45.1334 34.5211L45.4225 34.3865C45.4497 33.9011 45.5056 32.6483 45.0716 32.5041C45.0637 32.5014 45.0562 32.498 45.0495 32.4934C44.484 32.3702 43.9803 32.3733 43.5124 32.5037ZM44.0059 34.9824C43.8605 34.9824 43.7239 34.9189 43.6321 34.8065C43.5289 34.6799 43.5014 34.5142 43.5585 34.3631C43.7692 33.8073 44.0622 33.2913 44.2918 32.9279C43.7125 32.7967 43.4179 32.7225 43.3435 32.5661C43.3257 32.529 43.3127 32.4697 43.3509 32.3974C43.362 32.3767 43.3813 32.3611 43.4041 32.3542C43.9283 32.1958 44.4923 32.1889 45.1271 32.3328C45.1433 32.3366 45.1578 32.3442 45.1693 32.3553C45.5438 32.5179 45.6722 33.1498 45.5977 34.4473C45.5962 34.4787 45.5769 34.507 45.5473 34.5203L45.2067 34.6795C45.2039 34.6806 45.2012 34.6818 45.1984 34.6829C44.9007 34.7873 44.4596 34.9315 44.0661 34.9786C44.046 34.9813 44.0256 34.9824 44.0059 34.9824Z" fill="#484C52"/>
<path d="M42.3279 16.6435C41.5627 13.3975 43.626 10.1691 46.9365 9.43276C50.247 8.69642 53.5513 10.7306 54.3165 13.9766C55.0817 17.2223 53.0184 20.4507 49.7083 21.187C46.3977 21.9234 43.0935 19.8892 42.3279 16.6435ZM41.4182 16.8459C42.2995 20.5846 46.1055 22.9275 49.9186 22.0794C53.7317 21.231 56.108 17.5126 55.2266 13.7743C54.3449 10.0356 50.5389 7.69232 46.7258 8.54074C42.9127 9.38877 40.5364 13.1072 41.4182 16.8459Z" fill="#484C52"/>
<path d="M54.4766 15.3541C54.4766 18.6643 51.7139 21.3477 48.3057 21.3477C44.8975 21.3477 42.1348 18.6643 42.1348 15.3541C42.1348 12.0438 44.8975 9.36044 48.3057 9.36044C51.7139 9.36044 54.4766 12.0438 54.4766 15.3541Z" fill="white"/>
<path d="M46.1679 15.1365C46.1679 15.8794 45.548 16.4814 44.7831 16.4814C44.0183 16.4814 43.3984 15.8794 43.3984 15.1365C43.3984 14.3937 44.0183 13.7916 44.7831 13.7916C45.548 13.7916 46.1679 14.3937 46.1679 15.1365Z" fill="#484C52"/>
<path d="M51.4647 13.1482C51.4647 13.8911 50.8448 14.4932 50.08 14.4932C49.3152 14.4932 48.6953 13.8911 48.6953 13.1482C48.6953 12.4058 49.3152 11.8033 50.08 11.8033C50.8448 11.8033 51.4647 12.4058 51.4647 13.1482Z" fill="#484C52"/>
<path d="M51.285 18.1766C51.285 18.9194 50.6652 19.5215 49.9003 19.5215C49.1359 19.5215 48.5156 18.9194 48.5156 18.1766C48.5156 17.4337 49.1359 16.8316 49.9003 16.8316C50.6652 16.8316 51.285 17.4337 51.285 18.1766Z" fill="#484C52"/>
<path d="M47.7921 12.6511C47.7921 13.1518 47.3743 13.5576 46.8592 13.5576C46.3436 13.5576 45.9258 13.1518 45.9258 12.6511C45.9258 12.1503 46.3436 11.7449 46.8592 11.7449C47.3743 11.7449 47.7921 12.1503 47.7921 12.6511Z" fill="#484C52"/>
<path d="M48.6359 15.5749C48.6359 16.0756 48.218 16.4814 47.7029 16.4814C47.1874 16.4814 46.7695 16.0756 46.7695 15.5749C46.7695 15.0746 47.1874 14.6687 47.7029 14.6687C48.218 14.6687 48.6359 15.0746 48.6359 15.5749Z" fill="#484C52"/>
<path d="M51.4056 15.5747C51.4056 15.9786 51.0689 16.3057 50.653 16.3057C50.2375 16.3057 49.9004 15.9786 49.9004 15.5747C49.9004 15.1711 50.2375 14.8441 50.653 14.8441C51.0689 14.8441 51.4056 15.1711 51.4056 15.5747Z" fill="#484C52"/>
<path d="M47.3412 17.7085C47.3412 18.112 47.004 18.4395 46.5886 18.4395C46.1727 18.4395 45.8359 18.112 45.8359 17.7085C45.8359 17.3049 46.1727 16.9775 46.5886 16.9775C47.004 16.9775 47.3412 17.3049 47.3412 17.7085Z" fill="#484C52"/>
<path d="M53.3021 14.2593C53.3021 14.6628 52.965 14.9902 52.5495 14.9902C52.1336 14.9902 51.7969 14.6628 51.7969 14.2593C51.7969 13.8557 52.1336 13.5283 52.5495 13.5283C52.965 13.5283 53.3021 13.8557 53.3021 14.2593Z" fill="#484C52"/>
<path d="M44.9031 17.4599C44.9031 17.7426 44.6676 17.9717 44.3766 17.9717C44.0855 17.9717 43.8496 17.7426 43.8496 17.4599C43.8496 17.1776 44.0855 16.9485 44.3766 16.9485C44.6676 16.9485 44.9031 17.1776 44.9031 17.4599Z" fill="#484C52"/>
<path d="M48.9367 11.2034C48.9367 11.4857 48.7008 11.7148 48.4098 11.7148C48.1187 11.7148 47.8828 11.4857 47.8828 11.2034C47.8828 10.9207 48.1187 10.6916 48.4098 10.6916C48.7008 10.6916 48.9367 10.9207 48.9367 11.2034Z" fill="#484C52"/>
<path d="M48.3347 19.3319C48.3347 19.6146 48.0988 19.8438 47.8078 19.8438C47.5172 19.8438 47.2812 19.6146 47.2812 19.3319C47.2812 19.0493 47.5172 18.8205 47.8078 18.8205C48.0988 18.8205 48.3347 19.0493 48.3347 19.3319Z" fill="#484C52"/>
<path d="M52.6551 17.0071C52.6551 17.2898 52.4192 17.5186 52.1285 17.5186C51.8375 17.5186 51.6016 17.2898 51.6016 17.0071C51.6016 16.7245 51.8375 16.4953 52.1285 16.4953C52.4192 16.4953 52.6551 16.7245 52.6551 17.0071Z" fill="#484C52"/>
<path d="M45.3836 12.5487C45.3836 12.8314 45.1481 13.0605 44.857 13.0605C44.566 13.0605 44.3301 12.8314 44.3301 12.5487C44.3301 12.2665 44.566 12.0373 44.857 12.0373C45.1481 12.0373 45.3836 12.2665 45.3836 12.5487Z" fill="#484C52"/>
<path d="M67.8418 51.0542C67.8418 51.0542 68.7582 52.1118 71.4698 52.1929C73.8517 52.2641 73.8887 51.6046 73.8619 51.2581C73.8335 50.8935 73.572 50.4226 71.5064 50.2C69.1978 49.9506 67.8418 51.0542 67.8418 51.0542Z" fill="white"/>
<path d="M67.9769 51.0634C68.2309 51.291 69.2324 52.0396 71.4717 52.1065C72.6189 52.1409 73.3456 52.0097 73.6331 51.7175C73.7748 51.5737 73.7835 51.4149 73.7721 51.2646C73.7453 50.9207 73.4625 50.4984 71.4957 50.2861C69.5573 50.0769 68.2935 50.8438 67.9769 51.0634ZM71.8175 52.2852C71.7049 52.2852 71.5879 52.2832 71.4662 52.2798C68.7464 52.1983 67.8115 51.1544 67.7729 51.1101C67.7575 51.0925 67.75 51.0695 67.7524 51.0466C67.7544 51.0236 67.7658 51.0026 67.7839 50.9877C67.8406 50.9418 69.1954 49.8635 71.5154 50.1136C73.6004 50.3389 73.9162 50.8152 73.9501 51.2516C73.9584 51.3614 73.9785 51.6177 73.7622 51.8372C73.4661 52.1379 72.8285 52.2852 71.8175 52.2852Z" fill="#484C52"/>
<path d="M71.1483 69.4854C70.2161 69.4854 69.4769 69.2841 69.434 69.2723C69.3863 69.2589 69.3592 69.2111 69.3726 69.1648C69.3863 69.1189 69.4352 69.0921 69.4828 69.1055C69.4974 69.1093 70.9227 69.4964 72.2837 69.1954C72.3314 69.1847 72.3794 69.2141 72.3905 69.2608C72.4015 69.3075 72.3716 69.3538 72.3231 69.3645C71.9226 69.4532 71.5201 69.4854 71.1483 69.4854Z" fill="#484C52"/>
<path d="M71.3619 64.3168L71.1457 66.3159L69.7539 66.4746V64.1042L71.3619 64.3168Z" fill="white"/>
<path d="M69.8444 64.2031V66.3766L71.0657 66.2373L71.265 64.3909L69.8444 64.2031ZM69.755 66.5605C69.7334 66.5605 69.7125 66.5529 69.6959 66.5387C69.6766 66.5223 69.666 66.4986 69.666 66.4741V64.1037C69.666 64.0784 69.677 64.0547 69.6963 64.0382C69.716 64.0218 69.7416 64.0145 69.7672 64.0176L71.3748 64.2307C71.4229 64.2368 71.4568 64.2789 71.4516 64.3255L71.2358 66.3245C71.2311 66.3651 71.1988 66.3968 71.1571 66.4018L69.7657 66.5602C69.7621 66.5605 69.7586 66.5605 69.755 66.5605Z" fill="#484C52"/>
<path d="M69.5349 69.9547C70.1142 70.0339 71.0645 70.1035 72.1799 69.954C72.5465 69.9046 72.7911 69.5607 72.7029 69.2119C72.4567 68.2415 72.0334 66.4 71.3059 65.5466L71.1256 66.0095L70.8763 65.5738C70.842 65.5141 70.7806 65.4736 70.7109 65.4652L70.1646 65.3978C70.0504 65.3837 69.9441 65.4571 69.9205 65.5665L69.8338 65.9678L69.5605 65.4411L69.3277 67.4787C69.2813 67.8834 69.2163 68.2858 69.1324 68.6848L69.0076 69.2781C68.9233 69.7095 69.1978 69.9084 69.5349 69.9547Z" fill="white"/>
<path d="M69.6174 65.7411L69.4177 67.4884C69.3712 67.8935 69.3055 68.302 69.2212 68.7021L69.0963 69.2954C69.066 69.4507 69.0865 69.5781 69.1566 69.6733C69.2527 69.8038 69.4228 69.8516 69.5489 69.8688C70.1396 69.9495 71.0738 70.0149 72.169 69.868C72.3202 69.8478 72.4561 69.7663 72.5412 69.6443C72.6266 69.5219 72.6538 69.3757 72.6176 69.2327L72.5644 69.0223C72.3293 68.0828 71.9433 66.5417 71.3345 65.7223L71.2104 66.0402C71.1978 66.0716 71.1679 66.0934 71.1332 66.0961C71.0974 66.0984 71.0659 66.0811 71.049 66.0517L70.7993 65.616C70.7792 65.5804 70.7422 65.5563 70.7008 65.5514L70.1546 65.484C70.0876 65.476 70.0234 65.5196 70.0092 65.5843L69.9222 65.9859C69.9143 66.0219 69.884 66.0494 69.8466 66.054C69.8092 66.0586 69.7725 66.0398 69.7552 66.0069L69.6174 65.7411ZM70.852 70.1289C70.3192 70.1289 69.8655 70.0872 69.5237 70.0405C69.294 70.0092 69.1168 69.917 69.0117 69.7743C68.9116 69.6389 68.8813 69.4668 68.9215 69.2621L69.0463 68.6677C69.1294 68.2722 69.1948 67.869 69.2401 67.4693L69.4732 65.4316C69.4776 65.3934 69.5071 65.3624 69.5461 65.3559C69.5851 65.3486 69.6241 65.3678 69.6418 65.4022L69.8001 65.7078L69.8348 65.5487C69.8675 65.3964 70.0179 65.292 70.177 65.3119L70.7233 65.3792C70.8209 65.3911 70.9076 65.4481 70.9556 65.5315L71.1116 65.8042L71.2242 65.5162C71.2352 65.4871 71.2616 65.4664 71.2927 65.4611C71.3242 65.4561 71.3561 65.4676 71.3762 65.4913C72.067 66.3019 72.4868 67.9792 72.7381 68.9814L72.7909 69.1914C72.8385 69.3799 72.8015 69.5808 72.6893 69.7414C72.5754 69.904 72.3947 70.0126 72.1934 70.0398C71.7106 70.1048 71.2585 70.1289 70.852 70.1289Z" fill="#484C52"/>
<path d="M71.4797 67.999C71.4786 67.999 71.4778 67.999 71.4766 67.999L70.1722 67.9573C70.123 67.9558 70.0844 67.9156 70.086 67.8678C70.0876 67.82 70.1305 67.7829 70.1781 67.7841L71.4825 67.8257C71.5317 67.8273 71.5703 67.8674 71.5688 67.9153C71.5672 67.9623 71.5278 67.999 71.4797 67.999Z" fill="#484C52"/>
<path d="M71.4799 69.5225C71.4788 69.5225 71.478 69.5225 71.4768 69.5225L70.1724 69.4804C70.1484 69.4808 69.5447 69.4808 69.4777 69.0699C69.4698 69.0225 69.5033 68.9781 69.5521 68.9709C69.601 68.9632 69.6463 68.9954 69.6541 69.0428C69.6967 69.3063 70.1649 69.3063 70.1748 69.3071L71.4768 69.3488C71.9262 69.3052 71.9604 69.1273 71.9604 69.1254C71.962 69.0776 72.0065 69.0409 72.0526 69.0416C72.1018 69.0432 72.1404 69.0833 72.1388 69.1311C72.1376 69.1652 72.1097 69.4636 71.4886 69.5221C71.4855 69.5221 71.4827 69.5225 71.4799 69.5225Z" fill="#484C52"/>
<path d="M64.8437 63.2529L64.6354 66.1699H62.9608L62.8828 63.2529H64.8437Z" fill="white"/>
<path d="M63.0474 66.0832H64.5514L64.7476 63.3394H62.9741L63.0474 66.0832ZM64.6349 66.2568H62.9604C62.9119 66.2568 62.8721 66.2193 62.871 66.1723L62.793 63.2549C62.7926 63.2315 62.8016 63.209 62.8186 63.1921C62.8351 63.1757 62.8584 63.1661 62.8824 63.1661H64.8433C64.8681 63.1661 64.8917 63.1761 64.9086 63.1937C64.9256 63.2113 64.9342 63.235 64.9327 63.2587L64.7239 66.1761C64.7204 66.2216 64.6818 66.2568 64.6349 66.2568Z" fill="#484C52"/>
<path d="M65.0729 67.8163C65.0768 68.0921 64.8827 68.3342 64.6062 68.3969C63.6433 68.6146 61.4748 69.0992 60.8561 69.1887C60.0531 69.3046 59.0666 69.0659 58.6424 68.6096C58.2179 68.1537 59.5923 67.0646 60.2441 66.6683C61.2133 66.0797 62.144 64.9161 62.5342 64.8637C62.9245 64.8116 63.6531 65.911 63.6531 65.911L64.8437 65.4252C64.8437 65.4252 65.0512 66.4167 65.0729 67.8163Z" fill="white"/>
<path d="M62.5634 64.9486C62.5575 64.9486 62.5516 64.949 62.5461 64.9498C62.3787 64.9723 62.0317 65.2921 61.6643 65.6306C61.2508 66.0116 60.7821 66.4435 60.2914 66.7418C59.7546 67.0677 58.724 67.8764 58.6547 68.3576C58.6432 68.4371 58.6606 68.5006 58.7082 68.5515C59.1032 68.9765 60.0409 69.219 60.8424 69.1027C61.4611 69.0136 63.6661 68.5205 64.5853 68.3124C64.8197 68.2597 64.9867 68.0516 64.9831 67.8175C64.9662 66.699 64.8279 65.8361 64.776 65.5469L63.687 65.991C63.6472 66.0074 63.6012 65.9936 63.5775 65.9581C63.2948 65.5316 62.8013 64.9486 62.5634 64.9486ZM60.4359 69.3047C59.6971 69.3047 58.9354 69.0549 58.5755 68.6678C58.492 68.5779 58.4589 68.4655 58.4778 68.3335C58.5605 67.7586 59.6715 66.914 60.1965 66.595C60.6722 66.3058 61.1338 65.8804 61.5414 65.5048C61.9802 65.1005 62.2976 64.8082 62.5217 64.778C62.9116 64.7256 63.4956 65.5243 63.6866 65.8032L64.8086 65.3453C64.8339 65.3353 64.8614 65.3365 64.8851 65.3487C64.9087 65.361 64.9256 65.3828 64.9307 65.408C64.9331 65.418 65.1403 66.4232 65.1615 67.8148C65.1666 68.13 64.9414 68.4104 64.6259 68.4815C63.7043 68.6896 61.4938 69.1838 60.8688 69.2745C60.7278 69.2947 60.5824 69.3047 60.4359 69.3047Z" fill="#484C52"/>
<path d="M60.4529 68.7695C59.842 68.7695 59.3052 68.6571 58.961 68.3553C58.9244 68.3231 58.9217 68.2684 58.9547 68.2329C58.9878 68.1973 59.0441 68.1946 59.0808 68.2267C60.3245 69.3173 64.5589 67.6553 64.6015 67.6381C64.6468 67.6201 64.6992 67.6415 64.7181 67.6855C64.7366 67.7299 64.7145 67.7807 64.6688 67.7987C64.5369 67.8511 62.1964 68.7695 60.4529 68.7695Z" fill="#484C52"/>
<path d="M62.3103 67.0029C62.2886 67.0029 62.2673 66.9953 62.2504 66.9804L61.3985 66.2341C61.3619 66.2023 61.3592 66.1472 61.3922 66.1117C61.4253 66.0761 61.4816 66.0734 61.5183 66.1056L62.3701 66.8518C62.4064 66.884 62.4095 66.9387 62.3764 66.9742C62.3587 66.993 62.3343 67.0029 62.3103 67.0029Z" fill="#484C52"/>
<path d="M71.8375 44.2342C71.8375 44.2342 72.3565 53.3541 72.6279 56.5022C72.8996 59.6503 71.993 64.7109 71.993 64.7109L69.4083 64.579C69.4083 64.579 69.2807 60.1472 69.1248 57.7614C69.0842 57.1402 68.944 56.5297 68.7073 55.9514C68.3584 55.0984 67.8318 53.6647 67.6235 52.3351C67.3001 50.2691 66.1978 47.0059 66.1978 47.0059C66.1978 47.0059 65.3026 63.293 65.2164 64.5725C65.2164 64.5725 63.1893 64.6601 62.4627 64.2163C62.4627 64.2163 61.1749 58.2774 61.36 55.0463C61.5447 51.8153 61.3419 43.7874 61.3419 43.7874L71.8375 44.2342Z" fill="#484C52"/>
<path d="M70.0079 57.1338C69.8441 57.1338 69.6803 57.1082 69.5219 57.0569C69.4751 57.042 69.4499 56.9926 69.4656 56.9471C69.481 56.902 69.5314 56.8771 69.5783 56.8924C69.8453 56.9789 70.1288 56.9831 70.3986 56.9047C70.4459 56.8905 70.4955 56.9169 70.5097 56.9628C70.5239 57.0083 70.4971 57.0569 70.4498 57.0707C70.3049 57.1128 70.1564 57.1338 70.0079 57.1338Z" fill="white"/>
<path d="M63.8876 61.54C63.8391 61.54 63.799 61.5022 63.7982 61.4551C63.7706 59.9943 62.0385 57.2467 62.0212 57.2192C61.9952 57.1782 62.0082 57.1247 62.0503 57.0998C62.0925 57.0746 62.1472 57.0872 62.1732 57.1281C62.2457 57.2425 63.9482 59.9438 63.977 61.4517C63.9778 61.4995 63.9384 61.5393 63.8891 61.54C63.8887 61.54 63.888 61.54 63.8876 61.54Z" fill="white"/>
<path d="M52.7291 30.1511C52.1691 29.5762 51.843 29.1129 51.843 29.1129C51.843 29.1129 50.8446 27.4781 50.0873 26.8867C49.3296 26.2957 49.211 26.2177 49.211 26.2177C49.211 26.2177 48.9735 26.5252 49.211 26.8867C49.3457 27.0925 49.6163 27.4001 49.8242 27.6273C49.9613 27.7764 49.964 27.9995 49.8333 28.154C49.6702 28.3475 49.5257 28.6654 49.7072 29.1129C49.9794 29.7831 50.6111 29.9273 50.9364 29.956C51.0581 29.9671 51.1605 30.0486 51.1932 30.1629C51.2479 30.3542 51.3452 30.6713 51.4893 31.0684L52.7291 30.1511Z" fill="white"/>
<path d="M49.2394 26.3467C49.1949 26.4461 49.1496 26.6321 49.2866 26.8409C49.419 27.0425 49.6887 27.3489 49.8916 27.57C50.0578 27.7513 50.0625 28.0202 49.903 28.2095C49.6939 28.457 49.6564 28.7504 49.7907 29.0817C50.0424 29.7013 50.6217 29.8417 50.9447 29.8704C51.1053 29.8846 51.2365 29.9905 51.2794 30.1401C51.3298 30.3153 51.4129 30.588 51.5334 30.9273L52.5968 30.1409C52.0801 29.6007 51.7827 29.1807 51.7697 29.1624C51.7567 29.1413 50.7678 27.5294 50.0318 26.9549C49.5635 26.59 49.341 26.4217 49.2394 26.3467ZM51.4897 31.1553C51.4811 31.1553 51.4724 31.1541 51.4641 31.1518C51.437 31.1438 51.4149 31.1235 51.4054 31.0975C51.2617 30.7012 51.164 30.3834 51.1073 30.1868C51.0845 30.1068 51.0144 30.0506 50.9285 30.0429C50.5646 30.0108 49.9116 29.8513 49.6245 29.1452C49.4253 28.6544 49.5911 28.3055 49.7647 28.0994C49.8683 27.9766 49.8656 27.8025 49.7581 27.6855C49.5509 27.4594 49.2748 27.1454 49.1362 26.9339C48.8684 26.5265 49.1287 26.1807 49.1397 26.1661C49.1685 26.1294 49.2217 26.1206 49.261 26.1466C49.2662 26.1497 49.3918 26.2331 50.1436 26.8199C50.9049 27.4139 51.8792 29.0017 51.9202 29.069C51.9206 29.069 52.2463 29.5292 52.7945 30.0923C52.8118 30.1099 52.8205 30.1343 52.8185 30.1588C52.8165 30.1833 52.8039 30.2059 52.7839 30.2208L51.5437 31.1377C51.5279 31.1492 51.509 31.1553 51.4897 31.1553Z" fill="#484C52"/>
<path d="M70.325 26.3526C70.325 26.3526 67.1822 24.8765 62.793 26.4895C59.119 27.8398 63.429 37.6276 62.7394 44.1024C62.7394 44.1024 68.5181 44.9481 70.1383 42.8125C70.9933 41.6856 70.325 26.3526 70.325 26.3526Z" fill="white"/>
<path d="M62.8361 44.0277C63.5509 44.1195 68.601 44.6914 70.0656 42.7612C70.7249 41.8922 70.4677 31.7177 70.2377 26.4095C69.827 26.2374 66.8331 25.0971 62.8239 26.5706C60.7019 27.3501 61.3368 31.0793 62.0713 35.3967C62.5754 38.3581 63.096 41.4194 62.8361 44.0277ZM65.2833 44.3594C63.9309 44.3594 62.8282 44.2029 62.7254 44.188C62.6782 44.1811 62.6451 44.1394 62.6498 44.0935C62.9271 41.4901 62.4025 38.4067 61.8952 35.425C61.1477 31.0322 60.5022 27.2385 62.7609 26.4084C67.1351 24.8007 70.3315 26.2596 70.3634 26.2745C70.3929 26.2883 70.4122 26.317 70.4138 26.3487C70.4409 26.976 71.073 41.7254 70.2094 42.8641C69.2807 44.0878 67.0658 44.3594 65.2833 44.3594Z" fill="#484C52"/>
<path d="M58.4414 30.2908C58.4414 30.2908 60.3499 27.6269 62.2462 26.5597C62.4715 26.4327 62.8224 26.2935 63.2713 26.1646C64.0425 27.9999 65.2224 31.4046 64.6375 33.9304C63.944 36.9247 64.1437 47.7273 64.2347 51.4082C60.4622 51.3283 59.4772 51.2453 59.4772 51.2453C59.0014 48.7077 61.0746 33.8612 61.0746 33.8612L58.4414 30.2908Z" fill="white"/>
<path d="M59.5532 51.1639C59.8316 51.1826 61.0135 51.2526 64.1429 51.3199C64.0586 47.875 63.8542 36.9148 64.5501 33.9114C65.1231 31.4369 63.9775 28.0922 63.219 26.2706C62.8334 26.385 62.5057 26.5135 62.2903 26.6348C60.5748 27.6006 58.823 29.921 58.5505 30.2909L61.1466 33.8107C61.16 33.8287 61.1655 33.8509 61.1624 33.8731C61.1419 34.02 59.131 48.4878 59.5532 51.1639ZM64.2343 51.4951C64.2335 51.4951 64.2331 51.4951 64.2323 51.4951C60.5 51.4159 59.4792 51.3325 59.4689 51.3314C59.4291 51.3283 59.3961 51.2993 59.389 51.2606C58.9227 48.7747 60.845 34.8604 60.9808 33.8838L58.3682 30.3414C58.3461 30.3115 58.3461 30.2713 58.3678 30.2415C58.3867 30.2147 60.3097 27.5494 62.2009 26.4845C62.4459 26.3468 62.807 26.2071 63.2457 26.0817C63.2895 26.0691 63.3363 26.0909 63.3537 26.1318C64.1197 27.9552 65.3157 31.3952 64.7242 33.9496C64.0267 36.9604 64.241 48.0724 64.3237 51.4064C64.3241 51.4301 64.3146 51.453 64.2973 51.4695C64.2807 51.4859 64.2579 51.4951 64.2343 51.4951Z" fill="#484C52"/>
<path d="M66.1309 35.2265C66.3968 31.9958 68.3222 27.9787 69.4076 25.9353C70.3103 26.0982 71.2429 26.3572 72.1735 26.7443C76.0358 28.3509 74.6657 33.8158 74.6657 33.8158L72.0435 33.428L72.0341 36.622C72.0246 39.6614 72.2424 42.6974 72.6847 45.7063L73.8378 51.123C73.4853 50.0061 67.8776 50.7727 65.3516 51.0041C65.7804 44.9401 65.8316 38.8574 66.1309 35.2265Z" fill="white"/>
<path d="M69.4578 26.0325C68.3468 28.1318 66.4824 32.0629 66.2213 35.2335C66.0795 36.9518 65.9949 39.1891 65.8968 41.7795C65.7905 44.5799 65.6704 47.7497 65.449 50.9082C65.7767 50.8772 66.1544 50.8382 66.5521 50.7968C69.8079 50.4599 72.7904 50.2139 73.6793 50.7995L72.5986 45.7236C72.156 42.7159 71.937 39.6554 71.946 36.6217L71.9559 33.4281C71.9559 33.4028 71.9673 33.3787 71.987 33.3623C72.0067 33.3458 72.0327 33.3385 72.0587 33.3424L74.5981 33.718C74.7426 33.0501 75.6402 28.2798 72.1398 26.824C71.2927 26.4717 70.3904 26.2054 69.4578 26.0325ZM73.8392 51.21C73.801 51.21 73.7655 51.1859 73.7537 51.1488C73.4717 50.2552 69.1518 50.7024 66.571 50.9694C66.1296 51.0153 65.7125 51.0581 65.3612 51.0906C65.3352 51.0929 65.3092 51.0841 65.2907 51.0661C65.2718 51.0485 65.262 51.0237 65.2639 50.9981C65.4896 47.8087 65.6109 44.602 65.7184 41.773C65.8165 39.1807 65.9015 36.9418 66.0433 35.2194C66.3091 31.9898 68.2165 27.9914 69.3294 25.8956C69.3476 25.8615 69.3865 25.8428 69.4251 25.8501C70.394 26.0253 71.3309 26.2991 72.2099 26.6648C73.8215 27.335 74.7718 28.7908 74.9585 30.8752C75.0983 32.4381 74.7572 33.8224 74.7537 33.8362C74.743 33.8802 74.6997 33.9085 74.6536 33.9016L72.1339 33.529L72.1244 36.6224C72.1154 39.6473 72.334 42.6994 72.7747 45.6941L73.9266 51.1059C73.9365 51.1511 73.9077 51.1958 73.8612 51.2073C73.8542 51.2092 73.8467 51.21 73.8392 51.21Z" fill="#484C52"/>
<path d="M61.6722 47.5186C61.6253 47.5186 61.5859 47.4826 61.5832 47.4363C61.5804 47.3885 61.6182 47.348 61.6675 47.3453C61.7848 47.3388 61.8856 47.2871 61.9754 47.1873C62.4642 46.6453 62.402 44.9813 62.3787 44.5698C62.1306 44.6 61.454 44.6547 60.7419 44.4703C60.6943 44.4577 60.6659 44.4102 60.6789 44.364C60.6915 44.3177 60.7408 44.2905 60.788 44.3024C61.6257 44.5196 62.4382 44.3865 62.4465 44.3854C62.4713 44.3812 62.4965 44.3873 62.5166 44.4022C62.5362 44.4171 62.5488 44.4397 62.5508 44.4642C62.5575 44.5522 62.7154 46.63 62.1101 47.3013C61.9884 47.4363 61.8427 47.5094 61.6773 47.5182C61.6753 47.5182 61.6738 47.5186 61.6722 47.5186Z" fill="#484C52"/>
<path d="M68.7971 48.1211C68.3871 48.1211 68.0417 47.9738 67.7703 47.6839C66.8519 46.7016 67.0811 44.4099 67.091 44.3128C67.0937 44.2872 67.1079 44.2642 67.1296 44.2497C67.1516 44.2355 67.1792 44.2313 67.2044 44.2382C69.0562 44.7458 70.9596 44.1483 70.9785 44.1422C71.0254 44.1273 71.0758 44.1521 71.0911 44.1977C71.1069 44.2428 71.0813 44.2921 71.0344 44.307C71.0155 44.3132 69.133 44.9053 67.2603 44.4325C67.2269 44.8892 67.1426 46.7548 67.9027 47.5672C68.1405 47.8216 68.445 47.9493 68.8057 47.9474C68.8546 47.9448 68.8951 47.9857 68.8955 48.0339C68.8955 48.0817 68.8557 48.1207 68.8065 48.1211C68.8034 48.1211 68.8002 48.1211 68.7971 48.1211Z" fill="#484C52"/>
<path d="M50.9492 31.0331C51.6743 33.0291 53.5997 36.1397 57.3344 36.298C58.6317 36.3531 59.8955 35.1031 61.6059 33.8614C61.6059 33.8614 59.8147 28.6283 59.6958 28.7702C59.1373 29.4373 57.74 31.3629 56.5203 31.395C54.7135 31.4424 53.8447 30.4089 52.9113 29.4503L50.9492 31.0331Z" fill="white"/>
<path d="M57.421 36.3867C57.3915 36.3867 57.3619 36.386 57.332 36.3848C53.0617 36.2035 51.3036 32.2648 50.8665 31.0617C50.8539 31.0277 50.8649 30.9895 50.8937 30.9661L52.8557 29.3833C52.892 29.3542 52.9451 29.3573 52.9778 29.3905C53.0381 29.4525 53.0983 29.5149 53.1586 29.5772C54.0384 30.4899 54.8713 31.3513 56.5191 31.3081C57.5561 31.2809 58.7565 29.7929 59.4012 28.9935C59.5406 28.8206 59.6509 28.684 59.7336 28.5938C59.7663 28.5582 59.8226 28.5548 59.8596 28.5865C59.8962 28.6186 59.8998 28.6733 59.8667 28.7089C59.7879 28.7954 59.6792 28.93 59.5418 29.1006C58.879 29.9222 57.6447 31.4519 56.5243 31.4814C54.7942 31.5277 53.8962 30.5962 53.0282 29.6958C52.9873 29.6533 52.9463 29.6113 52.9053 29.5688L51.0555 31.061C51.5163 32.2999 53.246 36.0379 57.3399 36.2115C58.3319 36.2532 59.3031 35.5073 60.5319 34.5625C60.754 34.3919 60.9832 34.2156 61.2207 34.0377C61.2597 34.0086 61.316 34.0155 61.3459 34.0538C61.3759 34.0916 61.3688 34.146 61.3298 34.175C61.0927 34.3525 60.8643 34.5281 60.6429 34.6983C59.4201 35.6385 58.4469 36.3867 57.421 36.3867Z" fill="#484C52"/>
<path d="M61.5783 37.7529H66.4964C66.8277 37.7529 67.0695 37.4484 66.9852 37.1371L65.1606 30.4014C65.1023 30.1857 64.9014 30.0353 64.6718 30.0353H59.7537C59.4225 30.0353 59.1807 30.3398 59.2649 30.6512L61.0895 37.3869C61.1478 37.6026 61.3487 37.7529 61.5783 37.7529Z" fill="white"/>
<path d="M59.755 30.1222C59.6251 30.1222 59.505 30.1796 59.4254 30.2795C59.3462 30.3797 59.3195 30.5071 59.3525 30.6295L61.1772 37.3651C61.2252 37.5426 61.3906 37.6666 61.5797 37.6666H66.4978C66.6278 37.6666 66.7479 37.6092 66.8271 37.509C66.9066 37.4088 66.9334 37.2814 66.9003 37.1594L65.0757 30.4237C65.0277 30.2462 64.8622 30.1222 64.6732 30.1222H59.755ZM66.4978 37.8398H61.5797C61.3099 37.8398 61.0732 37.6627 61.0047 37.4091L59.1801 30.6734C59.1328 30.4986 59.1706 30.3166 59.284 30.1739C59.3975 30.0308 59.5692 29.949 59.755 29.949H64.6732C64.943 29.949 65.1797 30.1261 65.2482 30.3793L67.0728 37.1154C67.1201 37.2898 67.0823 37.4719 66.9684 37.6149C66.855 37.758 66.6833 37.8398 66.4978 37.8398Z" fill="#484C52"/>
<path d="M67.8209 34.0055L67.1853 33.7572C66.9309 33.6578 66.7355 33.4539 66.6532 33.1995C66.6197 33.0959 66.5815 32.9666 66.5382 32.8067C66.3677 32.1778 65.8636 31.803 65.669 32.0619C65.5525 32.2172 65.8447 32.6889 65.788 32.9987C65.6903 33.53 64.7175 33.1387 64.5569 33.0787C64.1914 32.9421 64.1292 32.8289 63.8476 32.6499C63.6381 32.5167 63.3675 32.6908 63.4084 32.9306C63.4837 33.3743 63.6684 33.9405 64.1185 34.2132C64.8396 34.65 65.2039 34.6646 65.5702 34.6909C65.7766 34.7059 65.9746 34.7724 66.1483 34.8818C66.4122 35.0482 66.8391 35.3125 67.3601 35.6182L67.8209 34.0055Z" fill="white"/>
<path d="M63.6907 32.6905C63.6541 32.6905 63.6171 32.7008 63.584 32.7222C63.5308 32.7555 63.48 32.824 63.4958 32.9166C63.5663 33.3323 63.74 33.882 64.1653 34.1398C64.847 34.5529 65.2018 34.5778 65.5449 34.6023L65.576 34.6046C65.7946 34.6203 66.0092 34.691 66.1967 34.8092C66.4448 34.9657 66.8323 35.2059 67.3053 35.4847L67.7129 34.0568L67.1517 33.8376C66.8705 33.7279 66.6578 33.5049 66.5677 33.2256C66.5306 33.1101 66.4913 32.9766 66.4515 32.8286C66.3365 32.4047 66.0584 32.1041 65.8666 32.0689C65.7938 32.0559 65.7599 32.0876 65.7406 32.1133C65.7067 32.1584 65.7579 32.3336 65.795 32.4614C65.8473 32.6404 65.9068 32.8431 65.8753 33.0141C65.8517 33.1415 65.7855 33.2356 65.6776 33.2941C65.4571 33.4142 65.0869 33.3729 64.5457 33.1679L64.5245 33.1594C64.2657 33.0631 64.1499 32.9762 64.0156 32.8756C63.9522 32.8282 63.8868 32.7788 63.7982 32.7226C63.7644 32.7012 63.7277 32.6905 63.6907 32.6905ZM67.3597 35.7051C67.3435 35.7051 67.3277 35.7009 67.3136 35.6925C66.7933 35.3872 66.366 35.1225 66.0994 34.9546C65.9371 34.8525 65.7516 34.7913 65.563 34.7775L65.5319 34.7752C65.1672 34.7496 64.7899 34.7228 64.0708 34.2867C63.5887 33.9949 63.3961 33.3958 63.3197 32.9449C63.2949 32.7984 63.3587 32.6576 63.4863 32.5769C63.6127 32.4969 63.7695 32.4973 63.8959 32.5773C63.9904 32.6377 64.0617 32.6913 64.1247 32.7383C64.2531 32.8343 64.3543 32.9101 64.5883 32.9976L64.6107 33.0061C65.2101 33.2337 65.4744 33.2061 65.5906 33.143C65.6508 33.1101 65.6855 33.0592 65.6997 32.9835C65.7237 32.8519 65.6705 32.6698 65.6233 32.5088C65.563 32.3026 65.511 32.1244 65.5965 32.0108C65.6681 31.9155 65.7761 31.8757 65.8997 31.8987C66.19 31.9519 66.5015 32.3328 66.624 32.7846C66.6634 32.9299 66.7016 33.0608 66.7382 33.1736C66.8122 33.4031 66.9871 33.5867 67.2183 33.677L67.8539 33.9249C67.896 33.9413 67.9185 33.9861 67.9067 34.0285L67.4459 35.6416C67.4384 35.6676 67.4187 35.689 67.3927 35.699C67.3821 35.7032 67.3707 35.7051 67.3597 35.7051Z" fill="#484C52"/>
<path d="M67.041 35.745C68.9653 36.8746 72.175 38.571 73.2092 37.9892C74.5352 37.2437 74.9015 32.2251 74.9015 31.9248L70.8868 31.107L70.6973 32.9966C70.6473 33.4124 70.274 33.7192 69.8435 33.6974C69.165 33.6634 68.9168 33.6699 67.8023 33.4021L67.041 35.745Z" fill="white"/>
<path d="M72.6589 38.1934C71.3431 38.1934 68.9348 36.9575 66.9964 35.8195C66.9609 35.7988 66.9448 35.7571 66.9574 35.7193L67.7187 33.3764C67.7328 33.3328 67.7797 33.3071 67.825 33.3182C68.8434 33.563 69.1282 33.5764 69.6961 33.6036L69.8497 33.6112C70.2301 33.6304 70.5656 33.3561 70.6102 32.9866L70.7803 31.289C70.785 31.2416 70.8275 31.2064 70.878 31.211C70.9268 31.2159 70.9626 31.258 70.9579 31.3058L70.7878 33.0053C70.7322 33.4666 70.316 33.8078 69.8402 33.7845L69.6874 33.7769C69.1234 33.7501 68.8332 33.7359 67.8636 33.506L67.1488 35.7063C70.2919 37.5454 72.4277 38.3295 73.1661 37.9145C74.4185 37.2103 74.8135 32.3535 74.8135 31.9251C74.8135 31.8773 74.8533 31.8383 74.9025 31.8383C74.9521 31.8383 74.9919 31.8773 74.9919 31.9251C74.9919 31.9768 74.6709 37.2688 73.2555 38.0648C73.0984 38.1532 72.8963 38.1934 72.6589 38.1934Z" fill="#484C52"/>
<path d="M65.6491 23.2944C65.6306 23.3032 65.6176 23.3204 65.6152 23.3403L65.362 25.438C65.3108 25.7356 65.362 26.0768 65.0076 26.2332L64.6137 26.3893C64.442 26.4574 64.4479 26.6957 64.6232 26.755C65.0883 26.913 65.8385 27.1172 66.614 27.1191C67.3796 27.1214 68.0428 26.8319 68.437 26.6108C68.5926 26.5232 68.5611 26.2967 68.3874 26.2512L68.3213 26.234C68.0271 26.1567 67.8388 25.7956 67.7978 25.5022L67.4871 22.5202C67.4832 22.4796 67.4387 22.4555 67.4005 22.4731L65.6491 23.2944Z" fill="white"/>
<path d="M65.7033 23.366L65.452 25.448C65.4414 25.5092 65.4355 25.5674 65.4296 25.6293C65.4044 25.881 65.376 26.1664 65.046 26.3121L64.649 26.4697C64.582 26.4961 64.5785 26.5558 64.5789 26.5734C64.5797 26.591 64.5864 26.6503 64.6541 26.6732C65.1334 26.8362 65.8632 27.0305 66.6154 27.0328C66.6182 27.0328 66.6213 27.0328 66.6241 27.0328C67.3542 27.0328 67.9891 26.7627 68.3935 26.5355C68.4538 26.5018 68.451 26.4441 68.4487 26.4273C68.4463 26.41 68.4333 26.3527 68.3656 26.3351L68.2994 26.3179C67.9749 26.2326 67.7575 25.8489 67.711 25.5138L67.4038 22.5688L65.7033 23.366ZM66.6241 27.2061C66.6209 27.2061 66.6181 27.2061 66.615 27.2061C65.8376 27.2038 65.0877 27.0041 64.595 26.8369C64.48 26.7979 64.4036 26.6962 64.4005 26.578C64.3973 26.4594 64.4686 26.3538 64.5817 26.3091L64.9755 26.153C65.2082 26.0501 65.2283 25.8474 65.2519 25.6125C65.2579 25.5505 65.2646 25.4867 65.2752 25.4239L65.528 23.3304C65.5339 23.2807 65.5654 23.2382 65.6119 23.2164L67.3633 22.3952C67.407 22.3745 67.4586 22.3761 67.5015 22.3994C67.544 22.4223 67.5724 22.4644 67.5775 22.5115L67.8883 25.4935C67.9257 25.7621 68.0989 26.0857 68.3459 26.1503L68.412 26.1675C68.5282 26.1981 68.6101 26.2888 68.6255 26.4047C68.6413 26.5202 68.5865 26.6277 68.4829 26.6858C68.0592 26.9234 67.3936 27.2061 66.6241 27.2061Z" fill="#484C52"/>
<path d="M63.5665 19.5501C64.184 19.3676 63.5547 20.1793 65.7046 18.9759C66.5604 18.497 66.3579 19.653 66.5805 19.5291C67.402 19.0723 67.3732 19.0869 67.8328 19.0953C68.1369 19.101 68.4523 19.5688 68.4949 19.964C68.5516 20.4857 68.1558 20.7171 68.0455 21.8735C67.9679 22.6856 68.1487 23.1254 67.8671 23.3075C67.5828 23.4915 67.2492 23.1388 66.9227 23.3171C66.5001 23.5477 66.7825 24.2898 66.421 24.711C66.1929 24.976 65.5683 25.2216 64.4057 24.9757C64.2175 24.9359 64.084 24.7703 64.0895 24.5824C64.0962 24.3418 64.1064 24.0377 64.1411 23.7482C64.3069 22.3685 64.6983 21.9729 64.4475 21.6845C64.0631 21.2431 63.1581 21.7618 62.8922 21.3873C62.6158 20.9987 62.7213 19.8006 63.5665 19.5501Z" fill="#484C52"/>
<path d="M66.2936 20.8348L66.1963 21.2024C66.1506 21.3753 66.1171 21.5509 66.0967 21.7284C66.0577 22.0615 65.986 22.6338 65.921 22.9513C65.8253 23.4176 64.3213 23.2305 64.3213 23.2305L64.1732 22.9914L63.9975 22.9658C63.9637 22.9608 63.9302 22.949 63.9034 22.9283C63.8357 22.8759 63.814 22.791 63.842 22.7179C63.994 22.319 64.298 21.4316 64.3024 20.6983C64.3024 20.6983 65.2578 20.2018 66.2936 20.8348Z" fill="white"/>
<path d="M64.3747 23.1499C64.9627 23.2173 65.7791 23.1951 65.8327 22.935C65.8977 22.6186 65.9702 22.0376 66.0076 21.7193C66.0284 21.538 66.0631 21.3571 66.1096 21.1811L66.1903 20.8759C65.3566 20.3985 64.5839 20.6716 64.3905 20.7542C64.3724 21.4734 64.0932 22.3084 63.925 22.7487C63.91 22.7888 63.9234 22.8336 63.9585 22.8607C63.9711 22.8707 63.9892 22.8776 64.0104 22.8806L64.1861 22.9063C64.2125 22.9101 64.2357 22.925 64.2495 22.9472L64.3747 23.1499ZM64.9631 23.3584C64.6744 23.3584 64.4122 23.3297 64.3094 23.3171C64.2826 23.3136 64.2586 23.2983 64.2444 23.2758L64.118 23.0715L63.9837 23.052C63.9317 23.0444 63.8844 23.0252 63.8474 22.9965C63.7517 22.9227 63.7155 22.7992 63.7576 22.6886C63.8931 22.3336 64.2082 21.4294 64.2129 20.6984C64.2129 20.6667 64.231 20.6372 64.2597 20.6223C64.3007 20.6012 65.2735 20.1093 66.3407 20.7623C66.3734 20.7822 66.3892 20.8204 66.3793 20.8571L66.2825 21.2244C66.238 21.3927 66.2053 21.5656 66.1848 21.7388C66.147 22.0598 66.0741 22.6462 66.008 22.9686C65.9426 23.2869 65.4196 23.3584 64.9631 23.3584Z" fill="#484C52"/>
<path d="M66.334 22.0289C66.334 22.0289 66.5663 21.1457 66.9562 21.3358C67.3465 21.5263 67.0657 22.4922 66.334 22.0289Z" fill="white"/>
<path d="M2.83398 52.2214V67.0924C2.83398 68.1458 3.71321 69 4.7977 69C5.88223 69 6.76146 68.1458 6.76146 67.0924V52.2214H2.83398Z" fill="white"/>
<path d="M2.92266 52.3087V67.0929C2.92266 68.097 3.76357 68.9136 4.79714 68.9136C5.83075 68.9136 6.67162 68.097 6.67162 67.0929V52.3087H2.92266ZM4.79714 69.0869C3.66515 69.0869 2.74414 68.1926 2.74414 67.0929V52.2219C2.74414 52.1741 2.78407 52.1354 2.83342 52.1354H6.7609C6.81021 52.1354 6.85014 52.1741 6.85014 52.2219V67.0929C6.85014 68.1926 5.92917 69.0869 4.79714 69.0869Z" fill="#484C52"/>
<path d="M4.79612 68.6533C3.9102 68.6533 3.18945 67.9533 3.18945 67.0927V58.0477H6.40283V67.0927C6.40283 67.9533 5.68209 68.6533 4.79612 68.6533Z" fill="#484C52"/>
<path d="M3.28009 58.1347V67.0927C3.28009 67.9056 3.96082 68.5666 4.79748 68.5666C5.63417 68.5666 6.31491 67.9056 6.31491 67.0927V58.1347H3.28009ZM4.79748 68.7402C3.86233 68.7402 3.10156 68.0012 3.10156 67.0927V58.0478C3.10156 58 3.14146 57.961 3.19081 57.961H6.40419C6.45349 57.961 6.49343 58 6.49343 58.0478V67.0927C6.49343 68.0012 5.73267 68.7402 4.79748 68.7402Z" fill="#484C52"/>
<path d="M6.61457 50.8289H2.97884C2.58277 50.8289 2.26172 51.1407 2.26172 51.5255C2.26172 51.9099 2.58277 52.2217 2.97884 52.2217H6.61457C7.01064 52.2217 7.3317 51.9099 7.3317 51.5255C7.3317 51.1407 7.01064 50.8289 6.61457 50.8289Z" fill="white"/>
<path d="M2.97824 50.9155C2.63207 50.9155 2.35044 51.1894 2.35044 51.5256C2.35044 51.8618 2.63207 52.1353 2.97824 52.1353H6.61401C6.96019 52.1353 7.24185 51.8618 7.24185 51.5256C7.24185 51.1894 6.96019 50.9155 6.61401 50.9155H2.97824ZM6.61401 52.3086H2.97824C2.53365 52.3086 2.17188 51.9574 2.17188 51.5256C2.17188 51.0937 2.53365 50.7422 2.97824 50.7422H6.61401C7.0586 50.7422 7.42038 51.0937 7.42038 51.5256C7.42038 51.9574 7.0586 52.3086 6.61401 52.3086Z" fill="#484C52"/>
<path d="M3.97619 52.7711C3.779 52.7711 3.61914 52.9264 3.61914 53.1177V64.0759C3.61914 64.2676 3.779 64.4229 3.97619 64.4229C4.17338 64.4229 4.33323 64.2676 4.33323 64.0759V53.1177C4.33323 52.9264 4.17338 52.7711 3.97619 52.7711Z" fill="white"/>
<path d="M3.97563 52.857C3.82794 52.857 3.70782 52.9737 3.70782 53.1172V64.0754C3.70782 64.2188 3.82794 64.3355 3.97563 64.3355C4.12327 64.3355 4.24339 64.2188 4.24339 64.0754V53.1172C4.24339 52.9737 4.12327 52.857 3.97563 52.857ZM3.97563 64.5088C3.72952 64.5088 3.5293 64.3145 3.5293 64.0754V53.1172C3.5293 52.8781 3.72952 52.6838 3.97563 52.6838C4.22169 52.6838 4.42195 52.8781 4.42195 53.1172V64.0754C4.42195 64.3145 4.22169 64.5088 3.97563 64.5088Z" fill="#484C52"/>
<path d="M9.53125 52.2214V67.0924C9.53125 68.1458 10.4104 69 11.4949 69C12.5795 69 13.4587 68.1458 13.4587 67.0924V52.2214H9.53125Z" fill="white"/>
<path d="M9.62188 52.3087V67.0929C9.62188 68.097 10.4627 68.9136 11.4964 68.9136C12.53 68.9136 13.3708 68.097 13.3708 67.0929V52.3087H9.62188ZM11.4964 69.0869C10.3643 69.0869 9.44336 68.1926 9.44336 67.0929V52.2219C9.44336 52.1741 9.48329 52.1354 9.53264 52.1354H13.4601C13.5095 52.1354 13.5494 52.1741 13.5494 52.2219V67.0929C13.5494 68.1926 12.6284 69.0869 11.4964 69.0869Z" fill="#484C52"/>
<path d="M11.4953 68.6533C10.6094 68.6533 9.88867 67.9533 9.88867 67.0927V58.0477H13.1021V67.0927C13.1021 67.9533 12.3813 68.6533 11.4953 68.6533Z" fill="#484C52"/>
<path d="M9.97935 58.1347V67.0927C9.97935 67.9056 10.6601 68.5666 11.4967 68.5666C12.3334 68.5666 13.0142 67.9056 13.0142 67.0927V58.1347H9.97935ZM11.4967 68.7402C10.5615 68.7402 9.80078 68.0012 9.80078 67.0927V58.0478C9.80078 58 9.84075 57.961 9.89006 57.961H13.1034C13.1528 57.961 13.1927 58 13.1927 58.0478V67.0927C13.1927 68.0012 12.4319 68.7402 11.4967 68.7402Z" fill="#484C52"/>
<path d="M13.3138 50.8289H9.67806C9.28203 50.8289 8.96094 51.1407 8.96094 51.5255C8.96094 51.9099 9.28203 52.2217 9.67806 52.2217H13.3138C13.7099 52.2217 14.0309 51.9099 14.0309 51.5255C14.0309 51.1407 13.7099 50.8289 13.3138 50.8289Z" fill="white"/>
<path d="M9.6775 50.9155C9.33124 50.9155 9.04958 51.1894 9.04958 51.5256C9.04958 51.8618 9.33124 52.1353 9.6775 52.1353H13.3132C13.6594 52.1353 13.9411 51.8618 13.9411 51.5256C13.9411 51.1894 13.6594 50.9155 13.3132 50.9155H9.6775ZM13.3132 52.3086H9.6775C9.23283 52.3086 8.87109 51.9574 8.87109 51.5256C8.87109 51.0937 9.23283 50.7422 9.6775 50.7422H13.3132C13.7579 50.7422 14.1196 51.0937 14.1196 51.5256C14.1196 51.9574 13.7579 52.3086 13.3132 52.3086Z" fill="#484C52"/>
<path d="M10.6754 52.7711C10.4782 52.7711 10.3184 52.9264 10.3184 53.1177V64.0759C10.3184 64.2676 10.4782 64.4229 10.6754 64.4229C10.8726 64.4229 11.0325 64.2676 11.0325 64.0759V53.1177C11.0325 52.9264 10.8726 52.7711 10.6754 52.7711Z" fill="white"/>
<path d="M10.6747 52.857C10.5272 52.857 10.407 52.9737 10.407 53.1172V64.0754C10.407 64.2188 10.5272 64.3355 10.6747 64.3355C10.8224 64.3355 10.9425 64.2188 10.9425 64.0754V53.1172C10.9425 52.9737 10.8224 52.857 10.6747 52.857ZM10.6747 64.5088C10.4287 64.5088 10.2285 64.3145 10.2285 64.0754V53.1172C10.2285 52.8781 10.4287 52.6838 10.6747 52.6838C10.9208 52.6838 11.1211 52.8781 11.1211 53.1172V64.0754C11.1211 64.3145 10.9208 64.5088 10.6747 64.5088Z" fill="#484C52"/>
<path d="M16.2305 52.2214V67.0924C16.2305 68.1458 17.1097 69 18.1942 69C19.2787 69 20.1579 68.1458 20.1579 67.0924V52.2214H16.2305Z" fill="white"/>
<path d="M16.3211 52.3087V67.0929C16.3211 68.097 17.162 68.9136 18.1955 68.9136C19.2291 68.9136 20.07 68.097 20.07 67.0929V52.3087H16.3211ZM18.1955 69.0869C17.0635 69.0869 16.1426 68.1926 16.1426 67.0929V52.2219C16.1426 52.1741 16.1825 52.1354 16.2319 52.1354H20.1592C20.2086 52.1354 20.2485 52.1741 20.2485 52.2219V67.0929C20.2485 68.1926 19.3275 69.0869 18.1955 69.0869Z" fill="#484C52"/>
<path d="M18.1946 68.6533C17.3086 68.6533 16.5879 67.9533 16.5879 67.0927V58.0477H19.8012V67.0927C19.8012 67.9533 19.0805 68.6533 18.1946 68.6533Z" fill="#484C52"/>
<path d="M16.6766 58.1347V67.0927C16.6766 67.9056 17.3573 68.5666 18.194 68.5666C19.0307 68.5666 19.7114 67.9056 19.7114 67.0927V58.1347H16.6766ZM18.194 68.7402C17.2588 68.7402 16.498 68.0012 16.498 67.0927V58.0478C16.498 58 16.538 57.961 16.5873 57.961H19.8007C19.85 57.961 19.89 58 19.89 58.0478V67.0927C19.89 68.0012 19.1292 68.7402 18.194 68.7402Z" fill="#484C52"/>
<path d="M20.013 50.8289H16.3773C15.9812 50.8289 15.6602 51.1407 15.6602 51.5255C15.6602 51.9099 15.9812 52.2217 16.3773 52.2217H20.013C20.4091 52.2217 20.7301 51.9099 20.7301 51.5255C20.7301 51.1407 20.4091 50.8289 20.013 50.8289Z" fill="white"/>
<path d="M16.3768 50.9155C16.0305 50.9155 15.7489 51.1894 15.7489 51.5256C15.7489 51.8618 16.0305 52.1353 16.3768 52.1353H20.0124C20.3586 52.1353 20.6403 51.8618 20.6403 51.5256C20.6403 51.1894 20.3586 50.9155 20.0124 50.9155H16.3768ZM20.0124 52.3086H16.3768C15.9321 52.3086 15.5703 51.9574 15.5703 51.5256C15.5703 51.0937 15.9321 50.7422 16.3768 50.7422H20.0124C20.457 50.7422 20.8188 51.0937 20.8188 51.5256C20.8188 51.9574 20.457 52.3086 20.0124 52.3086Z" fill="#484C52"/>
<path d="M17.3746 52.7711C17.1774 52.7711 17.0176 52.9264 17.0176 53.1177V64.0759C17.0176 64.2676 17.1774 64.4229 17.3746 64.4229C17.5718 64.4229 17.7316 64.2676 17.7316 64.0759V53.1177C17.7316 52.9264 17.5718 52.7711 17.3746 52.7711Z" fill="white"/>
<path d="M17.3741 52.857C17.2264 52.857 17.1063 52.9737 17.1063 53.1172V64.0754C17.1063 64.2188 17.2264 64.3355 17.3741 64.3355C17.5217 64.3355 17.6418 64.2188 17.6418 64.0754V53.1172C17.6418 52.9737 17.5217 52.857 17.3741 52.857ZM17.3741 64.5088C17.1279 64.5088 16.9277 64.3145 16.9277 64.0754V53.1172C16.9277 52.8781 17.1279 52.6838 17.3741 52.6838C17.6201 52.6838 17.8204 52.8781 17.8204 53.1172V64.0754C17.8204 64.3145 17.6201 64.5088 17.3741 64.5088Z" fill="#484C52"/>
<path d="M21.4237 62.0244H1.56932C1.16749 62.0244 0.841797 61.7081 0.841797 61.3175C0.841797 60.9274 1.16749 60.611 1.56932 60.611H21.4237C21.8255 60.611 22.1512 60.9274 22.1512 61.3175C22.1512 61.7081 21.8255 62.0244 21.4237 62.0244Z" fill="#484C52"/>
<path d="M1.56872 60.6973C1.21683 60.6973 0.930477 60.9754 0.930477 61.317C0.930477 61.659 1.21683 61.9371 1.56872 61.9371H21.4231C21.775 61.9371 22.0613 61.659 22.0613 61.317C22.0613 60.9754 21.775 60.6973 21.4231 60.6973H1.56872ZM21.4231 62.1104H1.56872C1.11833 62.1104 0.751953 61.7546 0.751953 61.317C0.751953 60.8798 1.11833 60.5237 1.56872 60.5237H21.4231C21.8734 60.5237 22.2398 60.8798 22.2398 61.317C22.2398 61.7546 21.8734 62.1104 21.4231 62.1104Z" fill="white"/>
<path d="M21.4237 70.4131H1.56932C1.16749 70.4131 0.841797 70.0967 0.841797 69.7066C0.841797 69.3164 1.16749 69.0001 1.56932 69.0001H21.4237C21.8255 69.0001 22.1512 69.3164 22.1512 69.7066C22.1512 70.0967 21.8255 70.4131 21.4237 70.4131Z" fill="#484C52"/>
<path d="M1.56872 69.0866C1.21683 69.0866 0.930477 69.3647 0.930477 69.7067C0.930477 70.0486 1.21683 70.3267 1.56872 70.3267H21.4231C21.775 70.3267 22.0613 70.0486 22.0613 69.7067C22.0613 69.3647 21.775 69.0866 21.4231 69.0866H1.56872ZM21.4231 70.5H1.56872C1.11833 70.5 0.751953 70.1443 0.751953 69.7067C0.751953 69.2691 1.11833 68.9133 1.56872 68.9133H21.4231C21.8734 68.9133 22.2398 69.2691 22.2398 69.7067C22.2398 70.1443 21.8734 70.5 21.4231 70.5Z" fill="white"/>
</g>
</svg>
