<svg width="16" height="16" viewBox="0 0 16 16" fill="none" xmlns="http://www.w3.org/2000/svg">
<g clip-path="url(#clip0_17_153)">
<path d="M1.78069 2.95632C3.26466 2.64248 3.25297 4.95454 3.03837 6.78792C2.79597 8.17782 1.27678 9.47817 0 9.02726V5.14848C0 4.06889 0.763812 3.16773 1.78069 2.95632Z" fill="#FFAF1E"/>
<path d="M7.83905 0.428985L4.11018 1.00205C2.5443 1.31236 2.59893 1.94408 2.6853 2.50508L3.31468 6.56533C3.43136 7.31811 3.83924 7.99489 4.4503 8.4497C7.23377 8.96002 10.4688 0.141829 7.83905 0.428985Z" fill="#7BDFFC"/>
<path d="M4.11019 1.00195L2.97019 1.17717C2.18088 1.2987 1.63916 2.03695 1.76069 2.8263C1.79875 3.07398 2.36888 6.7827 2.36966 6.78783L3.63641 7.99995C3.89903 8.25523 4.17244 8.39867 4.45034 8.44964L3.51325 2.40423C3.42688 1.84323 3.67572 1.3083 4.11019 1.00195Z" fill="#1ECDFA"/>
<path d="M16 7.81499V11.6938C15.4833 12.994 11.8465 10.8228 12.4391 9.45443C12.9787 7.60983 13.6351 5.33321 14.7404 5.80093C15.4861 6.16427 16 6.92968 16 7.81499Z" fill="#FFAF1E"/>
<path d="M13.5112 10.4242L15.4344 3.19413C15.6397 2.42225 15.1807 1.63032 14.4088 1.42475L10.496 0.383691C8.87281 -0.0377783 8.82106 0.578878 8.68084 1.10613L7.69934 5.10053L8.16468 6.61285L9.62272 9.45447L13.5112 10.4242Z" fill="#727BEB"/>
<path d="M10.496 0.383745L9.23831 0.04912C8.46438 -0.157255 7.67328 0.30612 7.46894 1.0744L7.23878 1.93937L6.76172 3.87878L8.16459 6.6129L9.44141 1.41671C9.58162 0.889464 9.99822 0.50587 10.496 0.383745Z" fill="#5A6CD9"/>
<path d="M10.4327 1.93945H6.54773C5.27779 1.93945 4.79138 2.68133 4.79138 3.26492V10.4243H11.8789V3.38561C11.8788 2.58689 11.2314 1.93945 10.4327 1.93945Z" fill="#F0EDFF"/>
<path d="M6.5477 1.93945C5.80657 1.93945 5.21917 1.93945 5.08251 1.93945C4.28379 1.93945 3.63635 2.58689 3.63635 3.38561V10.4243H5.72929V3.26495C5.72929 2.68136 6.06342 2.17717 6.5477 1.93945Z" fill="#DCDBFF"/>
<path d="M16 13.7606V11.6939C16 10.4632 15.0032 9.45453 13.7607 9.45453C13.4344 9.45453 7.52434 9.45453 7.2285 9.45453C6.66478 9.45453 6.15343 9.12515 5.92006 8.61219L5.68765 8.1005C5.33359 7.32153 4.55362 6.78784 3.63762 6.78784C2.16571 6.78784 1.45459 7.954 1.45459 8.85372V13.7671C1.45459 14.8266 1.81821 16 4.04162 16H13.7607C14.9974 16 16 14.9973 16 13.7606Z" fill="#FADE65"/>
<path d="M2.42425 13.7671V8.85372C2.42425 7.954 2.91712 7.17419 3.63756 6.78784C3.03319 6.78784 3.2785 6.78784 2.23934 6.78784C1.00266 6.78784 0 7.7905 0 9.02719V13.7606C0 14.9973 1.00266 16 2.23934 16H4.04156C3.10759 15.7201 2.42425 14.8266 2.42425 13.7671Z" fill="#FFC647"/>
<path d="M4.36364 9.68695V9.46458C4.36364 9.05729 4.03361 8.72729 3.62636 8.72729H2.42767C1.74361 8.84042 1.45455 10.1926 2.42427 10.4243H3.62636C4.03364 10.4243 4.36364 10.0942 4.36364 9.68695Z" fill="#F68953"/>
<path d="M2.42768 8.72729H2.19187C1.78459 8.72729 1.45459 9.05733 1.45459 9.46458V9.68695C1.45459 10.0942 1.78462 10.4242 2.19187 10.4242H2.42428C2.42553 8.76961 2.4215 8.84704 2.42768 8.72729Z" fill="#DF6D2B"/>
<path d="M10.5717 12.2385C11.0956 12.2385 11.5204 12.5766 11.5204 12.9939C11.5204 13.4112 11.0956 13.7497 10.5717 13.7497C10.0474 13.7497 9.62268 13.4112 9.62268 12.9939C9.62268 12.5767 10.0474 12.2385 10.5717 12.2385Z" fill="#FFA1AC"/>
<path d="M5.42842 12.2385C5.9527 12.2385 6.37742 12.5766 6.37742 12.9939C6.37742 13.4112 5.9527 13.7497 5.42842 13.7497C4.90445 13.7497 4.47974 13.4112 4.47974 12.9939C4.47974 12.5767 4.90445 12.2385 5.42842 12.2385Z" fill="#FFA1AC"/>
<path d="M5.98145 12.509C5.84758 12.509 5.73901 12.4004 5.73901 12.2665V11.8787C5.73901 11.7448 5.84754 11.6362 5.98145 11.6362C6.11533 11.6362 6.22389 11.7448 6.22389 11.8787V12.2665C6.22389 12.4004 6.11533 12.509 5.98145 12.509Z" fill="#25383F"/>
<path d="M10.0187 12.509C9.88481 12.509 9.77625 12.4004 9.77625 12.2665V11.8787C9.77625 11.7448 9.88478 11.6362 10.0187 11.6362C10.1526 11.6362 10.2611 11.7448 10.2611 11.8787V12.2665C10.2611 12.4004 10.1526 12.509 10.0187 12.509Z" fill="#25383F"/>
<path d="M8.00004 12.7397C7.72566 12.7397 7.46507 12.621 7.28507 12.4139C7.19723 12.3129 7.20791 12.1598 7.30894 12.0719C7.40994 11.9841 7.5631 11.9947 7.65094 12.0958C7.83538 12.3079 8.16491 12.3077 8.34913 12.0958C8.43697 11.9948 8.59013 11.9841 8.69113 12.0719C8.79216 12.1598 8.80285 12.3129 8.71501 12.4139C8.53501 12.621 8.27441 12.7397 8.00004 12.7397Z" fill="#25383F"/>
<path d="M10.4242 4.12111C10.5581 4.12111 10.6667 4.01257 10.6667 3.87867C10.6667 3.74476 10.5581 3.63623 10.4242 3.63623H5.72926C5.3492 3.79786 5.3492 3.95945 5.72926 4.12107L10.4242 4.12111Z" fill="#DCDBFF"/>
<path d="M4.84851 3.87888C4.84851 4.01276 4.95704 4.12132 5.09095 4.12132H5.72932V3.63647H5.09095C4.95704 3.63647 4.84851 3.74501 4.84851 3.87888Z" fill="#C7C7F9"/>
<path d="M10.4242 5.09082H5.72927C5.23533 5.25279 5.23324 5.41438 5.72927 5.57566H10.4242C10.5581 5.57566 10.6667 5.46713 10.6667 5.33323C10.6666 5.19935 10.5581 5.09082 10.4242 5.09082Z" fill="#DCDBFF"/>
<path d="M5.09095 5.09082C4.95707 5.09082 4.84851 5.19935 4.84851 5.33326C4.84851 5.46713 4.95704 5.5757 5.09095 5.5757H5.72932V5.09085H5.09095V5.09082Z" fill="#C7C7F9"/>
<path d="M10.4242 7.03029H7.03028C6.8964 7.03029 6.78784 6.92175 6.78784 6.78785C6.78784 6.65397 6.89637 6.54541 7.03028 6.54541H10.4242C10.5581 6.54541 10.6667 6.65394 10.6667 6.78785C10.6666 6.92172 10.5581 7.03029 10.4242 7.03029Z" fill="#DCDBFF"/>
</g>
<defs>
<clipPath id="clip0_17_153">
<rect width="16" height="16" fill="white"/>
</clipPath>
</defs>
</svg>
