<svg width="26" height="26" viewBox="0 0 26 26" fill="none" xmlns="http://www.w3.org/2000/svg">
<g clip-path="url(#clip0_0_204)">
<path d="M0.667875 2.32868C1.29731 1.49424 2.25779 1.01562 3.30307 1.01562H3.74557V0.761719C3.74557 0.341047 4.08662 0 4.50729 0C4.92797 0 5.26901 0.341047 5.26901 0.761719V2.79297C5.26901 3.21364 4.92797 3.55469 4.50729 3.55469C4.08662 3.55469 3.74557 3.21364 3.74557 2.79297V2.53906H3.30307C2.74026 2.53906 2.22305 2.79678 1.88414 3.24609C1.54522 3.6954 1.4395 4.26349 1.59413 4.80467L3.61583 11.8806C4.17996 13.8553 6.00829 15.2344 8.06193 15.2344C10.1156 15.2344 11.9439 13.8553 12.5081 11.8807L14.5298 4.80467C14.6844 4.26349 14.5787 3.6954 14.2398 3.24609C13.9009 2.79678 13.3837 2.53906 12.8208 2.53906H12.3784V2.79297C12.3784 3.21364 12.0373 3.55469 11.6167 3.55469C11.196 3.55469 10.8549 3.21364 10.8549 2.79297V0.761719C10.8549 0.341047 11.196 0 11.6167 0C12.0373 0 12.3784 0.341047 12.3784 0.761719V1.01562H12.8208C13.8661 1.01562 14.8266 1.49424 15.456 2.32868C16.0855 3.16316 16.2818 4.21814 15.9946 5.22316L13.9729 12.2991C13.6029 13.594 12.8391 14.7071 11.764 15.5181C11.5332 15.6922 11.2926 15.8475 11.0444 15.9858L8.82299 21.2289V21.7787C8.82299 23.2663 10.0333 24.4766 11.5209 24.4766C13.0085 24.4766 14.2188 23.2663 14.2188 21.7787V16.5547C14.2188 14.1466 16.1779 12.1875 18.5859 12.1875C20.994 12.1875 22.9531 14.1466 22.9531 16.5547V18.3579C24.6894 18.7118 26 20.2506 26 22.0898C26 24.1899 24.2915 25.8984 22.1914 25.8984C20.0913 25.8984 18.3828 24.1899 18.3828 22.0898C18.3828 20.2506 19.6934 18.7118 21.4297 18.3579V16.5547C21.4297 14.9867 20.154 13.7109 18.5859 13.7109C17.0179 13.7109 15.7422 14.9867 15.7422 16.5547V21.7787C15.7422 24.1063 13.8485 26 11.5208 26C9.19318 26 7.2995 24.1063 7.2995 21.7787V21.2289L5.07767 15.9848C4.83011 15.8466 4.59007 15.6917 4.35993 15.5181C3.28478 14.7072 2.52093 13.594 2.15094 12.2991L0.129238 5.22316C-0.157879 4.21814 0.0384426 3.16316 0.667875 2.32868ZM22.1914 22.8516C22.6121 22.8516 22.9531 22.5105 22.9531 22.0898C22.9531 21.6692 22.6121 21.3281 22.1914 21.3281C21.7707 21.3281 21.4297 21.6692 21.4297 22.0898C21.4297 22.5105 21.7707 22.8516 22.1914 22.8516ZM8.06122 19.1216L9.09975 16.6704C8.75992 16.7279 8.41328 16.7578 8.06193 16.7578C7.71007 16.7578 7.36287 16.7278 7.02259 16.6701L8.06122 19.1216Z" fill="#151718"/>
</g>
<defs>
<clipPath id="clip0_0_204">
<rect width="26" height="26" fill="white" transform="matrix(-1 0 0 1 26 0)"/>
</clipPath>
</defs>
</svg>
