<svg width="75" height="70" viewBox="0 0 75 70" fill="none" xmlns="http://www.w3.org/2000/svg">
<path d="M2.1622 9.10039H39.9274C41.1187 9.10039 42.1707 10.0383 42.2766 11.1954L46.8269 60.8503C46.9329 62.0074 46.053 62.9453 44.8617 62.9453H7.09662C5.90528 62.9453 4.85356 62.0074 4.74754 60.8503L0.197142 11.1954C0.0910835 10.0383 0.970861 9.10039 2.1622 9.10039Z" fill="#484C52"/>
<path d="M3.2848 9.10039H41.0498C42.2412 9.10039 43.2931 10.0383 43.399 11.1954L47.9494 60.8503C48.0557 62.0074 47.1759 62.9453 45.9845 62.9453H8.21918C7.02784 62.9453 5.97612 62.0074 5.8701 60.8503L1.3197 11.1954C1.21364 10.0383 2.09342 9.10039 3.2848 9.10039Z" fill="white"/>
<path d="M3.28484 9.18634C2.73565 9.18634 2.23824 9.39327 1.88438 9.7689C1.5284 10.1464 1.35944 10.6502 1.40859 11.1869L5.95899 60.8417C6.06092 61.9533 7.07483 62.858 8.21923 62.858H45.9846C46.5336 62.858 47.031 62.651 47.3851 62.2754C47.7411 61.8975 47.9096 61.3937 47.8608 60.857L43.3101 11.2022C43.2085 10.0906 42.1944 9.18634 41.0499 9.18634H3.28484ZM45.9846 63.0312H8.21923C6.98476 63.0312 5.8911 62.0558 5.78118 60.857L1.23078 11.2022C1.17706 10.6166 1.36248 10.0657 1.75268 9.65185C2.14076 9.23988 2.68492 9.01267 3.28484 9.01267H41.0499C42.2846 9.01267 43.3782 9.98808 43.4881 11.1869L48.0384 60.8417C48.092 61.4274 47.9069 61.9782 47.5166 62.3925C47.1287 62.8044 46.5844 63.0312 45.9846 63.0312Z" fill="#484C52"/>
<path d="M10.4966 57.5703H43.474L39.3369 12.4238H6.35938L10.4966 57.5703Z" fill="white"/>
<path d="M10.5787 57.483H43.3767L39.2553 12.5097H6.45728L10.5787 57.483ZM43.4744 57.6562H10.497C10.4508 57.6562 10.4122 57.6222 10.4081 57.5775L6.27084 12.4309C6.26868 12.4068 6.27703 12.3827 6.29392 12.3647C6.31078 12.3467 6.33472 12.3364 6.35977 12.3364H39.3372C39.3833 12.3364 39.4219 12.3708 39.4258 12.4156L43.563 57.5622C43.5654 57.5862 43.5571 57.6103 43.5402 57.6283C43.5233 57.6463 43.4992 57.6562 43.4744 57.6562Z" fill="#484C52"/>
<path d="M11.6679 20.1076H35.4368L35.265 18.2367H11.4964L11.6679 20.1076ZM35.534 20.2812H11.5862C11.54 20.2812 11.5013 20.2468 11.4973 20.2021L11.3099 18.1579C11.3077 18.1334 11.3161 18.1093 11.333 18.0914C11.3498 18.0738 11.3738 18.0634 11.3988 18.0634H35.347C35.393 18.0634 35.4316 18.0975 35.4356 18.1422L35.623 20.1868C35.6254 20.2109 35.6167 20.235 35.6002 20.2529C35.5833 20.2709 35.5592 20.2812 35.534 20.2812Z" fill="#484C52"/>
<path d="M11.5022 32.0963H22.0016L21.0671 21.8981H10.5676L11.5022 32.0963ZM22.0992 32.2695H11.4206C11.3744 32.2695 11.3357 32.2355 11.3316 32.1907L10.3812 21.8189C10.379 21.7948 10.3874 21.7707 10.4043 21.7527C10.4211 21.7347 10.4451 21.7244 10.4701 21.7244H21.1487C21.1949 21.7244 21.2335 21.7588 21.2377 21.8036L22.1881 32.1754C22.1903 32.1995 22.1819 32.2236 22.165 32.2416C22.1482 32.2596 22.1242 32.2695 22.0992 32.2695Z" fill="#484C52"/>
<path d="M24.2021 23.2017H37.7834L37.6637 21.8951H24.0823L24.2021 23.2017ZM37.8811 23.375H24.1204C24.0742 23.375 24.0355 23.341 24.0315 23.2962L23.8959 21.8159C23.8936 21.7918 23.902 21.7677 23.9189 21.7497C23.9358 21.7317 23.9597 21.7214 23.9847 21.7214H37.7452C37.7913 21.7214 37.8303 21.7558 37.8342 21.8006L37.9697 23.2805C37.9721 23.305 37.9638 23.3291 37.9469 23.3471C37.9299 23.3647 37.9059 23.375 37.8811 23.375Z" fill="#484C52"/>
<path d="M24.4194 25.5763H38.0008L37.8811 24.2697H24.2996L24.4194 25.5763ZM38.0981 25.75H24.3377C24.2915 25.75 24.2529 25.7156 24.2488 25.6708L24.1131 24.1905C24.1109 24.1664 24.1193 24.1423 24.1362 24.1243C24.153 24.1063 24.177 24.0964 24.202 24.0964H37.9626C38.0087 24.0964 38.0473 24.1304 38.0516 24.1752L38.1871 25.6555C38.1894 25.6796 38.1808 25.7037 38.1638 25.7217C38.1473 25.7397 38.1233 25.75 38.0981 25.75Z" fill="#484C52"/>
<path d="M24.6367 27.9478H38.2177L38.098 26.6408H24.5169L24.6367 27.9478ZM38.3154 28.1211H24.5549C24.5088 28.1211 24.4701 28.0867 24.466 28.0419L24.3304 26.562C24.3282 26.5375 24.3366 26.5134 24.3535 26.4958C24.3703 26.4778 24.3943 26.4675 24.4193 26.4675H38.1799C38.226 26.4675 38.2646 26.5019 38.2686 26.5463L38.4044 28.0266C38.4064 28.0511 38.3981 28.0748 38.3812 28.0928C38.3646 28.1108 38.3406 28.1211 38.3154 28.1211Z" fill="#484C52"/>
<path d="M24.8027 30.4435H38.3838L38.264 29.1369H24.6829L24.8027 30.4435ZM38.4814 30.6172H24.721C24.6748 30.6172 24.6362 30.5828 24.6321 30.538L24.4964 29.0577C24.4943 29.0336 24.5026 29.0095 24.5195 28.9915C24.5363 28.9735 24.5603 28.9636 24.5854 28.9636H38.346C38.392 28.9636 38.4306 28.9976 38.4346 29.0424L38.5704 30.5227C38.5724 30.5468 38.5641 30.5709 38.5472 30.5889C38.5307 30.6069 38.5066 30.6172 38.4814 30.6172Z" fill="#484C52"/>
<path d="M24.9091 33.0494H38.4902L38.3705 31.7423H24.7894L24.9091 33.0494ZM38.5879 33.2227H24.8274C24.7812 33.2227 24.7426 33.1882 24.7385 33.1435L24.6029 31.6635C24.6007 31.639 24.6091 31.6153 24.626 31.5974C24.6428 31.5794 24.6668 31.5691 24.6918 31.5691H38.4524C38.4985 31.5691 38.5371 31.6035 38.5411 31.6482L38.6769 33.1282C38.6789 33.1527 38.6706 33.1764 38.6537 33.1943C38.6368 33.2123 38.6131 33.2227 38.5879 33.2227Z" fill="#484C52"/>
<path d="M26.0662 39.7994H38.1833L38.1281 39.1977H26.011L26.0662 39.7994ZM38.2806 39.9727H25.9845C25.9383 39.9727 25.8997 39.9382 25.8956 39.8935L25.8246 39.1185C25.8224 39.0944 25.8307 39.0703 25.8476 39.0523C25.8645 39.0343 25.8884 39.0244 25.9135 39.0244H38.2097C38.2557 39.0244 38.2943 39.0584 38.2987 39.1032L38.3696 39.8782C38.3719 39.9027 38.3633 39.9264 38.3467 39.9443C38.3298 39.9623 38.3058 39.9727 38.2806 39.9727Z" fill="#484C52"/>
<path d="M26.18 41.0416H38.297L38.2415 40.4399H26.1248L26.18 41.0416ZM38.3943 41.2148H26.0983C26.0521 41.2148 26.0135 41.1804 26.0094 41.136L25.9383 40.3607C25.9362 40.3366 25.9445 40.3125 25.9614 40.2945C25.9783 40.2765 26.0022 40.2666 26.0273 40.2666H38.3234C38.3695 40.2666 38.4081 40.3006 38.4124 40.3454L38.4833 41.1204C38.4857 41.1448 38.477 41.1686 38.4605 41.1865C38.4435 41.2045 38.4195 41.2148 38.3943 41.2148Z" fill="#484C52"/>
<path d="M26.2938 42.2837H38.4105L38.3553 41.6821H26.2386L26.2938 42.2837ZM38.5081 42.457H26.2121C26.1659 42.457 26.1272 42.4226 26.1231 42.3782L26.0521 41.6029C26.0499 41.5788 26.0583 41.5547 26.0751 41.5367C26.092 41.5187 26.116 41.5088 26.141 41.5088H38.4372C38.4833 41.5088 38.5219 41.5428 38.5262 41.5876L38.5971 42.3625C38.5991 42.387 38.5908 42.4111 38.5739 42.4291C38.557 42.4467 38.5333 42.457 38.5081 42.457Z" fill="#484C52"/>
<path d="M26.5853 45.4634H38.7023L38.6471 44.8617H26.53L26.5853 45.4634ZM38.8 45.6367H26.5036C26.4574 45.6367 26.4187 45.6027 26.4147 45.5579L26.3436 44.7826C26.3414 44.7585 26.3498 44.7344 26.3666 44.7164C26.3835 44.6984 26.4075 44.6885 26.4325 44.6885H38.7287C38.7748 44.6885 38.8133 44.7225 38.8177 44.7673L38.8886 45.5422C38.8909 45.5667 38.8827 45.5908 38.8657 45.6088C38.8488 45.6264 38.8248 45.6367 38.8 45.6367Z" fill="#484C52"/>
<path d="M26.699 46.7056H38.816L38.7605 46.1039H26.6438L26.699 46.7056ZM38.9133 46.8789H26.6173C26.5711 46.8789 26.5325 46.8449 26.5284 46.8001L26.4574 46.0251C26.4552 46.0007 26.4636 45.9766 26.4804 45.9586C26.4973 45.9406 26.5213 45.9307 26.5463 45.9307H38.8424C38.8885 45.9307 38.9271 45.9647 38.9314 46.0095L39.0023 46.7848C39.0047 46.8089 38.996 46.833 38.9795 46.851C38.9625 46.869 38.9385 46.8789 38.9133 46.8789Z" fill="#484C52"/>
<path d="M26.8128 47.9478H38.9295L38.8747 47.3461H26.7576L26.8128 47.9478ZM39.0271 48.1211H26.7311C26.6849 48.1211 26.6463 48.0871 26.6422 48.0423L26.5711 47.2673C26.569 47.2428 26.5774 47.2187 26.5942 47.2008C26.6111 47.1832 26.6351 47.1728 26.6601 47.1728H38.9562C39.0023 47.1728 39.0409 47.2069 39.0453 47.2516L39.1161 48.027C39.1181 48.0511 39.1098 48.0752 39.0929 48.0932C39.076 48.1111 39.0523 48.1211 39.0271 48.1211Z" fill="#484C52"/>
<path d="M27.1042 51.131H39.2212L39.1661 50.5293H27.0491L27.1042 51.131ZM39.3189 51.3047H27.0225C26.9763 51.3047 26.9377 51.2703 26.9336 51.2255L26.8626 50.4505C26.8605 50.4261 26.8688 50.4023 26.8858 50.3844C26.9027 50.3664 26.9266 50.3561 26.9516 50.3561H39.2476C39.2937 50.3561 39.3327 50.3905 39.3366 50.4349L39.4075 51.2102C39.4098 51.2343 39.4016 51.2584 39.3846 51.2764C39.3677 51.2944 39.3437 51.3047 39.3189 51.3047Z" fill="#484C52"/>
<path d="M27.2181 52.3693H39.335L39.2799 51.7676H27.1628L27.2181 52.3693ZM39.4323 52.543H27.1363C27.0901 52.543 27.0516 52.5085 27.0475 52.4638L26.9764 51.6888C26.9742 51.6643 26.9826 51.6406 26.9994 51.6226C27.0163 51.6047 27.0403 51.5943 27.0653 51.5943H39.3614C39.4075 51.5943 39.4461 51.6288 39.4504 51.6735L39.5213 52.4485C39.5237 52.4726 39.5154 52.4967 39.4985 52.5147C39.4815 52.5326 39.4575 52.543 39.4323 52.543Z" fill="#484C52"/>
<path d="M27.3319 53.6115H39.4489L39.3937 53.0098H27.2767L27.3319 53.6115ZM39.5465 53.7852H27.2502C27.204 53.7852 27.1653 53.7507 27.1612 53.706L27.0902 52.931C27.088 52.9065 27.0964 52.8828 27.1132 52.8648C27.1301 52.8469 27.1541 52.8365 27.1791 52.8365H39.4752C39.5213 52.8365 39.5599 52.8709 39.5643 52.9157L39.6351 53.6907C39.6375 53.7148 39.6292 53.7389 39.6123 53.7569C39.5954 53.7748 39.5713 53.7852 39.5465 53.7852Z" fill="#484C52"/>
<path d="M12.5223 39.799H24.6393L24.5841 39.1973H12.4671L12.5223 39.799ZM24.7368 39.9727H12.4406C12.3944 39.9727 12.3558 39.9382 12.3517 39.8935L12.2806 39.1185C12.2784 39.094 12.2868 39.0703 12.3036 39.0523C12.3206 39.0343 12.3445 39.024 12.3695 39.024H24.6657C24.712 39.024 24.7506 39.0584 24.7546 39.1032L24.8257 39.8782C24.8279 39.9023 24.8195 39.9264 24.8027 39.9443C24.7858 39.9623 24.7618 39.9727 24.7368 39.9727Z" fill="#484C52"/>
<path d="M12.6359 41.0412H24.7529L24.6977 40.4395H12.5808L12.6359 41.0412ZM24.8504 41.2148H12.5542C12.5081 41.2148 12.4694 41.1804 12.4653 41.1357L12.3944 40.3607C12.3922 40.3366 12.4006 40.3125 12.4175 40.2945C12.4344 40.2765 12.4583 40.2662 12.4833 40.2662H24.7794C24.8256 40.2662 24.8642 40.3006 24.8683 40.3454L24.9394 41.1204C24.9415 41.1445 24.9332 41.1686 24.9164 41.1865C24.8994 41.2045 24.8755 41.2148 24.8504 41.2148Z" fill="#484C52"/>
<path d="M12.7498 42.2834H24.8667L24.8116 41.6817H12.6946L12.7498 42.2834ZM24.9642 42.457H12.6681C12.6219 42.457 12.5833 42.4226 12.5792 42.3779L12.5081 41.6029C12.506 41.5788 12.5143 41.5547 12.5311 41.5367C12.5481 41.5187 12.572 41.5084 12.5971 41.5084H24.8933C24.9395 41.5084 24.9781 41.5428 24.9822 41.5876L25.0531 42.3625C25.0553 42.3866 25.0469 42.4107 25.03 42.4287C25.0131 42.4467 24.9892 42.457 24.9642 42.457Z" fill="#484C52"/>
<path d="M13.0413 45.4634H25.1583L25.1031 44.8617H12.9861L13.0413 45.4634ZM25.2558 45.6367H12.9596C12.9134 45.6367 12.8748 45.6023 12.8707 45.5575L12.7997 44.7826C12.7975 44.7585 12.8058 44.7344 12.8227 44.7164C12.8396 44.6984 12.8635 44.6881 12.8886 44.6881H25.1848C25.231 44.6881 25.2696 44.7225 25.2737 44.7673L25.3447 45.5422C25.3469 45.5663 25.3385 45.5904 25.3217 45.6084C25.3048 45.6264 25.2808 45.6367 25.2558 45.6367Z" fill="#484C52"/>
<path d="M13.155 46.7056H25.2719L25.2167 46.1039H13.0999L13.155 46.7056ZM25.3695 46.8789H13.0734C13.0272 46.8789 12.9885 46.8445 12.9844 46.7997L12.9134 46.0248C12.9112 46.0007 12.9196 45.9766 12.9364 45.9586C12.9533 45.9406 12.9773 45.9303 13.0023 45.9303H25.2984C25.3447 45.9303 25.3833 45.9647 25.3874 46.0095L25.4584 46.7844C25.4606 46.8089 25.4522 46.8326 25.4354 46.8506C25.4185 46.8686 25.3945 46.8789 25.3695 46.8789Z" fill="#484C52"/>
<path d="M13.2688 47.9478H25.3857L25.3306 47.3461H13.2137L13.2688 47.9478ZM25.4833 48.1211H13.1872C13.141 48.1211 13.1023 48.0867 13.0982 48.0419L13.0272 47.2669C13.025 47.2428 13.0334 47.2187 13.0502 47.2008C13.0671 47.1828 13.0911 47.1725 13.1161 47.1725H25.4123C25.4585 47.1725 25.4971 47.2069 25.5012 47.2516L25.5722 48.0266C25.5744 48.0511 25.566 48.0748 25.5491 48.0928C25.5321 48.1108 25.5083 48.1211 25.4833 48.1211Z" fill="#484C52"/>
<path d="M13.5603 51.1314H25.6772L25.622 50.5297H13.5052L13.5603 51.1314ZM25.7748 51.3047H13.4786C13.4324 51.3047 13.3938 51.2703 13.3897 51.2255L13.3187 50.4505C13.3165 50.4264 13.3249 50.4023 13.3418 50.3844C13.3587 50.3664 13.3826 50.3564 13.4076 50.3564H25.7037C25.7499 50.3564 25.7886 50.3905 25.7927 50.4352L25.8637 51.2102C25.8659 51.2347 25.8575 51.2588 25.8407 51.2764C25.8238 51.2944 25.7998 51.3047 25.7748 51.3047Z" fill="#484C52"/>
<path d="M13.6741 52.3697H25.791L25.7358 51.768H13.6189L13.6741 52.3697ZM25.8885 52.543H13.5924C13.5462 52.543 13.5076 52.5085 13.5036 52.4642L13.4325 51.6888C13.4303 51.6647 13.4387 51.6406 13.4555 51.6226C13.4724 51.6047 13.4964 51.5947 13.5214 51.5947H25.8175C25.8637 51.5947 25.9023 51.6288 25.9064 51.6735L25.9775 52.4485C25.9796 52.473 25.9713 52.4971 25.9545 52.5147C25.9375 52.5326 25.9135 52.543 25.8885 52.543Z" fill="#484C52"/>
<path d="M13.7879 53.6119H25.9048L25.8497 53.0102H13.7327L13.7879 53.6119ZM26.0024 53.7852H13.7062C13.66 53.7852 13.6214 53.7511 13.6173 53.7064L13.5462 52.931C13.5441 52.9069 13.5524 52.8828 13.5693 52.8648C13.5862 52.8468 13.6102 52.8369 13.6352 52.8369H25.9313C25.9775 52.8369 26.0162 52.8709 26.0203 52.9157L26.0913 53.6907C26.0935 53.7152 26.0851 53.7393 26.0683 53.7568C26.0514 53.7748 26.0274 53.7852 26.0024 53.7852Z" fill="#484C52"/>
<path d="M18.9404 37.647H31.058L31.0179 36.4643H18.9002L18.9404 37.647ZM31.1502 37.8203H18.854C18.8059 37.8203 18.7664 37.7832 18.7648 37.7365L18.7188 36.3801C18.7179 36.3568 18.727 36.3339 18.7438 36.317C18.7607 36.3002 18.7838 36.2906 18.808 36.2906H31.1041C31.1522 36.2906 31.1919 36.3277 31.1935 36.3744L31.2392 37.7308C31.24 37.7545 31.2309 37.7771 31.2144 37.7939C31.1974 37.8111 31.1742 37.8203 31.1502 37.8203Z" fill="#484C52"/>
<path d="M11.4379 15.0469H33.1241C33.9267 15.0469 34.519 14.415 34.4477 13.6354L34.2063 10.9995C34.0437 9.22387 32.4297 7.78485 30.602 7.78485H12.6289C10.8011 7.78485 9.45118 9.22425 9.61388 10.9995L9.85545 13.6354C9.92689 14.415 10.6354 15.0469 11.4379 15.0469Z" fill="#484C52"/>
<path d="M19.9293 3.14994C19.8673 2.47365 20.3817 1.92513 21.0782 1.92513C21.7747 1.92513 22.3896 2.47365 22.4516 3.14994C22.5136 3.8266 21.9992 4.37513 21.3027 4.37513C20.6062 4.37513 19.9913 3.8266 19.9293 3.14994ZM17.217 4.02513L17.7796 10.1645C17.843 10.8568 18.4724 11.418 19.1853 11.418H24.711C25.4239 11.418 25.9504 10.8568 25.8869 10.1645L25.3243 4.02513C25.125 1.85054 23.1486 0.0879135 20.9098 0.0879135C18.671 0.0879135 17.0177 1.85054 17.217 4.02513Z" fill="#484C52"/>
<path d="M11.8695 15.0469H33.5556C34.3582 15.0469 34.9509 14.415 34.8793 13.6354L34.6378 10.9995C34.4752 9.22387 32.8613 7.78485 31.0335 7.78485H13.0606C11.2327 7.78485 9.88282 9.22425 10.0455 10.9995L10.2871 13.6354C10.3585 14.415 11.067 15.0469 11.8695 15.0469Z" fill="white"/>
<path d="M13.0607 7.87117C12.2045 7.87117 11.4288 8.19402 10.8767 8.78003C10.3214 9.36948 10.0578 10.1548 10.1344 10.9913L10.3761 13.6272C10.4434 14.362 11.1134 14.9595 11.8696 14.9595H33.5557C33.9172 14.9595 34.2449 14.8234 34.4776 14.5763C34.7116 14.3276 34.823 13.996 34.7907 13.6425L34.5489 11.0066C34.3906 9.27768 32.8137 7.87117 31.0336 7.87117H13.0607ZM33.5557 15.1328H11.8696C11.0233 15.1328 10.2735 14.4646 10.1983 13.6425L9.95663 11.0066C9.87546 10.1211 10.1555 9.28877 10.745 8.66297C11.3313 8.04063 12.1537 7.69752 13.0607 7.69752H31.0336C32.9035 7.69752 34.5603 9.17517 34.7269 10.9913L34.9683 13.6272C35.0054 14.0296 34.8778 14.4083 34.6092 14.6933C34.3421 14.9767 33.968 15.1328 33.5557 15.1328Z" fill="#484C52"/>
<path d="M20.361 3.14994C20.2989 2.47365 20.8133 1.92513 21.5098 1.92513C22.2063 1.92513 22.8212 2.47365 22.8832 3.14994C22.9452 3.8266 22.4308 4.37513 21.7343 4.37513C21.0378 4.37513 20.4229 3.8266 20.361 3.14994ZM17.6486 4.02513L18.2112 10.1645C18.2747 10.8568 18.904 11.418 19.6169 11.418H25.1427C25.8556 11.418 26.382 10.8568 26.3186 10.1645L25.756 4.02513C25.5567 1.85054 23.5802 0.0879135 21.3414 0.0879135C19.1027 0.0879135 17.4493 1.85054 17.6486 4.02513Z" fill="white"/>
<path d="M21.5098 2.01106C21.1993 2.01106 20.9182 2.12773 20.7184 2.34002C20.5174 2.55308 20.422 2.83805 20.4499 3.14139C20.5078 3.7733 21.084 4.28741 21.7344 4.28741C22.0449 4.28741 22.326 4.17036 22.5258 3.95844C22.7268 3.745 22.8222 3.4604 22.7943 3.15669C22.7365 2.52516 22.1602 2.01106 21.5098 2.01106ZM21.7344 4.46068C20.994 4.46068 20.338 3.87581 20.2721 3.15669C20.2398 2.80439 20.3515 2.47237 20.5867 2.22297C20.8207 1.97434 21.1485 1.83741 21.5098 1.83741C22.2503 1.83741 22.9063 2.42264 22.9722 3.14139C23.0045 3.49407 22.8927 3.82571 22.6575 4.07549C22.4234 4.32412 22.0957 4.46068 21.7344 4.46068ZM21.3415 0.17347C20.2871 0.17347 19.3318 0.571281 18.6518 1.29309C17.9679 2.0191 17.6432 2.98647 17.7375 4.0162L18.3002 10.1559C18.3595 10.8035 18.9502 11.3306 19.6169 11.3306H25.1428C25.4612 11.3306 25.7494 11.2109 25.9543 10.9933C26.1604 10.7745 26.2582 10.4826 26.2297 10.1712L25.667 4.03188C25.4721 1.90434 23.5317 0.17347 21.3415 0.17347ZM25.1428 11.5039H19.6169C18.8601 11.5039 18.1897 10.906 18.1223 10.1712L17.5597 4.03188C17.4609 2.95281 17.8019 1.93839 18.5201 1.17604C19.2344 0.417895 20.2364 0.000188828 21.3415 0.000188828C23.6218 0.000188828 25.642 1.80183 25.8449 4.0162L26.4076 10.1559C26.4406 10.5163 26.3264 10.8552 26.086 11.1103C25.8469 11.3643 25.5119 11.5039 25.1428 11.5039Z" fill="#484C52"/>
<path d="M60.5993 12.5898C60.55 12.5898 60.5103 12.5512 60.5103 12.503V11.8306C60.5103 11.7827 60.55 11.7437 60.5993 11.7437C60.6489 11.7437 60.6887 11.7827 60.6887 11.8306V12.503C60.6887 12.5512 60.6489 12.5898 60.5993 12.5898Z" fill="#484C52"/>
<path d="M60.5993 14.1562C60.55 14.1562 60.5103 14.1176 60.5103 14.0694V13.397C60.5103 13.3491 60.55 13.3101 60.5993 13.3101C60.6489 13.3101 60.6887 13.3491 60.6887 13.397V14.0694C60.6887 14.1176 60.6489 14.1562 60.5993 14.1562Z" fill="#484C52"/>
<path d="M60.1387 13.0352H59.4463C59.3971 13.0352 59.3569 12.9961 59.3569 12.9483C59.3569 12.9005 59.3971 12.8619 59.4463 12.8619H60.1387C60.1883 12.8619 60.2281 12.9005 60.2281 12.9483C60.2281 12.9961 60.1883 13.0352 60.1387 13.0352Z" fill="#484C52"/>
<path d="M61.752 13.0352H61.0596C61.0104 13.0352 60.9702 12.9961 60.9702 12.9483C60.9702 12.9005 61.0104 12.8619 61.0596 12.8619H61.752C61.8016 12.8619 61.8414 12.9005 61.8414 12.9483C61.8414 12.9961 61.8016 13.0352 61.752 13.0352Z" fill="#484C52"/>
<path d="M58.344 9.3895C58.2751 9.3895 58.2058 9.40365 58.1408 9.43233C57.8848 9.54403 57.7682 9.84201 57.8813 10.0964C57.9364 10.2207 58.0368 10.3156 58.1644 10.3638C58.2893 10.4108 58.4252 10.4074 58.5476 10.3542C58.8036 10.2425 58.9202 9.94414 58.8072 9.68977C58.752 9.56545 58.6512 9.47059 58.5236 9.42239C58.4653 9.40059 58.4047 9.3895 58.344 9.3895ZM58.3444 10.5703C58.2617 10.5703 58.179 10.5554 58.0999 10.5252C57.9274 10.4602 57.7915 10.3324 57.7174 10.1652C57.5658 9.82403 57.723 9.4243 58.068 9.27397C58.2342 9.20168 58.4189 9.19709 58.5886 9.26097C58.7611 9.326 58.897 9.45376 58.971 9.62092C59.1226 9.96212 58.9655 10.3618 58.6205 10.5122C58.5323 10.5508 58.4382 10.5703 58.3444 10.5703Z" fill="#484C52"/>
<path d="M25.82 59.6959C25.7685 59.774 23.8022 62.5047 23.8022 62.5047C23.8022 62.5047 23.852 63.2005 24.3614 63.3359L26.6997 60.8783L25.82 59.6959Z" fill="white"/>
<path d="M23.8944 62.5272C23.9099 62.6477 23.9907 63.1048 24.3347 63.2352L26.5845 60.8709L25.8218 59.8458C25.482 60.322 24.0857 62.2613 23.8944 62.5272ZM24.3614 63.4219C24.3535 63.4219 24.3456 63.4207 24.3378 63.4188C23.7737 63.2685 23.7154 62.5409 23.7131 62.51C23.7117 62.4901 23.7173 62.4706 23.729 62.4541C24.4088 61.5101 25.7049 59.7088 25.7448 59.6484C25.7608 59.6243 25.788 59.6094 25.8175 59.6086C25.8499 59.6074 25.8751 59.6212 25.8923 59.6446L26.772 60.8269C26.7968 60.8602 26.794 60.9061 26.7652 60.9363L24.427 63.394C24.4098 63.4119 24.386 63.4219 24.3614 63.4219Z" fill="#484C52"/>
<path d="M22.731 62.9837C22.731 62.9837 22.8985 65.1396 23.8787 66.2745C24.8589 67.409 26.4321 67.0464 26.4321 67.0464C26.4321 67.0464 26.5514 66.0867 26.3474 65.8369C26.1434 65.5875 25.0151 64.2537 25.0182 63.0549L24.419 62.2619L24.0653 62.7068L23.9139 61.9804L22.731 62.9837Z" fill="white"/>
<path d="M22.8238 63.0219C22.854 63.3287 23.072 65.2072 23.947 66.2205C24.7742 67.1779 26.0576 67.0253 26.3507 66.9756C26.3897 66.6118 26.4017 66.0449 26.2774 65.8927L26.2556 65.8663C25.1758 64.5524 24.9358 63.6324 24.9291 63.085L24.4171 62.408L24.1358 62.7618C24.1145 62.7886 24.079 62.8008 24.045 62.7932C24.0109 62.7855 23.9847 62.7591 23.9777 62.7259L23.8569 62.1456L22.8238 63.0219ZM25.852 67.1875C25.2844 67.1875 24.4297 67.049 23.8103 66.3318C22.8229 65.1889 22.6487 63.0812 22.6419 62.9921C22.6398 62.9646 22.6509 62.9382 22.6721 62.9202L23.8551 61.9168C23.8791 61.8966 23.9123 61.8901 23.9426 61.9C23.9726 61.91 23.9951 61.9348 24.0014 61.965L24.1139 62.5055L24.3484 62.211C24.3654 62.1892 24.39 62.1766 24.42 62.1773C24.4481 62.1773 24.4743 62.1907 24.4908 62.2125L25.0901 63.0051C25.1014 63.02 25.1075 63.0384 25.1074 63.0567C25.1061 63.5727 25.3284 64.4602 26.3951 65.758L26.4172 65.7848C26.6381 66.0549 26.5334 66.9568 26.5208 67.0586C26.5162 67.0946 26.4891 67.1244 26.4527 67.1324C26.4465 67.1339 26.2045 67.1875 25.852 67.1875Z" fill="#484C52"/>
<path d="M23.1265 63.068C23.1265 63.068 23.3807 66.6503 26.1178 66.573L23.1265 63.068Z" fill="white"/>
<path d="M26.0313 66.6602C23.3232 66.6602 23.04 63.1097 23.0373 63.0733C23.034 63.0255 23.0711 62.9842 23.1202 62.9808C23.1685 62.9777 23.212 63.0137 23.2155 63.0615C23.218 63.0963 23.4963 66.5599 26.1151 66.4853C26.1643 66.4842 26.2054 66.5217 26.207 66.5695C26.2084 66.6173 26.1696 66.6575 26.1203 66.6586C26.0906 66.6594 26.0606 66.6602 26.0313 66.6602Z" fill="#484C52"/>
<path d="M26.8111 62.0374C26.7997 62.1541 26.9241 63.7905 27.4466 64.8183C27.4466 64.8183 27.2054 65.5723 26.4665 65.4368C26.4665 65.4368 25.3315 63.338 25.0933 61.9793L26.8111 62.0374Z" fill="white"/>
<path d="M26.5255 65.3613C27.0752 65.4366 27.2997 64.9573 27.3505 64.8269C26.893 63.9016 26.7395 62.5112 26.7231 62.1241L25.2015 62.0724C25.4513 63.3014 26.3763 65.0794 26.5255 65.3613ZM26.6402 65.543C26.5805 65.543 26.5172 65.5372 26.4503 65.525C26.4236 65.52 26.4005 65.5036 26.3878 65.4802C26.3412 65.3938 25.2435 63.3535 25.0057 61.9967C25.0012 61.9711 25.0087 61.9447 25.0264 61.9248C25.0441 61.9053 25.0703 61.8949 25.0968 61.8953L26.8146 61.9535C26.839 61.9542 26.862 61.9653 26.8782 61.9829C26.8945 62.0009 26.9024 62.0246 26.9004 62.0483C26.893 62.1321 27.0037 63.7536 27.5269 64.7829C27.5372 64.8028 27.5392 64.8258 27.5325 64.8468C27.5297 64.8544 27.3013 65.543 26.6402 65.543Z" fill="#484C52"/>
<path d="M26.0551 64.6545C26.0551 64.6545 25.8667 66.8011 26.1445 67.4089C26.1445 67.4089 28.2477 68.4597 30.6894 68.457C30.8627 68.4566 31.0049 68.3205 31.0033 68.1522C30.9997 67.7463 30.8899 67.0046 30.2219 66.4178C29.2507 65.5645 27.1664 64.1629 27.1664 64.1629L26.7458 64.6575L26.9221 65.4394L26.0551 64.6545Z" fill="white"/>
<path d="M26.2137 67.3449C26.4733 67.4685 28.4454 68.3693 30.6792 68.3693C30.7434 68.3693 30.8044 68.3487 30.8497 68.3043C30.8915 68.2634 30.9143 68.209 30.9135 68.152C30.9104 67.7718 30.8084 67.0496 30.1617 66.4812C29.3035 65.7269 27.5474 64.5266 27.1824 64.2787L26.8419 64.6792L27.0089 65.4201C27.0172 65.4572 26.9998 65.4951 26.9659 65.5138C26.9321 65.5326 26.8893 65.528 26.8609 65.502L26.1298 64.8402C26.0931 65.3555 26.0094 66.8358 26.2137 67.3449ZM30.6792 68.543C28.2485 68.543 26.1245 67.496 26.1033 67.4853C26.0852 67.4761 26.0708 67.4616 26.0625 67.4432C25.7788 66.8224 25.958 64.7347 25.9658 64.6463C25.9686 64.613 25.9907 64.5847 26.0226 64.5725C26.0543 64.5606 26.0904 64.5675 26.1155 64.5901L26.7733 65.1856L26.6582 64.675C26.6523 64.649 26.6591 64.6218 26.6766 64.6012L27.0971 64.107C27.1266 64.0721 27.1786 64.0649 27.2168 64.0905C27.2376 64.1047 29.3173 65.505 30.2814 66.3527C30.9785 66.9655 31.0888 67.742 31.0923 68.1505C31.0931 68.2542 31.0521 68.3521 30.9765 68.4263C30.9001 68.5013 30.7981 68.5426 30.689 68.543C30.6859 68.543 30.6827 68.543 30.6792 68.543Z" fill="#484C52"/>
<path d="M26.3076 66.7732C26.3076 66.7732 28.308 68 30.701 67.86L26.3076 66.7732Z" fill="white"/>
<path d="M30.3216 67.957C28.0981 67.957 26.2791 66.8577 26.2599 66.8462C26.2182 66.8206 26.2057 66.767 26.2321 66.7265C26.2585 66.6859 26.3136 66.6741 26.3552 66.6993C26.375 66.7116 28.3619 67.9096 30.6958 67.7727C30.7446 67.77 30.7872 67.8063 30.7903 67.8541C30.7931 67.9019 30.7556 67.9429 30.7064 67.9459C30.5772 67.9536 30.4485 67.957 30.3216 67.957Z" fill="#484C52"/>
<path d="M27.686 54.9729C27.558 55.905 27.2745 56.7668 26.9357 57.5231C26.9227 55.2062 27.0395 52.3982 27.5033 49.8181C27.7325 51.5861 27.881 53.5545 27.686 54.9729ZM32.5471 51.601C32.5357 47.2465 30.2219 40.6343 30.2219 40.6343L29.2771 40.7812L29.3232 40.3761L23.1224 40.6343C23.1224 40.6343 21.6572 50.1773 25.0936 62.793L27.1663 62.5042C27.1663 62.5042 27.106 61.909 27.0469 60.9225C28.7659 59.184 32.5558 54.9683 32.5471 51.601Z" fill="white"/>
<path d="M27.4891 50.4369C27.1838 52.3743 27.0277 54.6059 27.024 57.0865C27.3091 56.3727 27.5017 55.6597 27.5974 54.9609C27.7466 53.8745 27.7104 52.3544 27.4891 50.4369ZM26.9357 57.609C26.9298 57.609 26.9237 57.6086 26.9177 57.6075C26.8764 57.5991 26.8467 57.5639 26.8464 57.5229C26.8299 54.5921 27.0213 51.9945 27.415 49.8027C27.4229 49.7602 27.4603 49.7289 27.5052 49.7308C27.5493 49.7319 27.5864 49.764 27.5919 49.8065C27.8798 52.0281 27.9412 53.7701 27.7746 54.9838C27.6584 55.8299 27.4036 56.6956 27.0175 57.557C27.0032 57.5891 26.9706 57.609 26.9357 57.609ZM23.2007 40.7176C23.0787 41.6134 21.9467 50.8439 25.1596 62.6957L27.0695 62.4295C27.0512 62.2328 27.0039 61.6962 26.9578 60.9269C26.9564 60.9028 26.9654 60.8795 26.9825 60.8619C28.6316 59.1942 32.4667 54.9525 32.4576 51.6009C32.4474 47.5478 30.4066 41.4497 30.1612 40.7314L29.2912 40.8664C29.2637 40.8706 29.2357 40.8622 29.2156 40.8438C29.1955 40.8251 29.1853 40.7983 29.1885 40.7715L29.2231 40.4667L23.2007 40.7176ZM25.0935 62.8789C25.0535 62.8789 25.0177 62.8529 25.0073 62.8146C21.6054 50.3263 23.0195 40.7168 23.0341 40.6212C23.0405 40.5803 23.0759 40.5493 23.1186 40.5474L29.3192 40.2892C29.3448 40.2877 29.3704 40.298 29.3881 40.3163C29.4058 40.3347 29.4145 40.3599 29.4118 40.3852L29.3787 40.6774L30.2077 40.5485C30.2506 40.5416 30.2924 40.5661 30.3061 40.6059C30.3294 40.6725 32.625 47.2815 32.6364 51.6005C32.6451 54.9968 28.8171 59.2531 27.1383 60.9549C27.1958 61.9054 27.2545 62.4895 27.2551 62.4952C27.2598 62.5415 27.2262 62.5828 27.1789 62.5893L25.1062 62.8781C25.1019 62.8789 25.0977 62.8789 25.0935 62.8789Z" fill="#484C52"/>
<path d="M27.2285 51.5391C27.1794 51.5391 27.1395 51.5004 27.1393 51.453C27.1305 49.9941 27.7397 47.1578 28.3745 46.2562C28.4025 46.2168 28.458 46.2064 28.4986 46.2336C28.5396 46.2604 28.5498 46.3143 28.5218 46.3541C27.9145 47.2167 27.3092 50.0469 27.3179 51.4518C27.3179 51.4997 27.2781 51.5387 27.229 51.5391C27.2288 51.5391 27.2287 51.5391 27.2285 51.5391Z" fill="#484C52"/>
<path d="M27.0197 59.7812C26.9727 59.7812 26.9334 59.7457 26.9307 59.6994C26.8536 58.3579 26.8653 56.1546 26.8655 56.1325C26.8657 56.0846 26.9056 56.0464 26.9547 56.0464C26.9549 56.0464 26.9551 56.0464 26.9552 56.0464C27.0045 56.0468 27.0442 56.0858 27.044 56.1336C27.0439 56.1554 27.0321 58.3533 27.1089 59.6898C27.1117 59.7376 27.074 59.7786 27.0248 59.7812C27.0231 59.7812 27.0214 59.7812 27.0197 59.7812Z" fill="#484C52"/>
<path d="M34.3463 38.1193C33.6318 38.1977 34.4057 36.3865 34.4057 36.3865L37.2425 36.2458L39.39 35.6705C39.6106 35.6116 39.839 35.7355 39.9036 35.9489C39.9698 36.167 39.8394 36.3953 39.6141 36.4561L38.6552 36.7159C38.522 36.7518 38.474 36.911 38.5662 37.0116C38.7087 37.1665 38.8785 37.2954 39.0683 37.391C39.4137 37.5647 40.019 37.8504 40.6531 38.0608C40.9504 38.1595 41.0055 38.5248 40.709 38.625L38.6693 38.5401C38.1522 38.5187 37.5064 38.1472 37.161 37.7728C37.161 37.7728 35.575 37.9847 34.3463 38.1193Z" fill="white"/>
<path d="M37.1608 37.6858C37.186 37.6858 37.21 37.6961 37.2273 37.7145C37.5471 38.0614 38.1753 38.4321 38.6727 38.4531L40.6942 38.5369C40.8001 38.4952 40.8163 38.4172 40.8163 38.3736C40.8159 38.2898 40.7564 38.1861 40.6241 38.1421C40.0034 37.9367 39.4131 37.6617 39.0271 37.4674C38.8278 37.3672 38.6502 37.2329 38.4994 37.0684C38.4356 36.9988 38.4135 36.9039 38.4403 36.8144C38.4675 36.7249 38.5388 36.6568 38.6309 36.6316L39.5899 36.3722C39.6758 36.3489 39.7466 36.2946 39.7896 36.2192C39.8329 36.1435 39.8431 36.0559 39.8179 35.9729C39.7675 35.8057 39.586 35.7074 39.4135 35.7537L37.2663 36.329C37.26 36.3306 37.2533 36.3317 37.247 36.3317L34.4666 36.4698C34.2626 36.9636 34.0204 37.7696 34.1877 37.9857C34.207 38.0106 34.2433 38.0431 34.3362 38.0327C35.55 37.8996 37.1328 37.6885 37.1485 37.6866C37.1525 37.6858 37.1568 37.6858 37.1608 37.6858ZM40.7088 38.7109C40.7072 38.7109 40.706 38.7109 40.7048 38.7109L38.6652 38.626C38.1174 38.6035 37.475 38.2232 37.1265 37.8644C36.8559 37.9004 35.4555 38.0844 34.3559 38.2053C34.1869 38.2236 34.0936 38.1528 34.0452 38.0897C33.7541 37.7145 34.2641 36.4912 34.3232 36.3531C34.3362 36.3221 34.3665 36.3015 34.4008 36.2996L37.2281 36.1592L39.3658 35.5866C39.6313 35.5154 39.9113 35.6665 39.9892 35.9239C40.0278 36.0521 40.0125 36.1867 39.9455 36.3034C39.8794 36.4197 39.7699 36.5035 39.638 36.539L38.679 36.7988C38.6459 36.8075 38.6215 36.8313 38.6116 36.8634C38.6022 36.8955 38.6097 36.928 38.6325 36.9533C38.7688 37.1017 38.9291 37.223 39.1094 37.3136C39.4209 37.4704 40.0397 37.7654 40.6816 37.978C40.8687 38.04 40.9943 38.1988 40.9947 38.3728C40.9951 38.525 40.8966 38.6528 40.7379 38.7063C40.7285 38.7094 40.7186 38.7109 40.7088 38.7109Z" fill="#484C52"/>
<path d="M27.3577 25.4856C25.7494 25.844 24.6119 26.6155 24.6119 26.6155C24.6119 26.6155 22.1519 28.1391 22.2104 31.0465C22.2557 33.3022 23.791 35.7645 23.7774 35.9565C23.6255 38.1097 21.9801 41.4146 22.2094 42.1815C22.766 44.0436 32.4932 44.0948 32.6334 43.2415C32.6957 42.8605 31.7682 39.8466 32.3463 37.2368C32.9292 34.607 33.1387 32.0242 33.1387 32.0242C34.347 34.0527 35.8388 35.3192 39.3124 34.8434C42.7781 34.3683 44.7567 33.9406 44.7567 33.9406L44.4842 32.061C44.4842 32.061 41.8569 31.1785 39.0025 31.4757C37.3023 31.6528 34.8038 27.6808 33.9449 26.9391C33.0789 26.1909 32.0277 25.6684 30.8884 25.4603C29.8861 25.2771 28.6431 25.1994 27.3577 25.4856Z" fill="white"/>
<path d="M27.3777 25.5714C25.8064 25.9214 24.6742 26.6803 24.6629 26.688C24.6357 26.7048 22.2429 28.2234 22.2997 31.0459C22.3337 32.7374 23.2153 34.5478 23.6391 35.4181C23.8154 35.7803 23.8711 35.8977 23.8664 35.9639C23.7866 37.095 23.3083 38.5118 22.8863 39.7623C22.5296 40.8188 22.1928 41.8164 22.295 42.1587C22.6516 43.351 27.412 43.838 30.5311 43.6494C32.0852 43.5553 32.5279 43.3334 32.5452 43.229C32.559 43.1441 32.5046 42.848 32.4361 42.4735C32.2238 41.3168 31.8284 39.164 32.2593 37.2197C32.8339 34.6259 33.0473 32.0443 33.0497 32.0187C33.0524 31.9808 33.0808 31.9494 33.119 31.941C33.1564 31.9326 33.1962 31.949 33.2159 31.9819C34.4096 33.9856 35.9014 35.2245 39.3002 34.7586C42.3378 34.3424 44.2514 33.9584 44.6567 33.8742L44.4034 32.1281C44.0226 32.0087 41.5962 31.2942 39.0119 31.5631C38.9717 31.5673 38.9308 31.5696 38.8898 31.5696C37.6256 31.5696 36.0554 29.6169 34.8991 28.1786C34.4781 27.6553 34.1146 27.2032 33.8854 27.0054C33.0134 26.2519 31.9714 25.7477 30.8718 25.5469C29.6387 25.3212 28.4631 25.3296 27.3777 25.5714ZM29.189 43.8594C26.4045 43.8594 22.4933 43.4436 22.1237 42.2069C22.006 41.8133 22.3196 40.8842 22.7166 39.708C23.1354 38.4675 23.6101 37.0617 23.6883 35.9521C23.6827 35.913 23.5831 35.7084 23.4776 35.4919C23.0487 34.6113 22.1559 32.778 22.1212 31.0494C22.0624 28.1274 24.5388 26.5594 24.5638 26.5437C24.5722 26.538 25.7311 25.7604 27.3376 25.4023C28.4474 25.1552 29.6474 25.1464 30.9049 25.3763C32.0364 25.5833 33.108 26.1016 34.0043 26.8758C34.2454 27.0842 34.5963 27.5199 35.0401 28.0719C36.142 29.4428 37.8072 31.5149 38.993 31.391C41.8337 31.0949 44.4869 31.9716 44.5133 31.9804C44.5448 31.9911 44.5677 32.0179 44.5724 32.0504L44.8449 33.9301C44.8516 33.9748 44.8217 34.0169 44.776 34.0265C44.7563 34.0311 42.7545 34.4606 39.325 34.9304C35.9601 35.3913 34.4108 34.2277 33.2029 32.301C33.132 33.0312 32.9028 35.1396 32.4337 37.2564C32.0104 39.1671 32.4014 41.2984 32.6117 42.4433C32.6984 42.9153 32.7393 43.1471 32.7212 43.2565C32.6736 43.5472 31.9407 43.7377 30.5426 43.8223C30.1448 43.8464 29.6844 43.8594 29.189 43.8594Z" fill="#484C52"/>
<path d="M25.7905 26.8265C25.7905 26.8265 24.0389 27.5487 23.1141 30.4887C22.6036 32.1113 22.6971 34.4252 25.2144 37.5009C25.7179 38.116 26.425 38.728 27.2234 38.8164L34.874 38.4664L34.8401 36.0665C34.8401 36.0665 28.907 35.7337 28.015 35.4051C27.2253 35.1141 26.0815 31.3245 25.9624 29.4647L25.7905 26.8265Z" fill="white"/>
<path d="M27.2232 38.9062C27.2198 38.9062 27.2165 38.9059 27.2131 38.9055C26.3353 38.8083 25.6036 38.119 25.1443 37.5579C24.8734 37.227 24.6117 36.8908 24.3664 36.5591C24.3376 36.5201 24.3468 36.4662 24.3869 36.4383C24.4267 36.4103 24.4826 36.4191 24.5114 36.4582C24.755 36.7875 25.015 37.1211 25.2841 37.45C25.7211 37.984 26.4123 38.6389 27.2262 38.7326L34.7832 38.3868L34.7517 36.151C34.0007 36.1082 28.8301 35.8014 27.9833 35.4893C27.2667 35.2249 26.4229 32.5883 26.0782 30.8895C26.0687 30.8425 26.1001 30.797 26.1485 30.7878C26.1966 30.7786 26.2438 30.8092 26.2534 30.8563C26.6485 32.804 27.4824 35.119 28.0467 35.3271C28.9155 35.6472 34.7856 35.9796 34.845 35.9827C34.8915 35.9854 34.9285 36.0225 34.9289 36.068L34.9632 38.4683C34.9636 38.5149 34.9262 38.554 34.8781 38.5559L27.2274 38.9059C27.226 38.9063 27.2246 38.9062 27.2232 38.9062Z" fill="#484C52"/>
<path d="M27.5579 20.8242L27.2319 19.3076C27.1615 18.9801 27.3271 18.6485 27.6347 18.4978C28.0742 18.2828 28.7713 18.043 29.6247 18.1C29.9559 18.1221 30.2328 18.3532 30.3084 18.6676L30.627 19.9896L27.5579 20.8242Z" fill="white"/>
<path d="M29.3698 18.1771C28.6475 18.1771 28.0575 18.3871 27.6751 18.5745C27.4038 18.7073 27.2577 19.001 27.3195 19.2891L27.6259 20.7147L30.5209 19.9279L30.222 18.6862C30.1547 18.4066 29.9121 18.2054 29.6187 18.1855C29.534 18.1798 29.4509 18.1771 29.3698 18.1771ZM27.5582 20.9102C27.542 20.9102 27.5259 20.9056 27.5117 20.8975C27.4908 20.8849 27.4758 20.8646 27.4707 20.8409L27.1448 19.3243C27.0665 18.9597 27.2515 18.5875 27.5948 18.4196C28.0402 18.2016 28.7554 17.9541 29.6309 18.0126C30.0031 18.0375 30.3102 18.2922 30.3957 18.6468L30.7139 19.9692C30.7249 20.0143 30.6974 20.0598 30.6513 20.0725L27.5822 20.9067C27.5743 20.909 27.566 20.9102 27.5582 20.9102Z" fill="#484C52"/>
<path d="M30.4784 18.7218C30.352 18.7084 29.61 18.6407 28.9377 19.0695C28.2844 19.4864 28.3454 19.9588 27.7172 20.2334C27.2472 20.4392 27.0047 20.2996 26.438 20.3669C25.5943 20.4672 24.5673 20.9924 24.1406 21.8086C23.4732 23.0855 24.2661 25.0887 25.7273 25.6234C26.6743 25.9696 27.5908 25.5852 27.7755 25.503C28.2166 25.306 28.6534 24.7528 29.5269 23.6466C30.4311 22.5021 30.8829 21.9295 30.8947 21.4399C30.8962 21.3687 30.8931 21.1102 31.0573 21.0031C31.1975 20.9113 31.3432 21.0008 31.5256 20.9904C31.9147 20.9683 32.3227 20.5012 32.3542 20.1179C32.409 19.4577 31.3661 18.8158 30.4784 18.7218Z" fill="#484C52"/>
<path d="M30.0152 24.8909L29.9734 23.8084C30.8599 23.8183 30.9623 22.3395 30.9623 22.3395L31.0411 20.8584C31.0411 20.8584 30.5622 20.8642 30.1904 20.6526C29.8186 20.4411 28.5525 20.2127 28.3957 21.0114L28.3768 21.3304C28.3768 21.3304 28.1012 21.0382 27.8274 21.3304C27.5541 21.6223 28.1957 22.2381 28.3536 22.4026C28.3536 22.4026 28.3694 22.4478 28.402 22.5216L28.3016 24.9134C28.2949 25.0764 28.1925 25.2214 28.0385 25.2864L26.7476 25.8338L29.8474 26.8555L31.3814 25.6712L30.2983 25.2734C30.1333 25.2126 30.0219 25.0619 30.0152 24.8909Z" fill="white"/>
<path d="M26.9945 25.8226L29.8296 26.7574L31.2025 25.6975L30.2667 25.3536C30.0674 25.2805 29.9339 25.0996 29.9257 24.893L29.8839 23.8109C29.8831 23.7872 29.8922 23.7642 29.9091 23.747C29.9261 23.7302 29.9532 23.7199 29.9741 23.721C29.9765 23.721 29.9792 23.721 29.9816 23.721C30.7669 23.721 30.872 22.3467 30.8732 22.3329L30.9473 20.9413C30.783 20.9317 30.4361 20.892 30.145 20.7263C29.9127 20.5944 29.2317 20.4379 28.8123 20.6227C28.63 20.703 28.5228 20.8334 28.4842 21.0212L28.4657 21.3345C28.4638 21.3689 28.4405 21.3992 28.4067 21.411C28.3728 21.4229 28.335 21.4137 28.311 21.3881C28.3102 21.3873 28.2117 21.2863 28.0912 21.2863C28.0908 21.2863 28.0904 21.2863 28.09 21.2863C28.0223 21.2867 27.9561 21.3207 27.8935 21.3877C27.7612 21.5288 27.925 21.8371 28.3807 22.3034L28.4189 22.3428C28.4275 22.3516 28.4338 22.3623 28.4382 22.3742C28.4386 22.3757 28.4535 22.4178 28.4838 22.4863C28.4894 22.4981 28.4917 22.5111 28.4913 22.5241L28.3905 24.916C28.3826 25.1107 28.2582 25.287 28.0743 25.3651L26.9945 25.8226ZM29.8473 26.9414C29.8374 26.9414 29.8276 26.9399 29.8185 26.9368L26.7188 25.9151C26.6838 25.9033 26.6599 25.8723 26.6583 25.8363C26.6567 25.8007 26.678 25.7679 26.7117 25.7533L28.003 25.2063C28.1247 25.1547 28.207 25.038 28.2121 24.9087L28.3117 22.5368C28.2944 22.4966 28.2826 22.4664 28.2755 22.448L28.2511 22.4228C28.0116 22.1776 27.4504 21.603 27.7616 21.271C27.8596 21.1662 27.9703 21.113 28.0908 21.113H28.0912C28.17 21.113 28.2405 21.1364 28.2968 21.1654L28.3066 21.0056C28.3066 21.0017 28.307 20.9979 28.3078 20.9941C28.3559 20.7508 28.5043 20.568 28.7383 20.4651C29.2258 20.2497 29.9611 20.4207 30.2356 20.5768C30.5814 20.7738 31.0355 20.7711 31.0398 20.7707C31.0402 20.7707 31.0406 20.7707 31.041 20.7707C31.0654 20.7707 31.0886 20.7803 31.1052 20.7975C31.1225 20.8147 31.1316 20.838 31.1304 20.8617L31.0512 22.3432C31.0469 22.4059 30.9394 23.8059 30.0655 23.8905L30.1041 24.8865C30.1096 25.0235 30.1982 25.1428 30.3297 25.1914L31.4128 25.5892C31.4427 25.6003 31.4644 25.6263 31.4695 25.6569C31.4742 25.6879 31.462 25.7189 31.4368 25.7384L29.9028 26.9223C29.8867 26.9349 29.867 26.9414 29.8473 26.9414Z" fill="#484C52"/>
<path d="M28.9216 22.1358C28.9705 22.2563 29.0492 22.5019 28.9988 22.8048C28.9724 22.9643 28.9177 23.0917 28.8696 23.1816C28.9771 23.3882 29.1107 23.5197 29.1985 23.5932C29.1985 23.5932 29.482 23.8617 30.0263 23.9244C30.1405 23.9374 30.2031 23.9378 30.2882 23.9175C30.5414 23.8567 30.6832 23.649 30.762 23.5331C31.0944 23.0462 31.0203 22.3626 30.9995 22.1985C30.9995 22.1985 29.597 22.4112 28.9216 22.1358Z" fill="white"/>
<path d="M28.9693 23.1799C29.0449 23.3138 29.1414 23.4301 29.2564 23.5272C29.2627 23.533 29.5321 23.7797 30.0362 23.8375C30.148 23.8505 30.1972 23.8493 30.2666 23.8329C30.4855 23.7805 30.6119 23.5953 30.6872 23.4848C30.9502 23.0996 30.9459 22.5748 30.9199 22.2967C30.6206 22.3353 29.6774 22.4375 29.0602 22.273C29.0992 22.4214 29.1213 22.6088 29.0866 22.8181C29.0658 22.9431 29.0264 23.0644 28.9693 23.1799ZM30.1555 24.0195C30.113 24.0195 30.0681 24.0157 30.0153 24.01C29.4474 23.9446 29.1481 23.6665 29.1359 23.6546C28.9961 23.5376 28.8783 23.3899 28.7893 23.2201C28.7763 23.1952 28.7767 23.1658 28.7901 23.1409C28.8495 23.03 28.8901 22.9118 28.9102 22.7905C28.9535 22.53 28.8948 22.3078 28.8381 22.167C28.8251 22.1349 28.8334 22.0978 28.859 22.0733C28.8846 22.0492 28.9228 22.0419 28.9559 22.0553C29.6002 22.3181 30.9715 22.1146 30.9853 22.1123C31.0093 22.1089 31.0333 22.1146 31.0526 22.1288C31.0719 22.1429 31.0845 22.164 31.0877 22.1873C31.1208 22.4466 31.1633 23.1015 30.836 23.5808C30.7521 23.7036 30.5958 23.9323 30.3095 24.0012C30.2543 24.0142 30.2063 24.0195 30.1555 24.0195Z" fill="#484C52"/>
<path d="M28.9216 22.2148C28.8928 22.2148 28.8645 22.2015 28.8471 22.1762L28.3025 21.3764C28.2753 21.3362 28.2863 21.2827 28.3277 21.2559C28.3686 21.2295 28.4242 21.2406 28.4513 21.2804L28.996 22.0806C29.0232 22.1204 29.0122 22.1743 28.9708 22.2007C28.9558 22.2103 28.9385 22.2148 28.9216 22.2148Z" fill="#484C52"/>
<path d="M28.8695 23.2695C28.84 23.2695 28.8112 23.2554 28.7943 23.2297L28.2784 22.4513C28.2717 22.4414 28.2673 22.4303 28.2654 22.4184C28.202 22.042 28.2012 21.7605 28.2012 21.7487C28.2012 21.7008 28.2409 21.6622 28.2902 21.6618C28.3394 21.6618 28.3796 21.7008 28.3796 21.7487C28.3796 21.7513 28.3808 22.0195 28.4387 22.3725L28.9443 23.1357C28.9711 23.1758 28.9593 23.2297 28.9175 23.2554C28.9026 23.2649 28.886 23.2695 28.8695 23.2695Z" fill="#484C52"/>
<path d="M48.9836 48.005L51.4403 46.4852C51.6778 46.338 51.7463 46.0312 51.5928 45.8017L50.2522 43.7981L46.9404 45.8468L48.2865 47.8581C48.4382 48.0845 48.7489 48.1499 48.9836 48.005Z" fill="white"/>
<path d="M47.0643 45.8725L48.3611 47.8107C48.4856 47.9962 48.7432 48.0505 48.9354 47.9316L51.3921 46.4115C51.4866 46.3529 51.552 46.2623 51.5756 46.1556C51.5996 46.0492 51.5791 45.9402 51.5177 45.8488L50.2251 43.9171L47.0643 45.8725ZM48.7128 48.168C48.5171 48.168 48.3253 48.075 48.2115 47.9052L46.8654 45.8939C46.8524 45.8744 46.8481 45.8507 46.8532 45.8281C46.8583 45.8056 46.8721 45.7857 46.8922 45.7734L50.2039 43.7247C50.2452 43.6991 50.3 43.7105 50.3268 43.7507L51.6677 45.7543C51.7548 45.8847 51.7843 46.0404 51.7505 46.1923C51.7162 46.3445 51.6232 46.4742 51.4882 46.558L49.0314 48.0777C48.9326 48.1389 48.8223 48.168 48.7128 48.168Z" fill="#484C52"/>
<path d="M39.9881 34.6523L42.8386 32.889L37.1537 24.2197L34.3027 25.9834L39.9881 34.6523Z" fill="white"/>
<path d="M34.4258 26.0128L40.0154 34.5356L42.7151 32.8652L37.1259 24.3424L34.4258 26.0128ZM39.9879 34.7422C39.9583 34.7422 39.9296 34.728 39.9126 34.702L34.2273 26.0331C34.2147 26.0136 34.2104 25.9899 34.2155 25.9677C34.2206 25.9451 34.2348 25.9256 34.2545 25.9134L37.1054 24.1496C37.1468 24.124 37.2019 24.1358 37.2287 24.176L42.914 32.8453C42.9266 32.8648 42.931 32.8881 42.9258 32.9107C42.9207 32.9329 42.9065 32.9524 42.8865 32.965L40.0359 34.7284C40.0209 34.7376 40.0044 34.7422 39.9879 34.7422Z" fill="#484C52"/>
<path d="M37.5649 65.9805H44.7082V59.6984H41.6391L37.5649 65.9805Z" fill="#484C52"/>
<path d="M37.7264 65.8927H44.6188V59.7844H41.6879L37.7264 65.8927ZM44.7078 66.0664H37.5645C37.5319 66.0664 37.5019 66.0492 37.4862 66.0213C37.4704 65.9937 37.4716 65.9601 37.4889 65.9333L41.5631 59.6513C41.5796 59.626 41.608 59.6107 41.6387 59.6107H44.7078C44.7575 59.6107 44.7972 59.6497 44.7972 59.6976V65.9796C44.7972 66.0274 44.7575 66.0664 44.7078 66.0664Z" fill="#484C52"/>
<path d="M35.5229 65.9805H42.6662V59.6984H39.5971L35.5229 65.9805Z" fill="white"/>
<path d="M35.684 65.8927H42.5764V59.7844H39.646L35.684 65.8927ZM42.6658 66.0664H35.5226C35.4899 66.0664 35.4599 66.0492 35.4442 66.0213C35.4284 65.9937 35.4296 65.9601 35.4469 65.9333L39.5211 59.6513C39.5373 59.626 39.566 59.6107 39.5963 59.6107H42.6658C42.7151 59.6107 42.7552 59.6497 42.7552 59.6976V65.9796C42.7552 66.0274 42.7151 66.0664 42.6658 66.0664Z" fill="#484C52"/>
<path d="M43.1604 38.1408L45.7207 42.0451C45.3427 41.9977 44.9567 41.9732 44.5649 41.9732C39.6093 41.9732 35.5922 45.8752 35.5922 50.6884C35.5922 55.5015 39.6093 59.4418 44.5649 59.4418C47.2358 59.4418 49.6334 58.2832 51.2773 56.5481H56.1175C53.9581 60.576 49.5956 63.3477 44.5649 63.3477C37.3885 63.3477 31.5708 57.6777 31.5708 50.7075C31.5708 44.1979 36.6445 38.8216 43.1604 38.1408Z" fill="#484C52"/>
<path d="M43.1152 38.2324C36.5808 38.9424 31.6598 44.2957 31.6598 50.707C31.6598 57.6289 37.4492 63.2603 44.5653 63.2603C49.3594 63.2603 53.7155 60.725 55.9694 56.6344H51.3163C49.5591 58.4735 47.1004 59.5281 44.5653 59.5281C39.568 59.5281 35.5029 55.5622 35.5029 50.6879C35.5029 45.8345 39.568 41.8862 44.5653 41.8862C44.8914 41.8862 45.2202 41.903 45.5447 41.9371L43.1152 38.2324ZM44.5653 63.4336C37.3507 63.4336 31.4814 57.7246 31.4814 50.707C31.4814 47.5512 32.6799 44.5229 34.8558 42.18C37.0175 39.8524 39.9634 38.3874 43.151 38.0542C43.1853 38.0504 43.2176 38.066 43.2357 38.0936L45.7964 41.9979C45.8149 42.0262 45.8149 42.0626 45.7964 42.0912C45.7779 42.1195 45.744 42.1348 45.7094 42.1306C45.3321 42.0836 44.9469 42.0595 44.5653 42.0595C39.6664 42.0595 35.6813 45.9301 35.6813 50.6879C35.6813 55.4666 39.6664 59.3545 44.5653 59.3545C47.0638 59.3545 49.4862 58.3102 51.2116 56.4891C51.2285 56.4711 51.2521 56.4608 51.277 56.4608H56.1175C56.149 56.4608 56.1778 56.4768 56.1939 56.5028C56.2101 56.5285 56.2113 56.561 56.1967 56.5877C53.9326 60.8107 49.4756 63.4336 44.5653 63.4336Z" fill="#484C52"/>
<path d="M41.6829 38.1408L44.2436 42.0451C43.8651 41.9977 43.4792 41.9732 43.0877 41.9732C38.1321 41.9732 34.1147 45.8752 34.1147 50.6884C34.1147 55.5015 38.1321 59.4418 43.0877 59.4418C45.7583 59.4418 48.1559 58.2832 49.7998 56.5481H54.6403C52.4806 60.576 48.1181 63.3477 43.0877 63.3477C35.9109 63.3477 30.0933 57.6777 30.0933 50.7075C30.0933 44.1979 35.167 38.8216 41.6829 38.1408Z" fill="white"/>
<path d="M41.6377 38.2324C35.1032 38.9424 30.1827 44.2957 30.1827 50.707C30.1827 57.6289 35.9716 63.2603 43.0877 63.2603C47.8822 63.2603 52.2384 60.725 54.4923 56.6344H49.8388C48.0815 58.4735 45.6232 59.5281 43.0877 59.5281C38.0908 59.5281 34.0253 55.5622 34.0253 50.6879C34.0253 45.8345 38.0908 41.8862 43.0877 41.8862C43.4142 41.8862 43.7427 41.903 44.0672 41.9371L41.6377 38.2324ZM43.0877 63.4336C35.8736 63.4336 30.0039 57.7246 30.0039 50.707C30.0039 47.5512 31.2023 44.5229 33.3786 42.18C35.54 39.8524 38.4858 38.3874 41.6735 38.0542C41.7078 38.0504 41.7401 38.066 41.7586 38.0936L44.3189 41.9979C44.3374 42.0262 44.3374 42.0626 44.3189 42.0912C44.3004 42.1195 44.2673 42.1348 44.2322 42.1306C43.8545 42.0836 43.4694 42.0595 43.0877 42.0595C38.1893 42.0595 34.2041 45.9301 34.2041 50.6879C34.2041 55.4666 38.1893 59.3545 43.0877 59.3545C45.5862 59.3545 48.0087 58.3102 49.734 56.4891C49.751 56.4711 49.775 56.4608 49.7998 56.4608H54.6404C54.6715 56.4608 54.7002 56.4768 54.7164 56.5028C54.7325 56.5285 54.7337 56.561 54.7191 56.5877C52.4554 60.8107 47.9984 63.4336 43.0877 63.4336Z" fill="#484C52"/>
<path d="M44.0236 45.7773L46.7288 44.0633L40.9166 35.2005L38.2114 36.9149L44.0236 45.7773Z" fill="#484C52"/>
<path d="M38.3338 36.9435L44.0503 45.6599L46.6059 44.0403L40.8898 35.324L38.3338 36.9435ZM44.0235 45.8672C44.0172 45.8672 44.0109 45.8664 44.0046 45.8653C43.9814 45.8603 43.9609 45.8465 43.9483 45.827L38.1361 36.9646C38.1098 36.9244 38.1216 36.8712 38.1625 36.8452L40.8677 35.1308C40.8878 35.1182 40.9123 35.114 40.9351 35.1189C40.9587 35.1239 40.9788 35.1373 40.9918 35.1572L46.804 44.0196C46.8299 44.0598 46.8185 44.1126 46.7776 44.1386L44.0723 45.853C44.0578 45.8622 44.0408 45.8672 44.0235 45.8672Z" fill="#484C52"/>
<path d="M47.2946 46.5039L50.7733 44.3515C51.1321 44.1297 51.2377 43.6676 51.0093 43.3195L42.2552 29.9709C42.0559 29.6672 41.6416 29.5781 41.3289 29.7713L37.6828 32.0269C37.3705 32.2205 37.2787 32.6229 37.4776 32.9266L46.2317 46.2748C46.4601 46.6233 46.9359 46.7258 47.2946 46.5039Z" fill="white"/>
<path d="M41.6878 29.7552C41.5783 29.7552 41.4711 29.7854 41.3766 29.8439L37.7305 32.0992C37.4604 32.2668 37.3804 32.6164 37.5525 32.8792L46.3066 46.2277C46.4043 46.3765 46.5559 46.4794 46.7335 46.5177C46.9107 46.5559 47.0931 46.525 47.2463 46.4301L50.7254 44.2777C51.0416 44.0818 51.1354 43.6725 50.9337 43.365L42.1793 30.0168C42.0962 29.8894 41.9666 29.8015 41.815 29.7686C41.7728 29.7598 41.7299 29.7552 41.6878 29.7552ZM46.8824 46.707C46.8198 46.707 46.7571 46.7005 46.6945 46.6871C46.4708 46.6389 46.2794 46.5089 46.1562 46.3207L37.4021 32.9725C37.1768 32.629 37.2812 32.1719 37.6348 31.9531L41.2805 29.6974C41.4518 29.5915 41.6551 29.5566 41.8536 29.5995C42.0517 29.6419 42.221 29.7571 42.3301 29.9235L51.0842 43.2721C51.3386 43.6599 51.2204 44.1767 50.8211 44.4238L47.3424 46.5762C47.2026 46.6627 47.0438 46.707 46.8824 46.707Z" fill="#484C52"/>
<path d="M33.5744 26.1123L33.1916 25.5286C33.1062 25.3981 33.1455 25.2248 33.2802 25.1415L36.7243 23.0105C36.859 22.9275 37.0374 22.9657 37.1228 23.0965L37.506 23.6803C37.5915 23.8111 37.5521 23.9844 37.4174 24.0674L33.9734 26.1983C33.8387 26.2814 33.6603 26.2431 33.5744 26.1123Z" fill="white"/>
<path d="M36.879 23.0523C36.8416 23.0523 36.8046 23.0626 36.7723 23.0829L33.3283 25.2135C33.2834 25.2414 33.2523 25.2846 33.2404 25.3351C33.229 25.3856 33.2385 25.4373 33.2672 25.4809L33.65 26.065C33.6784 26.1086 33.7229 26.1388 33.7749 26.1499C33.8273 26.161 33.8804 26.1518 33.9253 26.1242L37.3694 23.9933C37.4147 23.9653 37.4454 23.9225 37.4572 23.872C37.4686 23.8215 37.4592 23.7695 37.4304 23.7259L37.0476 23.1422C37.0192 23.0986 36.9747 23.0683 36.9228 23.0569C36.9082 23.0538 36.8936 23.0523 36.879 23.0523ZM33.8186 26.3281C33.7914 26.3281 33.7638 26.3251 33.7363 26.3193C33.6378 26.2979 33.5535 26.2405 33.4992 26.1579L33.1164 25.5742C33.062 25.4916 33.0443 25.3933 33.0664 25.2976C33.088 25.2016 33.1471 25.1201 33.2322 25.0674L36.6766 22.9364C36.7617 22.884 36.8629 22.8664 36.9614 22.8878C37.0598 22.9088 37.1441 22.9662 37.1984 23.0488L37.5812 23.6326C37.6352 23.7156 37.6533 23.8135 37.6313 23.9095C37.6096 24.0051 37.5505 24.087 37.4655 24.1394L34.021 26.2704C33.9596 26.3082 33.8899 26.3281 33.8186 26.3281Z" fill="#484C52"/>
<path d="M46.0898 56.5312H58.3978V55.1619H46.0898V56.5312Z" fill="white"/>
<path d="M46.1789 56.4478H58.3085V55.2517H46.1789V56.4478ZM58.3979 56.6211H46.0899C46.0403 56.6211 46.0005 56.5825 46.0005 56.5346V55.1652C46.0005 55.1174 46.0403 55.0784 46.0899 55.0784H58.3979C58.4471 55.0784 58.4869 55.1174 58.4869 55.1652V56.5346C58.4869 56.5825 58.4471 56.6211 58.3979 56.6211Z" fill="#484C52"/>
<path d="M55.4001 65.9654H33.6035V68.4219H55.4001V65.9654Z" fill="#484C52"/>
<path d="M33.6931 68.3345H55.3112V66.0517H33.6931V68.3345ZM55.4002 68.5078H33.6037C33.5544 68.5078 33.5146 68.4692 33.5146 68.4214V65.9649C33.5146 65.917 33.5544 65.878 33.6037 65.878H55.4002C55.4498 65.878 55.4896 65.917 55.4896 65.9649V68.4214C55.4896 68.4692 55.4498 68.5078 55.4002 68.5078Z" fill="#484C52"/>
<path d="M52.8675 65.9654H30.355V68.4219H52.8675V65.9654Z" fill="white"/>
<path d="M30.4445 68.3345H52.7783V66.0517H30.4445V68.3345ZM52.8677 68.5078H30.3551C30.3059 68.5078 30.2661 68.4692 30.2661 68.4214V65.9649C30.2661 65.917 30.3059 65.878 30.3551 65.878H52.8677C52.9169 65.878 52.9571 65.917 52.9571 65.9649V68.4214C52.9571 68.4692 52.9169 68.5078 52.8677 68.5078Z" fill="#484C52"/>
<path d="M36.0425 41.0521C36.0425 42.827 37.5237 44.2656 39.351 44.2656C41.178 44.2656 42.6592 42.827 42.6592 41.0521C42.6592 39.2776 41.178 37.839 39.351 37.839C37.5237 37.839 36.0425 39.2776 36.0425 41.0521Z" fill="white"/>
<path d="M39.3512 37.9253C37.5762 37.9253 36.132 39.3276 36.132 41.0516C36.132 42.7756 37.5762 44.1783 39.3512 44.1783C41.1262 44.1783 42.57 42.7756 42.57 41.0516C42.57 39.3276 41.1262 37.9253 39.3512 37.9253ZM39.3512 44.3516C37.4777 44.3516 35.9536 42.8712 35.9536 41.0516C35.9536 39.232 37.4777 37.7517 39.3512 37.7517C41.2246 37.7517 42.7488 39.232 42.7488 41.0516C42.7488 42.8712 41.2246 44.3516 39.3512 44.3516Z" fill="#484C52"/>
<path d="M37.604 41.0493C37.604 41.9864 38.3861 42.7461 39.351 42.7461C40.3159 42.7461 41.0981 41.9864 41.0981 41.0493C41.0981 40.1121 40.3159 39.3524 39.351 39.3524C38.3861 39.3524 37.604 40.1121 37.604 41.0493Z" fill="#484C52"/>
<path d="M39.3511 39.4423C38.4366 39.4423 37.6931 40.1645 37.6931 41.0523C37.6931 41.9401 38.4366 42.6627 39.3511 42.6627C40.2652 42.6627 41.0087 41.9401 41.0087 41.0523C41.0087 40.1645 40.2652 39.4423 39.3511 39.4423ZM39.3511 42.8359C38.3385 42.8359 37.5146 42.0357 37.5146 41.0523C37.5146 40.0688 38.3385 39.269 39.3511 39.269C40.3636 39.269 41.1871 40.0688 41.1871 41.0523C41.1871 42.0357 40.3636 42.8359 39.3511 42.8359Z" fill="#484C52"/>
<path d="M54.9779 54.9844C55.1086 54.9844 55.1992 54.8612 55.161 54.7403C54.9511 54.0706 53.8929 53.5614 52.6192 53.5614C51.3463 53.5614 50.2889 54.0698 50.0778 54.7384C50.0392 54.8597 50.1298 54.9828 50.2606 54.9828C51.1065 54.9832 54.1323 54.984 54.9779 54.9844Z" fill="white"/>
<path d="M52.6192 53.6513C51.42 53.6513 50.3641 54.1313 50.1629 54.7674C50.153 54.7996 50.1586 54.8332 50.1786 54.8596C50.1979 54.8849 50.2279 54.8994 50.2606 54.8994C51.1065 54.9002 54.1327 54.9009 54.9783 54.9009C55.0228 54.9009 55.0484 54.8761 55.0598 54.8612C55.0799 54.8344 55.0858 54.8011 55.0755 54.769C54.8759 54.1317 53.8196 53.6513 52.6192 53.6513ZM54.9783 55.0742C54.1327 55.0742 51.1065 55.0735 50.2602 55.0731C50.1704 55.0731 50.0885 55.0325 50.0353 54.9625C49.9809 54.8914 49.9656 54.8019 49.9924 54.7166C50.2188 53.999 51.3239 53.478 52.6192 53.478C53.9161 53.478 55.0208 53.9997 55.2465 54.7181C55.2732 54.8034 55.2575 54.8933 55.2031 54.9644C55.15 55.0341 55.068 55.0742 54.9783 55.0742Z" fill="#484C52"/>
<path d="M51.2506 54.5391C51.2246 54.5391 51.1986 54.528 51.1809 54.5065C51.1498 54.4694 51.1561 54.4147 51.1947 54.3849C51.5106 54.1386 52.0005 53.9898 52.5381 53.976C52.5834 53.9745 52.6282 54.0123 52.6298 54.0605C52.631 54.1084 52.592 54.1481 52.5428 54.1493C52.0505 54.1619 51.5885 54.3004 51.3062 54.5199C51.29 54.5329 51.2699 54.5391 51.2506 54.5391Z" fill="#484C52"/>
<path d="M36.5005 36.2845L37.1015 36.2543L37.8076 36.1104L39.4349 35.6748C39.6555 35.6155 39.8843 35.7394 39.9485 35.9528C40.0142 36.1709 39.8843 36.3992 39.659 36.4601L38.7 36.7198C38.5669 36.7557 38.5189 36.9152 38.611 37.0155C38.7536 37.1708 38.9233 37.2993 39.1132 37.3949C39.4586 37.569 40.0639 37.8547 40.6979 38.0647C40.9953 38.1634 41.0504 38.5287 40.7539 38.6289L38.7142 38.544C38.3105 38.5275 37.9266 38.3868 37.6119 38.1489C36.864 37.5839 36.5005 36.2845 36.5005 36.2845Z" fill="white"/>
<path d="M40.7539 38.7148C40.7524 38.7148 40.7512 38.7148 40.75 38.7145L38.7104 38.6299C38.2401 38.6104 37.7892 38.4295 37.441 38.1212L37.174 37.8672L35.3514 38.0917C35.3021 38.0982 35.2576 38.0642 35.2517 38.0168C35.2454 37.9693 35.2801 37.9257 35.3289 37.92L37.1945 37.6901C37.2217 37.6866 37.2488 37.6954 37.2685 37.7142L37.5639 37.9953C37.8786 38.2742 38.2893 38.4387 38.7178 38.4566L40.7394 38.5408C40.8453 38.4987 40.8615 38.4211 40.8615 38.3771C40.8611 38.2937 40.8016 38.1897 40.6693 38.146C40.0159 37.9292 39.3881 37.63 39.0723 37.4713C38.873 37.3707 38.6954 37.2364 38.5446 37.0723C38.4808 37.0027 38.4587 36.9075 38.4855 36.8183C38.5127 36.7288 38.5839 36.6604 38.6761 36.6355L39.6351 36.3758C39.7209 36.3528 39.7918 36.2981 39.8347 36.2228C39.8781 36.147 39.8883 36.0594 39.8631 35.9764C39.8123 35.8093 39.6311 35.711 39.4586 35.7573L37.4978 36.2824C37.4942 36.2836 37.4907 36.2844 37.4871 36.2847C37.4788 36.2859 36.6297 36.406 34.9808 36.4649C34.9319 36.4672 34.8902 36.4293 34.8882 36.3815C34.8867 36.3337 34.9249 36.2931 34.9741 36.2916C36.5447 36.2354 37.3824 36.1241 37.4556 36.1141L39.411 35.5901C39.6772 35.5189 39.9564 35.6704 40.0344 35.9275C40.073 36.0556 40.0576 36.1903 39.9911 36.3069C39.9245 36.4232 39.8151 36.507 39.6831 36.5429L38.7241 36.8027C38.6911 36.8115 38.6666 36.8348 38.6568 36.8669C38.6473 36.8991 38.6548 36.9319 38.6777 36.9568C38.8139 37.1052 38.9746 37.2265 39.1546 37.3171C39.4661 37.474 40.0844 37.7689 40.7268 37.9819C40.9138 38.0435 41.0395 38.2023 41.0399 38.3767C41.0403 38.5286 40.9418 38.6563 40.7831 38.7099C40.7736 38.7129 40.7638 38.7148 40.7539 38.7148Z" fill="#484C52"/>
<path d="M44.3492 31.9213L44.3552 31.9163C43.7707 31.7836 43.2091 31.7759 42.679 31.9362C42.5802 32.1229 42.9779 32.2108 43.6817 32.37C43.3828 32.8305 43.0886 33.3699 42.8909 33.892C42.7909 34.1555 43.0165 34.426 43.3036 34.3916C43.6723 34.3476 44.0909 34.2145 44.4166 34.1001L44.7573 33.9413C44.8175 32.8871 44.762 32.0582 44.3492 31.9213Z" fill="white"/>
<path d="M42.7605 32.0018C42.8298 32.0875 43.2445 32.1812 43.6824 32.2803L43.7017 32.2845C43.7297 32.291 43.7529 32.3101 43.7639 32.3361C43.775 32.3617 43.7722 32.3916 43.7568 32.4153C43.5245 32.7729 43.2 33.3245 42.9743 33.9209C42.9385 34.015 42.9558 34.1178 43.02 34.1966C43.0858 34.277 43.1878 34.3171 43.2921 34.3045C43.6663 34.2598 44.092 34.1205 44.3815 34.0192L44.6705 33.8845C44.6977 33.3991 44.7536 32.1464 44.3196 32.0022C44.3118 31.9995 44.3043 31.996 44.2976 31.9915C43.732 31.8683 43.2283 31.8713 42.7605 32.0018ZM43.2539 34.4805C43.1086 34.4805 42.9719 34.417 42.8802 34.3045C42.777 34.1779 42.7494 34.0123 42.8065 33.8612C43.0172 33.3054 43.3102 32.7894 43.5398 32.426C42.9605 32.2948 42.6659 32.2206 42.5915 32.0641C42.5738 32.027 42.5608 31.9677 42.599 31.8954C42.61 31.8748 42.6293 31.8591 42.6521 31.8522C43.1763 31.6939 43.7403 31.687 44.3752 31.8308C44.3913 31.8346 44.4059 31.8423 44.4173 31.8534C44.7918 32.0159 44.9202 32.6478 44.8458 33.9453C44.8442 33.9767 44.8249 34.005 44.7954 34.0184L44.4547 34.1775C44.452 34.1787 44.4492 34.1798 44.4464 34.181C44.1487 34.2854 43.7076 34.4296 43.3142 34.4766C43.2941 34.4793 43.2736 34.4805 43.2539 34.4805Z" fill="#484C52"/>
<path d="M41.575 16.1445C40.8098 12.8985 42.873 9.67007 46.1836 8.93373C49.4941 8.1974 52.7984 10.2316 53.5636 13.4776C54.3288 16.7232 52.2655 19.9517 48.9554 20.688C45.6448 21.4243 42.3406 19.3901 41.575 16.1445ZM40.6652 16.3468C41.5466 20.0855 45.3526 22.4284 49.1657 21.5804C52.9787 20.732 55.3551 17.0136 54.4737 13.2753C53.5919 9.53658 49.7859 7.1933 45.9729 8.04171C42.1598 8.88975 39.7834 12.6082 40.6652 16.3468Z" fill="#484C52"/>
<path d="M53.7242 14.8541C53.7242 18.1643 50.9615 20.8477 47.5533 20.8477C44.145 20.8477 41.3823 18.1643 41.3823 14.8541C41.3823 11.5438 44.145 8.86044 47.5533 8.86044C50.9615 8.86044 53.7242 11.5438 53.7242 14.8541Z" fill="white"/>
<path d="M45.4154 14.6356C45.4154 15.3784 44.7955 15.9805 44.0307 15.9805C43.2659 15.9805 42.646 15.3784 42.646 14.6356C42.646 13.8927 43.2659 13.2906 44.0307 13.2906C44.7955 13.2906 45.4154 13.8927 45.4154 14.6356Z" fill="#484C52"/>
<path d="M50.7133 12.6473C50.7133 13.3901 50.0934 13.9922 49.3286 13.9922C48.5637 13.9922 47.9438 13.3901 47.9438 12.6473C47.9438 11.9048 48.5637 11.3024 49.3286 11.3024C50.0934 11.3024 50.7133 11.9048 50.7133 12.6473Z" fill="#484C52"/>
<path d="M50.5326 17.6785C50.5326 18.4214 49.9127 19.0234 49.1479 19.0234C48.3835 19.0234 47.7632 18.4214 47.7632 17.6785C47.7632 16.9357 48.3835 16.3336 49.1479 16.3336C49.9127 16.3336 50.5326 16.9357 50.5326 17.6785Z" fill="#484C52"/>
<path d="M47.0407 12.152C47.0407 12.6527 46.6228 13.0586 46.1077 13.0586C45.5922 13.0586 45.1743 12.6527 45.1743 12.152C45.1743 11.6513 45.5922 11.2459 46.1077 11.2459C46.6228 11.2459 47.0407 11.6513 47.0407 12.152Z" fill="#484C52"/>
<path d="M47.8835 15.0739C47.8835 15.5746 47.4656 15.9805 46.9505 15.9805C46.4349 15.9805 46.0171 15.5746 46.0171 15.0739C46.0171 14.5736 46.4349 14.1677 46.9505 14.1677C47.4656 14.1677 47.8835 14.5736 47.8835 15.0739Z" fill="#484C52"/>
<path d="M50.6532 15.0737C50.6532 15.4776 50.3164 15.8047 49.9006 15.8047C49.4851 15.8047 49.1479 15.4776 49.1479 15.0737C49.1479 14.6702 49.4851 14.3431 49.9006 14.3431C50.3164 14.3431 50.6532 14.6702 50.6532 15.0737Z" fill="#484C52"/>
<path d="M46.5892 17.2104C46.5892 17.614 46.2521 17.9414 45.8366 17.9414C45.4207 17.9414 45.084 17.614 45.084 17.2104C45.084 16.8069 45.4207 16.4794 45.8366 16.4794C46.2521 16.4794 46.5892 16.8069 46.5892 17.2104Z" fill="#484C52"/>
<path d="M52.5497 13.7573C52.5497 14.1609 52.2125 14.4883 51.797 14.4883C51.3812 14.4883 51.0444 14.1609 51.0444 13.7573C51.0444 13.3537 51.3812 13.0263 51.797 13.0263C52.2125 13.0263 52.5497 13.3537 52.5497 13.7573Z" fill="#484C52"/>
<path d="M44.1507 16.9609C44.1507 17.2435 43.9152 17.4727 43.6241 17.4727C43.3331 17.4727 43.0972 17.2435 43.0972 16.9609C43.0972 16.6786 43.3331 16.4494 43.6241 16.4494C43.9152 16.4494 44.1507 16.6786 44.1507 16.9609Z" fill="#484C52"/>
<path d="M48.1847 10.7034C48.1847 10.9857 47.9488 11.2148 47.6578 11.2148C47.3668 11.2148 47.1309 10.9857 47.1309 10.7034C47.1309 10.4207 47.3668 10.1916 47.6578 10.1916C47.9488 10.1916 48.1847 10.4207 48.1847 10.7034Z" fill="#484C52"/>
<path d="M47.5828 18.8319C47.5828 19.1146 47.3469 19.3438 47.0558 19.3438C46.7652 19.3438 46.5293 19.1146 46.5293 18.8319C46.5293 18.5493 46.7652 18.3205 47.0558 18.3205C47.3469 18.3205 47.5828 18.5493 47.5828 18.8319Z" fill="#484C52"/>
<path d="M51.9026 16.5081C51.9026 16.7908 51.6667 17.0195 51.3761 17.0195C51.085 17.0195 50.8491 16.7908 50.8491 16.5081C50.8491 16.2254 51.085 15.9963 51.3761 15.9963C51.6667 15.9963 51.9026 16.2254 51.9026 16.5081Z" fill="#484C52"/>
<path d="M44.6326 12.0468C44.6326 12.3295 44.3971 12.5586 44.106 12.5586C43.815 12.5586 43.5791 12.3295 43.5791 12.0468C43.5791 11.7645 43.815 11.5354 44.106 11.5354C44.3971 11.5354 44.6326 11.7645 44.6326 12.0468Z" fill="#484C52"/>
<path d="M67.0898 50.5552C67.0898 50.5552 68.0063 51.6128 70.7178 51.6939C73.0997 51.765 73.1367 51.1056 73.1099 50.759C73.0816 50.3945 72.8201 49.9236 70.7544 49.701C68.4458 49.4516 67.0898 50.5552 67.0898 50.5552Z" fill="white"/>
<path d="M67.2259 50.5634C67.4799 50.791 68.4814 51.5396 70.7207 51.6065C71.868 51.6409 72.5946 51.5097 72.8821 51.2175C73.0239 51.0737 73.0325 50.9149 73.0211 50.7646C72.9943 50.4207 72.7116 49.9984 70.7448 49.7861C68.8063 49.5769 67.5425 50.3438 67.2259 50.5634ZM71.0665 51.7852C70.9539 51.7852 70.8369 51.7832 70.7152 51.7798C67.9954 51.6983 67.0605 50.6544 67.0219 50.6101C67.0065 50.5925 66.999 50.5695 67.0014 50.5466C67.0034 50.5236 67.0148 50.5026 67.0329 50.4877C67.0896 50.4418 68.4444 49.3635 70.7645 49.6136C72.8494 49.8389 73.1652 50.3152 73.1991 50.7516C73.2074 50.8614 73.2275 51.1177 73.0113 51.3372C72.7151 51.6379 72.0775 51.7852 71.0665 51.7852Z" fill="#484C52"/>
<path d="M70.3959 68.9844C69.4637 68.9844 68.7245 68.7832 68.6815 68.7713C68.6339 68.7579 68.6067 68.7101 68.6201 68.6638C68.6339 68.6179 68.6827 68.5912 68.7304 68.6045C68.745 68.6084 70.1702 68.9955 71.5313 68.6944C71.579 68.6837 71.627 68.7132 71.638 68.7598C71.6491 68.8065 71.6191 68.8528 71.5707 68.8635C71.1702 68.9522 70.7677 68.9844 70.3959 68.9844Z" fill="#484C52"/>
<path d="M70.6109 63.8149L70.3947 65.8139L69.0029 65.9727V63.6022L70.6109 63.8149Z" fill="white"/>
<path d="M69.092 63.7051V65.8785L70.3133 65.7393L70.5125 63.8929L69.092 63.7051ZM69.0026 66.0625C68.9809 66.0625 68.96 66.0548 68.9435 66.0407C68.9242 66.0242 68.9136 66.0005 68.9136 65.9761V63.6056C68.9136 63.5804 68.9246 63.5567 68.9439 63.5402C68.9636 63.5238 68.9892 63.5165 69.0148 63.5195L70.6224 63.7326C70.6705 63.7387 70.7043 63.7808 70.6992 63.8275L70.4834 65.8265C70.4787 65.867 70.4464 65.8988 70.4046 65.9038L69.0132 66.0621C69.0097 66.0625 69.0061 66.0625 69.0026 66.0625Z" fill="#484C52"/>
<path d="M68.7839 69.4557C69.3632 69.5349 70.3136 69.6045 71.4289 69.4549C71.7955 69.4056 72.0401 69.0617 71.9519 68.7129C71.7057 67.7424 71.2824 65.901 70.555 65.0476L70.3746 65.5105L70.1253 65.0748C70.091 65.0151 70.0296 64.9746 69.9599 64.9661L69.4137 64.8988C69.2994 64.8847 69.1931 64.9581 69.1695 65.0675L69.0828 65.4688L68.8095 64.942L68.5768 66.9797C68.5303 67.3844 68.4653 67.7868 68.3814 68.1858L68.2566 68.779C68.1723 69.2105 68.4468 69.4094 68.7839 69.4557Z" fill="white"/>
<path d="M68.8649 65.2411L68.6653 66.9884C68.6188 67.3935 68.553 67.802 68.4687 68.2021L68.3439 68.7954C68.3136 68.9507 68.3341 69.0781 68.4042 69.1733C68.5002 69.3038 68.6704 69.3516 68.7964 69.3688C69.3872 69.4495 70.3213 69.5149 71.4166 69.368C71.5678 69.3478 71.7037 69.2663 71.7887 69.1443C71.8742 69.0219 71.9014 68.8757 71.8651 68.7327L71.812 68.5223C71.5769 67.5828 71.1909 66.0417 70.582 65.2223L70.458 65.5402C70.4454 65.5716 70.4154 65.5934 70.3808 65.5961C70.345 65.5984 70.3134 65.5811 70.2965 65.5517L70.0468 65.116C70.0267 65.0804 69.9897 65.0563 69.9484 65.0514L69.4021 64.984C69.3352 64.976 69.271 65.0196 69.2568 65.0843L69.1698 65.4859C69.1619 65.5219 69.1316 65.5494 69.0942 65.554C69.0567 65.5586 69.0201 65.5398 69.0028 65.5069L68.8649 65.2411ZM70.0996 69.6289C69.5667 69.6289 69.1131 69.5872 68.7712 69.5405C68.5416 69.5092 68.3644 69.417 68.2592 69.2743C68.1592 69.1389 68.1289 68.9668 68.169 68.7621L68.2939 68.1677C68.377 67.7722 68.4424 67.369 68.4877 66.9693L68.7208 64.9316C68.7251 64.8934 68.7547 64.8624 68.7937 64.8559C68.8326 64.8486 68.8716 64.8678 68.8894 64.9022L69.0477 65.2078L69.0823 65.0487C69.115 64.8964 69.2655 64.792 69.4246 64.8119L69.9708 64.8792C70.0685 64.8911 70.1551 64.9481 70.2032 65.0315L70.3591 65.3042L70.4718 65.0162C70.4828 64.9871 70.5092 64.9664 70.5403 64.9611C70.5718 64.9561 70.6037 64.9676 70.6238 64.9913C71.3146 65.8019 71.7344 67.4792 71.9857 68.4814L72.0384 68.6914C72.0861 68.8799 72.0491 69.0808 71.9368 69.2414C71.823 69.404 71.6422 69.5126 71.441 69.5398C70.9581 69.6048 70.506 69.6289 70.0996 69.6289Z" fill="#484C52"/>
<path d="M70.7283 67.5C70.7271 67.5 70.7263 67.5 70.7251 67.5L69.4208 67.4583C69.3715 67.4568 69.3329 67.4166 69.3345 67.3688C69.3361 67.321 69.379 67.2839 69.4267 67.285L70.731 67.3267C70.7803 67.3283 70.8189 67.3684 70.8173 67.4162C70.8157 67.4633 70.7763 67.5 70.7283 67.5Z" fill="#484C52"/>
<path d="M70.728 69.0234C70.7268 69.0234 70.726 69.0234 70.7248 69.0234L69.4205 68.9814C69.3964 68.9817 68.7927 68.9817 68.7258 68.5709C68.7179 68.5235 68.7514 68.4791 68.8002 68.4719C68.849 68.4642 68.8943 68.4963 68.9022 68.5438C68.9447 68.8073 69.413 68.8073 69.4228 68.8081L70.7248 68.8498C71.1742 68.8062 71.2085 68.6283 71.2085 68.6264C71.21 68.5786 71.2545 68.5419 71.3006 68.5426C71.3498 68.5441 71.3884 68.5843 71.3869 68.6321C71.3857 68.6662 71.3577 68.9645 70.7367 69.0231C70.7335 69.0231 70.7307 69.0234 70.728 69.0234Z" fill="#484C52"/>
<path d="M64.0922 62.7509L63.8839 65.668H62.2093L62.1313 62.7509H64.0922Z" fill="white"/>
<path d="M62.2959 65.5842H63.8L63.9961 62.8404H62.2227L62.2959 65.5842ZM63.8835 65.7578H62.2089C62.1605 65.7578 62.1207 65.7203 62.1195 65.6733L62.0415 62.7558C62.0411 62.7325 62.0502 62.7099 62.0671 62.6931C62.0837 62.6767 62.1069 62.6671 62.1309 62.6671H64.0918C64.1166 62.6671 64.1402 62.677 64.1572 62.6946C64.1741 62.7122 64.1828 62.736 64.1812 62.7597L63.9725 65.6771C63.9689 65.7226 63.9303 65.7578 63.8835 65.7578Z" fill="#484C52"/>
<path d="M64.3214 67.3173C64.3253 67.593 64.1312 67.8352 63.8547 67.8979C62.8918 68.1156 60.7234 68.6002 60.1047 68.6897C59.3016 68.8056 58.3151 68.5669 57.8909 68.1106C57.4664 67.6546 58.8409 66.5656 59.4927 66.1693C60.4619 65.5806 61.3925 64.417 61.7828 64.3646C62.1731 64.3126 62.9016 65.4119 62.9016 65.4119L64.0922 64.9262C64.0922 64.9262 64.2997 65.9176 64.3214 67.3173Z" fill="white"/>
<path d="M61.812 64.4486C61.806 64.4486 61.8001 64.449 61.7946 64.4498C61.6272 64.4723 61.2803 64.7921 60.9128 65.1306C60.4993 65.5116 60.0307 65.9435 59.5399 66.2418C59.0032 66.5677 57.9725 67.3764 57.9032 67.8576C57.8918 67.9371 57.9091 68.0006 57.9567 68.0515C58.3518 68.4765 59.2895 68.719 60.0909 68.6027C60.7096 68.5136 62.9147 68.0205 63.8339 67.8124C64.0682 67.7597 64.2352 67.5516 64.2316 67.3175C64.2147 66.199 64.0765 65.3361 64.0245 65.0469L62.9356 65.491C62.8958 65.5074 62.8497 65.4936 62.8261 65.4581C62.5433 65.0316 62.0498 64.4486 61.812 64.4486ZM59.6845 68.8047C58.9457 68.8047 58.184 68.5549 57.824 68.1678C57.7405 68.0779 57.7075 67.9655 57.7264 67.8335C57.8091 67.2586 58.9201 66.414 59.445 66.095C59.9208 65.8058 60.3824 65.3804 60.79 65.0048C61.2287 64.6005 61.5461 64.3082 61.7702 64.278C62.1601 64.2256 62.7442 65.0243 62.9352 65.3032L64.0572 64.8453C64.0824 64.8353 64.11 64.8365 64.1336 64.8487C64.1572 64.861 64.1742 64.8828 64.1793 64.908C64.1816 64.918 64.3888 65.9232 64.4101 67.3148C64.4152 67.63 64.1899 67.9104 63.8744 67.9815C62.9529 68.1896 60.7423 68.6838 60.1173 68.7745C59.9763 68.7947 59.831 68.8047 59.6845 68.8047Z" fill="#484C52"/>
<path d="M59.7014 68.2695C59.0906 68.2695 58.5538 68.1571 58.2096 67.8553C58.173 67.8231 58.1702 67.7684 58.2033 67.7329C58.2364 67.6973 58.2927 67.6946 58.3293 67.7267C59.573 68.8173 63.8075 67.1553 63.85 67.1381C63.8953 67.1201 63.9477 67.1415 63.9666 67.1855C63.9851 67.2299 63.9631 67.2807 63.9174 67.2987C63.7854 67.3511 61.4449 68.2695 59.7014 68.2695Z" fill="#484C52"/>
<path d="M61.5573 66.5039C61.5357 66.5039 61.5144 66.4963 61.4975 66.4813L60.6456 65.7351C60.609 65.7033 60.6062 65.6482 60.6393 65.6126C60.6724 65.5771 60.7287 65.5744 60.7653 65.6065L61.6172 66.3528C61.6534 66.3849 61.6566 66.4396 61.6235 66.4752C61.6058 66.494 61.5814 66.5039 61.5573 66.5039Z" fill="#484C52"/>
<path d="M71.0855 43.7342C71.0855 43.7342 71.6046 52.8541 71.8759 56.0022C72.1477 59.1503 71.2411 64.2109 71.2411 64.2109L68.6564 64.079C68.6564 64.079 68.5288 59.6472 68.3728 57.2614C68.3322 56.6402 68.192 56.0297 67.9553 55.4514C67.6064 54.5984 67.0799 53.1647 66.8715 51.8351C66.5482 49.7691 65.4459 46.5059 65.4459 46.5059C65.4459 46.5059 64.5507 62.793 64.4644 64.0725C64.4644 64.0725 62.4374 64.1601 61.7108 63.7163C61.7108 63.7163 60.4229 57.7774 60.608 54.5463C60.7927 51.3153 60.5899 43.2874 60.5899 43.2874L71.0855 43.7342Z" fill="#484C52"/>
<path d="M69.2565 56.6328C69.0926 56.6328 68.9288 56.6072 68.7705 56.5559C68.7236 56.541 68.6984 56.4917 68.7142 56.4461C68.7295 56.401 68.7799 56.3761 68.8268 56.3914C69.0938 56.4779 69.3774 56.4821 69.6471 56.4037C69.6944 56.3895 69.744 56.4159 69.7582 56.4618C69.7724 56.5073 69.7456 56.5559 69.6983 56.5697C69.5534 56.6118 69.4049 56.6328 69.2565 56.6328Z" fill="white"/>
<path d="M63.1346 61.0391C63.0862 61.0391 63.046 61.0012 63.0452 60.9541C63.0177 59.4933 61.2856 56.7457 61.2683 56.7182C61.2423 56.6773 61.2553 56.6237 61.2974 56.5988C61.3396 56.5736 61.3943 56.5862 61.4203 56.6271C61.4928 56.7415 63.1953 59.4428 63.224 60.9507C63.2248 60.9985 63.1854 61.0383 63.1362 61.0391C63.1358 61.0391 63.135 61.0391 63.1346 61.0391Z" fill="white"/>
<path d="M51.9776 29.653C51.4176 29.0781 51.0915 28.6149 51.0915 28.6149C51.0915 28.6149 50.0932 26.98 49.3358 26.3887C48.5781 25.7977 48.4596 25.7197 48.4596 25.7197C48.4596 25.7197 48.2221 26.0272 48.4596 26.3887C48.5942 26.5945 48.8648 26.902 49.0727 27.1292C49.2098 27.2784 49.2126 27.5014 49.0818 27.6559C48.9188 27.8495 48.7742 28.1674 48.9558 28.6149C49.2279 29.2851 49.8596 29.4293 50.1849 29.458C50.3066 29.4691 50.409 29.5505 50.4417 29.6649C50.4964 29.8562 50.5937 30.1733 50.7379 30.5703L51.9776 29.653Z" fill="white"/>
<path d="M48.4879 25.8477C48.4434 25.9471 48.3981 26.133 48.5352 26.3419C48.6675 26.5435 48.9373 26.8499 49.1401 27.071C49.3063 27.2523 49.311 27.5212 49.1515 27.7105C48.9424 27.958 48.905 28.2514 49.0393 28.5826C49.2909 29.2023 49.8703 29.3427 50.1932 29.3714C50.3539 29.3855 50.485 29.4915 50.528 29.6411C50.5784 29.8163 50.6615 30.089 50.782 30.4283L51.8453 29.6418C51.3286 29.1017 51.0313 28.6817 51.0183 28.6634C51.0053 28.6423 50.0164 27.0304 49.2803 26.4559C48.812 26.091 48.5895 25.9226 48.4879 25.8477ZM50.7383 30.6562C50.7296 30.6562 50.7209 30.6551 50.7127 30.6528C50.6855 30.6448 50.6634 30.6245 50.654 30.5985C50.5102 30.2022 50.4126 29.8843 50.3559 29.6877C50.333 29.6078 50.2629 29.5516 50.1771 29.5439C49.8132 29.5118 49.1602 29.3523 48.8731 28.6461C48.6738 28.1554 48.8396 27.8065 49.0133 27.6004C49.1169 27.4776 49.1141 27.3035 49.0066 27.1865C48.7994 26.9604 48.5234 26.6464 48.3847 26.4348C48.1169 26.0275 48.3772 25.6817 48.3883 25.6671C48.417 25.6304 48.4702 25.6216 48.5096 25.6476C48.5147 25.6507 48.6403 25.7341 49.3921 26.3208C50.1534 26.9149 51.1278 28.5027 51.1687 28.57C51.1691 28.57 51.4948 29.0302 52.043 29.5932C52.0604 29.6108 52.069 29.6353 52.067 29.6598C52.0651 29.6843 52.0525 29.7069 52.0324 29.7218L50.7922 30.6387C50.7765 30.6501 50.7576 30.6562 50.7383 30.6562Z" fill="#484C52"/>
<path d="M69.5731 25.8506C69.5731 25.8506 66.4303 24.3745 62.0411 25.9876C58.367 27.3378 62.6771 37.1256 61.9875 43.6004C61.9875 43.6004 67.7662 44.4462 69.3864 42.3106C70.2414 41.1837 69.5731 25.8506 69.5731 25.8506Z" fill="white"/>
<path d="M62.0846 43.5277C62.7994 43.6195 67.8495 44.1914 69.3142 42.2612C69.9734 41.3922 69.7163 31.2177 69.4863 25.9095C69.0755 25.7374 66.0816 24.5971 62.0724 26.0706C59.9504 26.8501 60.5853 30.5793 61.3198 34.8967C61.8239 37.8581 62.3445 40.9194 62.0846 43.5277ZM64.5319 43.8594C63.1795 43.8594 62.0767 43.7029 61.974 43.688C61.9267 43.6811 61.8936 43.6394 61.8983 43.5935C62.1756 40.9901 61.651 37.9067 61.1438 34.925C60.3963 30.5322 59.7508 26.7385 62.0094 25.9084C66.3837 24.3007 69.58 25.7596 69.6119 25.7745C69.6414 25.7883 69.6607 25.817 69.6623 25.8487C69.6895 26.476 70.3216 41.2254 69.4579 42.3641C68.5293 43.5878 66.3144 43.8594 64.5319 43.8594Z" fill="#484C52"/>
<path d="M57.689 29.7927C57.689 29.7927 59.5975 27.1289 61.4938 26.0617C61.719 25.9347 62.0699 25.7955 62.5189 25.6665C63.29 27.5018 64.4699 30.9066 63.8851 33.4323C63.1916 36.4267 63.3912 47.2292 63.4822 50.9102C59.7097 50.8302 58.7247 50.7472 58.7247 50.7472C58.249 48.2096 60.3221 33.3631 60.3221 33.3631L57.689 29.7927Z" fill="white"/>
<path d="M58.8007 50.6648C59.0792 50.6836 60.2611 50.7536 63.3904 50.8209C63.3062 47.376 63.1018 36.4158 63.7977 33.4123C64.3707 30.9378 63.225 27.5931 62.4665 25.7716C62.081 25.886 61.7533 26.0145 61.5379 26.1358C59.8223 27.1016 58.0706 29.4219 57.7981 29.7918L60.3942 33.3117C60.4076 33.3297 60.4131 33.3519 60.4099 33.3741C60.3895 33.521 58.3786 47.9888 58.8007 50.6648ZM63.4818 50.9961C63.481 50.9961 63.4806 50.9961 63.4799 50.9961C59.7475 50.9169 58.7267 50.8335 58.7165 50.8324C58.6767 50.8293 58.6436 50.8002 58.6365 50.7616C58.1702 48.2757 60.0925 34.3613 60.2284 33.3848L57.6157 29.8423C57.5937 29.8125 57.5937 29.7723 57.6153 29.7425C57.6342 29.7157 59.5573 27.0504 61.4485 25.9854C61.6934 25.8477 62.0546 25.7081 62.4933 25.5827C62.537 25.57 62.5839 25.5918 62.6012 25.6328C63.3672 27.4562 64.5633 30.8962 63.9717 33.4506C63.2743 36.4613 63.4885 47.5734 63.5712 50.9074C63.5716 50.9311 63.5622 50.954 63.5448 50.9705C63.5283 50.9869 63.5055 50.9961 63.4818 50.9961Z" fill="#484C52"/>
<path d="M65.38 34.7285C65.6458 31.4978 67.5712 27.4806 68.6566 25.4372C69.5593 25.6002 70.4919 25.8591 71.4225 26.2463C75.2848 27.8528 73.9147 33.3178 73.9147 33.3178L71.2926 32.9299L71.2831 36.1239C71.2736 39.1634 71.4914 42.1994 71.9337 45.2082L73.0868 50.625C72.7344 49.5081 67.1266 50.2746 64.6006 50.506C65.0295 44.442 65.0807 38.3593 65.38 34.7285Z" fill="white"/>
<path d="M68.7054 25.5335C67.5944 27.6327 65.73 31.5638 65.4689 34.7345C65.3271 36.4527 65.2424 38.6901 65.1444 41.2804C65.038 44.0808 64.9179 47.2507 64.6966 50.4091C65.0242 50.3782 65.4019 50.3391 65.7997 50.2978C69.0555 49.9608 72.038 49.7149 72.9269 50.3005L71.8462 45.2245C71.4035 42.2168 71.1845 39.1563 71.1936 36.1226L71.2035 32.929C71.2035 32.9038 71.2149 32.8797 71.2346 32.8632C71.2543 32.8468 71.2802 32.8395 71.3062 32.8433L73.8457 33.219C73.9902 32.5511 74.8877 27.7808 71.3874 26.3249C70.5402 25.9726 69.638 25.7064 68.7054 25.5335ZM73.0867 50.7109C73.0485 50.7109 73.0131 50.6868 73.0013 50.6497C72.7193 49.7562 68.3994 50.2033 65.8186 50.4703C65.3771 50.5162 64.9601 50.5591 64.6088 50.5916C64.5828 50.5939 64.5568 50.5851 64.5383 50.5671C64.5194 50.5495 64.5095 50.5247 64.5115 50.499C64.7371 47.3096 64.8584 44.103 64.966 41.2739C65.064 38.6816 65.1491 36.4428 65.2909 34.7203C65.5567 31.4908 67.464 27.4924 68.577 25.3966C68.5951 25.3625 68.6341 25.3438 68.6727 25.351C69.6415 25.5262 70.5784 25.8001 71.4575 26.1658C73.069 26.836 74.0193 28.2918 74.206 30.3761C74.3458 31.9391 74.0048 33.3234 74.0012 33.3372C73.9906 33.3812 73.9473 33.4095 73.9012 33.4026L71.3815 33.03L71.372 36.1234C71.3629 39.1483 71.5815 42.2004 72.0222 45.1951L73.1742 50.6069C73.184 50.652 73.1553 50.6968 73.1088 50.7083C73.1017 50.7102 73.0942 50.7109 73.0867 50.7109Z" fill="#484C52"/>
<path d="M60.9207 47.0195C60.8739 47.0195 60.8345 46.9836 60.8317 46.9373C60.829 46.8895 60.8668 46.8489 60.916 46.8462C61.0333 46.8397 61.1342 46.7881 61.224 46.6883C61.7127 46.1463 61.6505 44.4823 61.6273 44.0707C61.3791 44.101 60.7025 44.1557 59.9905 43.9713C59.9428 43.9587 59.9145 43.9112 59.9275 43.8649C59.9401 43.8187 59.9893 43.7915 60.0366 43.8034C60.8742 44.0206 61.6867 43.8875 61.695 43.8864C61.7198 43.8822 61.745 43.8883 61.7651 43.9032C61.7848 43.9181 61.7974 43.9407 61.7994 43.9652C61.806 44.0531 61.964 46.1309 61.3587 46.8023C61.237 46.9373 61.0912 47.0103 60.9258 47.0191C60.9239 47.0191 60.9223 47.0195 60.9207 47.0195Z" fill="#484C52"/>
<path d="M68.0446 47.6211C67.6346 47.6211 67.2893 47.4738 67.0179 47.1839C66.0995 46.2016 66.3287 43.9099 66.3385 43.8128C66.3413 43.7872 66.3555 43.7642 66.3771 43.7497C66.3992 43.7355 66.4268 43.7313 66.452 43.7382C68.3038 44.2458 70.2071 43.6483 70.226 43.6422C70.2729 43.6273 70.3233 43.6521 70.3387 43.6977C70.3544 43.7428 70.3288 43.7921 70.282 43.807C70.2631 43.8132 68.3806 44.4053 66.5079 43.9325C66.4744 44.3892 66.3901 46.2548 67.1502 47.0672C67.3881 47.3216 67.6925 47.4493 68.0533 47.4474C68.1021 47.4448 68.1427 47.4857 68.1431 47.5339C68.1431 47.5817 68.1033 47.6207 68.0541 47.6211C68.0509 47.6211 68.0478 47.6211 68.0446 47.6211Z" fill="#484C52"/>
<path d="M50.1982 30.5341C50.9233 32.5301 52.8487 35.6407 56.5834 35.799C57.8807 35.8541 59.1445 34.6041 60.8549 33.3624C60.8549 33.3624 59.0638 28.1292 58.9448 28.2712C58.3864 28.9383 56.9891 30.8638 55.7694 30.896C53.9625 30.9434 53.0937 29.9098 52.1603 28.9513L50.1982 30.5341Z" fill="white"/>
<path d="M56.6686 35.8867C56.639 35.8867 56.6095 35.886 56.5796 35.8848C52.3093 35.7035 50.5512 31.7648 50.114 30.5617C50.1014 30.5277 50.1125 30.4895 50.1412 30.4661L52.1033 28.8833C52.1395 28.8542 52.1927 28.8573 52.2254 28.8905C52.2856 28.9525 52.3459 29.0149 52.4061 29.0772C53.286 29.9899 54.1189 30.8513 55.7667 30.8081C56.8036 30.7809 58.004 29.2929 58.6487 28.4935C58.7882 28.3206 58.8984 28.184 58.9811 28.0938C59.0138 28.0582 59.0701 28.0548 59.1072 28.0865C59.1438 28.1186 59.1473 28.1733 59.1143 28.2089C59.0355 28.2954 58.9268 28.43 58.7893 28.6006C58.1265 29.4222 56.8923 30.9519 55.7718 30.9814C54.0417 31.0277 53.1438 30.0962 52.2758 29.1958C52.2348 29.1533 52.1939 29.1113 52.1529 29.0688L50.3031 30.561C50.7639 31.7999 52.4936 35.5379 56.5874 35.7115C57.5795 35.7532 58.5507 35.0073 59.7794 34.0625C60.0016 33.8919 60.2308 33.7156 60.4682 33.5377C60.5072 33.5086 60.5636 33.5155 60.5935 33.5538C60.6234 33.5916 60.6163 33.646 60.5773 33.675C60.3402 33.8525 60.1118 34.0281 59.8905 34.1983C58.6677 35.1385 57.6945 35.8867 56.6686 35.8867Z" fill="#484C52"/>
<path d="M60.8273 37.2539H65.7455C66.0767 37.2539 66.3185 36.9494 66.2342 36.6381L64.4096 29.9024C64.3513 29.6866 64.1505 29.5363 63.9209 29.5363H59.0027C58.6715 29.5363 58.4297 29.8408 58.514 30.1522L60.3386 36.8878C60.3969 37.1036 60.5977 37.2539 60.8273 37.2539Z" fill="white"/>
<path d="M59.0026 29.6222C58.8726 29.6222 58.7525 29.6796 58.673 29.7795C58.5938 29.8797 58.567 30.0071 58.6001 30.1295L60.4247 36.8651C60.4728 37.0426 60.6382 37.1666 60.8272 37.1666H65.7454C65.8753 37.1666 65.9955 37.1092 66.0746 37.009C66.1542 36.9088 66.181 36.7814 66.1479 36.6594L64.3233 29.9237C64.2752 29.7462 64.1098 29.6222 63.9208 29.6222H59.0026ZM65.7454 37.3398H60.8272C60.5574 37.3398 60.3208 37.1627 60.2522 36.9091L58.4276 30.1734C58.3804 29.9986 58.4182 29.8166 58.5316 29.6739C58.645 29.5308 58.8167 29.449 59.0026 29.449H63.9208C64.1905 29.449 64.4272 29.6261 64.4958 29.8793L66.3204 36.6154C66.3676 36.7898 66.3298 36.9719 66.216 37.1149C66.1026 37.258 65.9309 37.3398 65.7454 37.3398Z" fill="#484C52"/>
<path d="M67.0685 33.5045L66.4328 33.2563C66.1784 33.1568 65.9831 32.9529 65.9008 32.6986C65.8673 32.5949 65.8291 32.4656 65.7858 32.3057C65.6152 31.6769 65.1111 31.302 64.9166 31.561C64.8 31.7163 65.0922 32.1879 65.0355 32.4977C64.9379 33.029 63.9651 32.6377 63.8044 32.5777C63.4389 32.4411 63.3767 32.3279 63.0951 32.1489C62.8856 32.0158 62.615 32.1898 62.656 32.4296C62.7312 32.8734 62.9159 33.4395 63.3661 33.7122C64.0872 34.149 64.4515 34.1636 64.8177 34.19C65.0241 34.2049 65.2222 34.2714 65.3959 34.3808C65.6597 34.5472 66.0867 34.8116 66.6077 35.1172L67.0685 33.5045Z" fill="white"/>
<path d="M62.9383 32.1924C62.9017 32.1924 62.8646 32.2028 62.8316 32.2242C62.7784 32.2575 62.7276 32.3259 62.7433 32.4185C62.8138 32.8343 62.9875 33.384 63.4129 33.6418C64.0946 34.0549 64.4494 34.0798 64.7924 34.1042L64.8235 34.1065C65.0421 34.1222 65.2568 34.193 65.4442 34.3112C65.6923 34.4676 66.0799 34.7078 66.5529 34.9867L66.9605 33.5588L66.3993 33.3396C66.1181 33.2298 65.9054 33.0068 65.8152 32.7276C65.7782 32.6121 65.7388 32.4786 65.699 32.3305C65.584 31.9067 65.306 31.606 65.1142 31.5709C65.0413 31.5578 65.0075 31.5896 64.9882 31.6152C64.9543 31.6604 65.0055 31.8356 65.0425 31.9633C65.0949 32.1423 65.1544 32.3451 65.1229 32.516C65.0992 32.6434 65.0331 32.7375 64.9252 32.796C64.7046 32.9162 64.3344 32.8748 63.7933 32.6698L63.772 32.6614C63.5133 32.565 63.3975 32.4782 63.2632 32.3776C63.1998 32.3301 63.1344 32.2808 63.0458 32.2246C63.0119 32.2032 62.9753 32.1924 62.9383 32.1924ZM66.6072 35.207C66.5911 35.207 66.5753 35.2028 66.5611 35.1944C66.0409 34.8892 65.6136 34.6245 65.347 34.4565C65.1847 34.3544 64.9992 34.2932 64.8105 34.2794L64.7794 34.2771C64.4148 34.2515 64.0375 34.2247 63.3183 33.7887C62.8363 33.4968 62.6437 32.8978 62.5673 32.4468C62.5425 32.3003 62.6063 32.1595 62.7339 32.0788C62.8603 31.9989 63.017 31.9993 63.1435 32.0792C63.238 32.1397 63.3093 32.1932 63.3723 32.2403C63.5007 32.3363 63.6019 32.412 63.8358 32.4996L63.8583 32.508C64.4577 32.7356 64.7219 32.7081 64.8381 32.645C64.8984 32.6121 64.933 32.5612 64.9472 32.4854C64.9712 32.3539 64.9181 32.1718 64.8708 32.0107C64.8106 31.8046 64.7586 31.6263 64.844 31.5127C64.9157 31.4175 65.0236 31.3777 65.1473 31.4006C65.4375 31.4538 65.749 31.8348 65.8715 32.2865C65.9109 32.4319 65.9491 32.5627 65.9857 32.6756C66.0598 32.9051 66.2346 33.0887 66.4658 33.1789L67.1015 33.4268C67.1436 33.4433 67.1661 33.488 67.1542 33.5305L66.6935 35.1435C66.686 35.1695 66.6663 35.191 66.6403 35.2009C66.6297 35.2051 66.6182 35.207 66.6072 35.207Z" fill="#484C52"/>
<path d="M66.2896 35.247C68.2138 36.3765 71.4235 38.073 72.4577 37.4912C73.7838 36.7457 74.15 31.7271 74.15 31.4268L70.1353 30.609L69.9459 32.4986C69.8959 32.9144 69.5225 33.2212 69.0921 33.1994C68.4135 33.1653 68.1654 33.1718 67.0508 32.9041L66.2896 35.247Z" fill="white"/>
<path d="M71.9059 37.6914C70.5901 37.6914 68.1819 36.4555 66.2434 35.3175C66.208 35.2969 66.1918 35.2552 66.2044 35.2173L66.9657 32.8744C66.9799 32.8308 67.0268 32.8052 67.0721 32.8163C68.0905 33.0611 68.3752 33.0745 68.9431 33.1016L69.0967 33.1093C69.4772 33.1284 69.8127 32.8541 69.8572 32.4846L70.0274 30.787C70.0321 30.7396 70.0746 30.7044 70.125 30.709C70.1739 30.714 70.2097 30.7561 70.205 30.8039L70.0348 32.5034C69.9793 32.9647 69.563 33.3059 69.0873 33.2826L68.9345 33.2749C68.3705 33.2481 68.0803 33.234 67.1106 33.0041L66.3958 35.2043C69.539 37.0434 71.6748 37.8276 72.4132 37.4126C73.6656 36.7083 74.0606 31.8516 74.0606 31.4232C74.0606 31.3753 74.1004 31.3363 74.1496 31.3363C74.1992 31.3363 74.239 31.3753 74.239 31.4232C74.239 31.4748 73.918 36.7669 72.5026 37.5629C72.3454 37.6512 72.1434 37.6914 71.9059 37.6914Z" fill="#484C52"/>
<path d="M64.8981 22.7924C64.8796 22.8012 64.8666 22.8184 64.8643 22.8383L64.611 24.936C64.5598 25.2336 64.611 25.5748 64.2566 25.7313L63.8628 25.8873C63.691 25.9554 63.697 26.1937 63.8722 26.253C64.3373 26.411 65.0876 26.6153 65.863 26.6172C66.6286 26.6195 67.2918 26.3299 67.6861 26.1088C67.8416 26.0212 67.8101 25.7948 67.6364 25.7492L67.5703 25.732C67.2761 25.6548 67.0878 25.2937 67.0469 25.0003L66.7361 22.0182C66.7322 21.9777 66.6877 21.9536 66.6495 21.9712L64.8981 22.7924Z" fill="white"/>
<path d="M64.9508 22.867L64.6996 24.949C64.6889 25.0102 64.683 25.0683 64.6771 25.1303C64.6519 25.382 64.6236 25.6674 64.2935 25.8131L63.8966 25.9707C63.8296 25.9971 63.8261 26.0568 63.8265 26.0744C63.8272 26.0919 63.8339 26.1512 63.9017 26.1742C64.381 26.3371 65.1107 26.5315 65.863 26.5338C65.8657 26.5338 65.8689 26.5338 65.8716 26.5338C66.6018 26.5338 67.2366 26.2637 67.6411 26.0365C67.7014 26.0028 67.6986 25.9451 67.6962 25.9282C67.6939 25.911 67.6809 25.8536 67.6131 25.836L67.547 25.8188C67.2225 25.7335 67.0051 25.3499 66.9586 25.0148L66.6514 22.0698L64.9508 22.867ZM65.8716 26.707C65.8685 26.707 65.8657 26.707 65.8626 26.707C65.0851 26.7047 64.3353 26.5051 63.8426 26.3379C63.7276 26.2989 63.6512 26.1971 63.648 26.0789C63.6449 25.9604 63.7162 25.8548 63.8292 25.81L64.223 25.654C64.4558 25.5511 64.4759 25.3483 64.4995 25.1135C64.5054 25.0515 64.5121 24.9876 64.5227 24.9249L64.7756 22.8314C64.7815 22.7817 64.813 22.7392 64.8595 22.7174L66.6108 21.8962C66.6545 21.8755 66.7061 21.877 66.7491 21.9004C66.7916 21.9233 66.82 21.9654 66.8251 22.0124L67.1358 24.9945C67.1732 25.263 67.3465 25.5866 67.5934 25.6513L67.6596 25.6685C67.7758 25.6991 67.8577 25.7898 67.8731 25.9057C67.8888 26.0212 67.8341 26.1287 67.7305 26.1868C67.3067 26.4244 66.6412 26.707 65.8716 26.707Z" fill="#484C52"/>
<path d="M62.815 19.0511C63.4325 18.8686 62.8032 19.6803 64.9531 18.4769C65.8089 17.998 65.6065 19.154 65.829 19.03C66.6505 18.5733 66.6218 18.5878 67.0814 18.5963C67.3854 18.602 67.7009 19.0698 67.7434 19.4649C67.8001 19.9867 67.4043 20.2181 67.294 21.3745C67.2165 22.1865 67.3972 22.6264 67.1156 22.8085C66.8313 22.9925 66.4977 22.6398 66.1712 22.8181C65.7486 23.0487 66.031 23.7908 65.6695 24.2119C65.4415 24.477 64.8168 24.7226 63.6543 24.4766C63.466 24.4369 63.3325 24.2712 63.338 24.0834C63.3447 23.8428 63.3549 23.5387 63.3896 23.2492C63.5554 21.8694 63.9469 21.4739 63.696 21.1855C63.3116 20.7441 62.4066 21.2628 62.1408 20.8883C61.8643 20.4996 61.9698 19.3016 62.815 19.0511Z" fill="#484C52"/>
<path d="M65.5416 20.3368L65.4443 20.7044C65.3987 20.8773 65.3652 21.0528 65.3447 21.2303C65.3057 21.5635 65.234 22.1357 65.169 22.4532C65.0733 22.9195 63.5693 22.7325 63.5693 22.7325L63.4212 22.4934L63.2456 22.4678C63.2117 22.4628 63.1782 22.4509 63.1515 22.4303C63.0837 22.3779 63.0621 22.293 63.09 22.2199C63.242 21.8209 63.5461 20.9335 63.5504 20.2002C63.5504 20.2002 64.5058 19.7037 65.5416 20.3368Z" fill="white"/>
<path d="M63.6233 22.6509C64.2113 22.7182 65.0277 22.696 65.0812 22.4359C65.1462 22.1196 65.2187 21.5386 65.2561 21.2203C65.277 21.039 65.3116 20.8581 65.3581 20.6821L65.4388 20.3769C64.6051 19.8995 63.8324 20.1726 63.639 20.2552C63.6209 20.9743 63.3417 21.8094 63.1735 22.2497C63.1586 22.2898 63.172 22.3346 63.207 22.3617C63.2196 22.3717 63.2377 22.3786 63.259 22.3816L63.4346 22.4072C63.461 22.4111 63.4843 22.426 63.498 22.4482L63.6233 22.6509ZM64.2117 22.8594C63.923 22.8594 63.6607 22.8307 63.5579 22.8181C63.5311 22.8146 63.5071 22.7993 63.4929 22.7768L63.3665 22.5725L63.2322 22.553C63.1802 22.5453 63.133 22.5262 63.0959 22.4975C63.0002 22.4237 62.964 22.3001 63.0061 22.1896C63.1416 21.8346 63.4567 20.9304 63.4614 20.1994C63.4614 20.1676 63.4795 20.1382 63.5083 20.1233C63.5492 20.1022 64.522 19.6103 65.5893 20.2633C65.622 20.2831 65.6377 20.3214 65.6279 20.3581L65.531 20.7253C65.4865 20.8936 65.4538 21.0665 65.4333 21.2398C65.3955 21.5607 65.3227 22.1471 65.2565 22.4696C65.1911 22.7878 64.6681 22.8594 64.2117 22.8594Z" fill="#484C52"/>
<path d="M65.5811 21.528C65.5811 21.528 65.8134 20.6447 66.2033 20.8348C66.5936 21.0253 66.3128 21.9912 65.5811 21.528Z" fill="white"/>
<path d="M2.08154 51.7214V66.5924C2.08154 67.6458 2.96077 68.5 4.04526 68.5C5.12979 68.5 6.00902 67.6458 6.00902 66.5924V51.7214H2.08154Z" fill="white"/>
<path d="M2.17071 51.8077V66.5919C2.17071 67.596 3.01162 68.4127 4.04519 68.4127C5.0788 68.4127 5.91966 67.596 5.91966 66.5919V51.8077H2.17071ZM4.04519 68.5859C2.9132 68.5859 1.99219 67.6916 1.99219 66.5919V51.7209C1.99219 51.6731 2.03212 51.6345 2.08147 51.6345H6.00894C6.05825 51.6345 6.09819 51.6731 6.09819 51.7209V66.5919C6.09819 67.6916 5.17721 68.5859 4.04519 68.5859Z" fill="#484C52"/>
<path d="M4.04515 68.1523C3.15923 68.1523 2.43848 67.4523 2.43848 66.5917V57.5468H5.65186V66.5917C5.65186 67.4523 4.93111 68.1523 4.04515 68.1523Z" fill="#484C52"/>
<path d="M2.52764 57.6327V66.5908C2.52764 67.4036 3.20838 68.0646 4.04504 68.0646C4.88173 68.0646 5.56246 67.4036 5.56246 66.5908V57.6327H2.52764ZM4.04504 68.2383C3.10988 68.2383 2.34912 67.4993 2.34912 66.5908V57.5459C2.34912 57.4981 2.38902 57.459 2.43836 57.459H5.65175C5.70105 57.459 5.74099 57.4981 5.74099 57.5459V66.5908C5.74099 67.4993 4.98023 68.2383 4.04504 68.2383Z" fill="#484C52"/>
<path d="M5.8631 50.3299H2.22738C1.8313 50.3299 1.51025 50.6417 1.51025 51.0265C1.51025 51.4109 1.8313 51.7227 2.22738 51.7227H5.8631C6.25918 51.7227 6.58023 51.4109 6.58023 51.0265C6.58023 50.6417 6.25918 50.3299 5.8631 50.3299Z" fill="white"/>
<path d="M2.22727 50.4155C1.88109 50.4155 1.59946 50.6894 1.59946 51.0256C1.59946 51.3618 1.88109 51.6353 2.22727 51.6353H5.86303C6.20921 51.6353 6.49088 51.3618 6.49088 51.0256C6.49088 50.6894 6.20921 50.4155 5.86303 50.4155H2.22727ZM5.86303 51.8086H2.22727C1.78267 51.8086 1.4209 51.4574 1.4209 51.0256C1.4209 50.5937 1.78267 50.2422 2.22727 50.2422H5.86303C6.30763 50.2422 6.6694 50.5937 6.6694 51.0256C6.6694 51.4574 6.30763 51.8086 5.86303 51.8086Z" fill="#484C52"/>
<path d="M3.22375 52.2701C3.02655 52.2701 2.8667 52.4254 2.8667 52.6167V63.5749C2.8667 63.7666 3.02655 63.9219 3.22375 63.9219C3.42094 63.9219 3.58079 63.7666 3.58079 63.5749V52.6167C3.58079 52.4254 3.42094 52.2701 3.22375 52.2701Z" fill="white"/>
<path d="M3.22416 52.3561C3.07647 52.3561 2.95636 52.4727 2.95636 52.6162V63.5744C2.95636 63.7179 3.07647 63.8345 3.22416 63.8345C3.37181 63.8345 3.49193 63.7179 3.49193 63.5744V52.6162C3.49193 52.4727 3.37181 52.3561 3.22416 52.3561ZM3.22416 64.0078C2.97806 64.0078 2.77783 63.8135 2.77783 63.5744V52.6162C2.77783 52.3771 2.97806 52.1828 3.22416 52.1828C3.47023 52.1828 3.67049 52.3771 3.67049 52.6162V63.5744C3.67049 63.8135 3.47023 64.0078 3.22416 64.0078Z" fill="#484C52"/>
<path d="M8.78027 51.7214V66.5924C8.78027 67.6458 9.65946 68.5 10.744 68.5C11.8285 68.5 12.7077 67.6458 12.7077 66.5924V51.7214H8.78027Z" fill="white"/>
<path d="M8.86944 51.8077V66.5919C8.86944 67.596 9.71031 68.4127 10.7439 68.4127C11.7775 68.4127 12.6184 67.596 12.6184 66.5919V51.8077H8.86944ZM10.7439 68.5859C9.61189 68.5859 8.69092 67.6916 8.69092 66.5919V51.7209C8.69092 51.6731 8.73085 51.6345 8.7802 51.6345H12.7077C12.757 51.6345 12.7969 51.6731 12.7969 51.7209V66.5919C12.7969 67.6916 11.8759 68.5859 10.7439 68.5859Z" fill="#484C52"/>
<path d="M10.7439 68.1523C9.85796 68.1523 9.13721 67.4523 9.13721 66.5917V57.5468H12.3506V66.5917C12.3506 67.4523 11.6298 68.1523 10.7439 68.1523Z" fill="#484C52"/>
<path d="M9.22642 57.6327V66.5908C9.22642 67.4036 9.90715 68.0646 10.7438 68.0646C11.5805 68.0646 12.2612 67.4036 12.2612 66.5908V57.6327H9.22642ZM10.7438 68.2383C9.80861 68.2383 9.04785 67.4993 9.04785 66.5908V57.5459C9.04785 57.4981 9.08783 57.459 9.13713 57.459H12.3505C12.3998 57.459 12.4398 57.4981 12.4398 57.5459V66.5908C12.4398 67.4993 11.679 68.2383 10.7438 68.2383Z" fill="#484C52"/>
<path d="M12.5618 50.3299H8.92611C8.53007 50.3299 8.20898 50.6417 8.20898 51.0265C8.20898 51.4109 8.53007 51.7227 8.92611 51.7227H12.5618C12.9579 51.7227 13.279 51.4109 13.279 51.0265C13.279 50.6417 12.9579 50.3299 12.5618 50.3299Z" fill="white"/>
<path d="M8.92604 50.4155C8.57978 50.4155 8.29811 50.6894 8.29811 51.0256C8.29811 51.3618 8.57978 51.6353 8.92604 51.6353H12.5617C12.908 51.6353 13.1896 51.3618 13.1896 51.0256C13.1896 50.6894 12.908 50.4155 12.5617 50.4155H8.92604ZM12.5617 51.8086H8.92604C8.48136 51.8086 8.11963 51.4574 8.11963 51.0256C8.11963 50.5937 8.48136 50.2422 8.92604 50.2422H12.5617C13.0064 50.2422 13.3682 50.5937 13.3682 51.0256C13.3682 51.4574 13.0064 51.8086 12.5617 51.8086Z" fill="#484C52"/>
<path d="M9.92297 52.2701C9.72577 52.2701 9.56592 52.4254 9.56592 52.6167V63.5749C9.56592 63.7666 9.72577 63.9219 9.92297 63.9219C10.1202 63.9219 10.28 63.7666 10.28 63.5749V52.6167C10.28 52.4254 10.1202 52.2701 9.92297 52.2701Z" fill="white"/>
<path d="M9.92277 52.3561C9.7752 52.3561 9.65508 52.4727 9.65508 52.6162V63.5744C9.65508 63.7179 9.7752 63.8345 9.92277 63.8345C10.0705 63.8345 10.1906 63.7179 10.1906 63.5744V52.6162C10.1906 52.4727 10.0705 52.3561 9.92277 52.3561ZM9.92277 64.0078C9.67671 64.0078 9.47656 63.8135 9.47656 63.5744V52.6162C9.47656 52.3771 9.67671 52.1828 9.92277 52.1828C10.1689 52.1828 10.3691 52.3771 10.3691 52.6162V63.5744C10.3691 63.8135 10.1689 64.0078 9.92277 64.0078Z" fill="#484C52"/>
<path d="M15.479 51.7214V66.5924C15.479 67.6458 16.3582 68.5 17.4427 68.5C18.5273 68.5 19.4064 67.6458 19.4064 66.5924V51.7214H15.479Z" fill="white"/>
<path d="M15.5687 51.8077V66.5919C15.5687 67.596 16.4095 68.4127 17.4431 68.4127C18.4767 68.4127 19.3175 67.596 19.3175 66.5919V51.8077H15.5687ZM17.4431 68.5859C16.311 68.5859 15.3901 67.6916 15.3901 66.5919V51.7209C15.3901 51.6731 15.4301 51.6345 15.4794 51.6345H19.4068C19.4561 51.6345 19.4961 51.6731 19.4961 51.7209V66.5919C19.4961 67.6916 18.5751 68.5859 17.4431 68.5859Z" fill="#484C52"/>
<path d="M17.4426 68.1523C16.5566 68.1523 15.8359 67.4523 15.8359 66.5917V57.5468H19.0493V66.5917C19.0493 67.4523 18.3285 68.1523 17.4426 68.1523Z" fill="#484C52"/>
<path d="M15.9256 57.6327V66.5908C15.9256 67.4036 16.6063 68.0646 17.443 68.0646C18.2797 68.0646 18.9604 67.4036 18.9604 66.5908V57.6327H15.9256ZM17.443 68.2383C16.5078 68.2383 15.7471 67.4993 15.7471 66.5908V57.5459C15.7471 57.4981 15.787 57.459 15.8364 57.459H19.0497C19.099 57.459 19.139 57.4981 19.139 57.5459V66.5908C19.139 67.4993 18.3782 68.2383 17.443 68.2383Z" fill="#484C52"/>
<path d="M19.2606 50.3299H15.6248C15.2288 50.3299 14.9077 50.6417 14.9077 51.0265C14.9077 51.4109 15.2288 51.7227 15.6248 51.7227H19.2606C19.6566 51.7227 19.9777 51.4109 19.9777 51.0265C19.9777 50.6417 19.6566 50.3299 19.2606 50.3299Z" fill="white"/>
<path d="M15.6253 50.4155C15.279 50.4155 14.9974 50.6894 14.9974 51.0256C14.9974 51.3618 15.279 51.6353 15.6253 51.6353H19.261C19.6072 51.6353 19.8888 51.3618 19.8888 51.0256C19.8888 50.6894 19.6072 50.4155 19.261 50.4155H15.6253ZM19.261 51.8086H15.6253C15.1806 51.8086 14.8188 51.4574 14.8188 51.0256C14.8188 50.5937 15.1806 50.2422 15.6253 50.2422H19.261C19.7056 50.2422 20.0673 50.5937 20.0673 51.0256C20.0673 51.4574 19.7056 51.8086 19.261 51.8086Z" fill="#484C52"/>
<path d="M16.6217 52.2701C16.4245 52.2701 16.2646 52.4254 16.2646 52.6167V63.5749C16.2646 63.7666 16.4245 63.9219 16.6217 63.9219C16.8188 63.9219 16.9787 63.7666 16.9787 63.5749V52.6167C16.9787 52.4254 16.8188 52.2701 16.6217 52.2701Z" fill="white"/>
<path d="M16.6216 52.3561C16.4739 52.3561 16.3538 52.4727 16.3538 52.6162V63.5744C16.3538 63.7179 16.4739 63.8345 16.6216 63.8345C16.7693 63.8345 16.8894 63.7179 16.8894 63.5744V52.6162C16.8894 52.4727 16.7693 52.3561 16.6216 52.3561ZM16.6216 64.0078C16.3755 64.0078 16.1753 63.8135 16.1753 63.5744V52.6162C16.1753 52.3771 16.3755 52.1828 16.6216 52.1828C16.8677 52.1828 17.0679 52.3771 17.0679 52.6162V63.5744C17.0679 63.8135 16.8677 64.0078 16.6216 64.0078Z" fill="#484C52"/>
<path d="M20.6712 61.5234H0.816878C0.415053 61.5234 0.0893555 61.2071 0.0893555 60.8166C0.0893555 60.4264 0.415053 60.11 0.816878 60.11H20.6712C21.073 60.11 21.3988 60.4264 21.3988 60.8166C21.3988 61.2071 21.073 61.5234 20.6712 61.5234Z" fill="#484C52"/>
<path d="M0.816766 60.1964C0.464878 60.1964 0.178524 60.4745 0.178524 60.816C0.178524 61.158 0.464878 61.4361 0.816766 61.4361H20.6712C21.0231 61.4361 21.3093 61.158 21.3093 60.816C21.3093 60.4745 21.0231 60.1964 20.6712 60.1964H0.816766ZM20.6712 61.6094H0.816766C0.366381 61.6094 0 61.2536 0 60.816C0 60.3788 0.366381 60.0227 0.816766 60.0227H20.6712C21.1215 60.0227 21.4879 60.3788 21.4879 60.816C21.4879 61.2536 21.1215 61.6094 20.6712 61.6094Z" fill="white"/>
<path d="M20.6712 69.9141H0.816878C0.415053 69.9141 0.0893555 69.5977 0.0893555 69.2076C0.0893555 68.8174 0.415053 68.5011 0.816878 68.5011H20.6712C21.073 68.5011 21.3988 68.8174 21.3988 69.2076C21.3988 69.5977 21.073 69.9141 20.6712 69.9141Z" fill="#484C52"/>
<path d="M0.816766 68.5866C0.464878 68.5866 0.178524 68.8647 0.178524 69.2067C0.178524 69.5486 0.464878 69.8267 0.816766 69.8267H20.6712C21.0231 69.8267 21.3093 69.5486 21.3093 69.2067C21.3093 68.8647 21.0231 68.5866 20.6712 68.5866H0.816766ZM20.6712 70H0.816766C0.366381 70 0 69.6443 0 69.2067C0 68.7691 0.366381 68.4133 0.816766 68.4133H20.6712C21.1215 68.4133 21.4879 68.7691 21.4879 69.2067C21.4879 69.6443 21.1215 70 20.6712 70Z" fill="white"/>
</svg>
