<svg width="47" height="47" viewBox="0 0 47 47" fill="none" xmlns="http://www.w3.org/2000/svg">
<path d="M23.5 11.75C22.0475 11.75 20.6277 12.1807 19.42 12.9876C18.2124 13.7946 17.2711 14.9415 16.7153 16.2834C16.1594 17.6253 16.014 19.1019 16.2974 20.5264C16.5807 21.951 17.2801 23.2595 18.3072 24.2866C19.3342 25.3136 20.6428 26.013 22.0673 26.2964C23.4919 26.5798 24.9684 26.4343 26.3103 25.8785C27.6522 25.3227 28.7992 24.3814 29.6061 23.1737C30.4131 21.966 30.8438 20.5462 30.8438 19.0938C30.8438 17.1461 30.07 15.2782 28.6928 13.9009C27.3156 12.5237 25.4477 11.75 23.5 11.75Z" fill="#4B91F7"/>
<path d="M23.5 2.9375C19.4331 2.9375 15.4576 4.14347 12.0761 6.40291C8.69461 8.66234 6.05906 11.8738 4.50274 15.6311C2.94641 19.3884 2.5392 23.5228 3.33261 27.5115C4.12602 31.5003 6.08441 35.1642 8.96013 38.0399C11.8358 40.9156 15.4997 42.874 19.4885 43.6674C23.4772 44.4608 27.6116 44.0536 31.3689 42.4973C35.1262 40.9409 38.3377 38.3054 40.5971 34.9239C42.8565 31.5424 44.0625 27.5669 44.0625 23.5C44.0563 18.0484 41.8879 12.8219 38.033 8.96699C34.1782 5.11212 28.9516 2.94372 23.5 2.9375ZM35.2383 36.6101C35.209 34.6835 34.4241 32.8456 33.0526 31.4923C31.6812 30.139 29.833 29.3786 27.9063 29.375H19.0938C17.167 29.3786 15.3188 30.139 13.9474 31.4923C12.5759 32.8456 11.791 34.6835 11.7618 36.6101C9.09828 34.2318 7.21999 31.1006 6.37561 27.6311C5.53123 24.1616 5.76059 20.5175 7.03332 17.1812C8.30605 13.845 10.5621 10.974 13.5028 8.94846C16.4434 6.9229 19.93 5.83832 23.5007 5.83832C27.0715 5.83832 30.5581 6.9229 33.4987 8.94846C36.4394 10.974 38.6954 13.845 39.9682 17.1812C41.2409 20.5175 41.4703 24.1616 40.6259 27.6311C39.7815 31.1006 37.9032 34.2318 35.2397 36.6101H35.2383Z" fill="#4B91F7"/>
</svg>
