<svg width="38" height="37" viewBox="0 0 38 37" fill="none" xmlns="http://www.w3.org/2000/svg">
<g clip-path="url(#clip0_153_5271)">
<path d="M32.8655 9.90723C31.127 9.90723 29.407 9.90723 27.6685 9.90723C26.8547 9.90723 26.0409 9.90723 25.2271 9.90723C24.2839 9.90723 23.3592 9.90723 22.4159 9.90723C22.0275 9.90723 21.7871 10.148 21.7871 10.4813C21.7871 10.8332 22.0275 11.0554 22.4529 11.0554C24.3209 11.0554 26.1704 11.0554 28.0384 11.0554C29.6289 11.0554 31.238 11.0554 32.8285 11.0554C32.9765 11.0554 33.1614 11.0183 33.2909 10.9257C33.5128 10.7776 33.5683 10.5554 33.4758 10.2961C33.3834 10.0369 33.1614 9.90723 32.8655 9.90723Z" fill="#4C5983"/>
<path d="M17.0162 9.90789C16.036 9.90789 15.0558 9.90789 14.0755 9.90789C12.1706 9.88937 10.3581 10.2597 8.69354 11.1671C4.68016 13.3523 2.57175 16.7412 2.40529 21.3153C2.3868 21.7412 2.62723 22.019 2.97863 22.0005C3.31154 22.0005 3.55197 21.7227 3.55197 21.3338C3.57047 19.4264 4.06983 17.6486 5.06855 16.019C6.56663 13.6116 8.67504 12.056 11.4308 11.3523C12.6144 11.056 13.7981 11.019 14.7968 11.0375C15.6846 11.0375 16.3504 11.0375 16.9977 11.0375C17.1272 11.0375 17.2936 11.0005 17.4046 10.9264C17.6265 10.7783 17.682 10.5375 17.608 10.2968C17.4971 10.0375 17.2936 9.90789 17.0162 9.90789Z" fill="#4C5983"/>
<path d="M37.4888 8.88889C37.0634 7.59259 35.5283 7.57407 35.5283 7.57407C34.6961 7.57407 33.8638 7.57407 33.0315 7.57407C29.7764 7.57407 26.5398 7.57407 23.2848 7.57407C23.0073 7.57407 22.7299 7.59259 22.4525 7.59259C21.8791 7.57407 21.3243 7.59259 20.7695 7.77778C20.2886 7.94444 19.8632 8.2037 19.5488 8.62963C19.5118 8.68519 19.4378 8.72222 19.3638 8.77778C18.994 8.25926 18.4761 7.94444 17.9028 7.72222C17.8288 7.31481 17.6993 6.90741 17.6808 6.5C17.6068 5.09259 17.6623 3.66667 17.9397 2.27778C17.9582 2.16667 17.9582 2.07407 17.9767 1.92593C16.9595 1.92593 15.9793 1.92593 14.9806 1.92593C15.073 1.44444 15.1655 0.981481 15.2395 0.537037C13.1126 0.5 11.0042 0.5 8.85878 0.5C8.93276 0.925926 9.00674 1.31481 9.06223 1.7037C9.22868 3.25926 9.19169 4.83333 9.09922 6.38889C9.06223 7.05556 8.95126 7.7037 8.87728 8.35185C8.85878 8.51852 8.76631 8.61111 8.59986 8.68519C8.19297 8.85185 7.78608 9.03704 7.41619 9.25926C2.79248 11.9259 0.258683 15.9259 0.0367451 21.2778C-0.0557291 23.6852 0.0182502 26.1111 0.0182502 28.537C0.0182502 28.6852 0.0367451 28.8519 0.0367451 29C0.0367451 29.8704 0.0182502 30.7222 0.0367451 31.5926C0.0367451 31.9815 0.184704 32.3333 0.425137 32.6296C1.10945 33.5 2.29312 33.6852 3.19936 33.0185C4.82691 31.8333 6.45445 30.6296 8.082 29.4259C8.17447 29.3704 8.24845 29.2963 8.35942 29.2222C8.74781 30.1852 9.41363 30.7778 10.3939 30.9815C11.3741 31.1852 12.2063 30.8333 12.9831 30.1296C12.9276 32.0926 12.2063 33.7778 11.5405 35.5185C13.3345 35.8333 15.11 36.1481 16.8855 36.4815C16.904 34.1111 17.3294 31.8519 17.8103 29.5926C18.2727 27.3148 18.92 25.0926 19.9742 23.0741C20.3441 23.2222 20.751 23.3704 21.1394 23.537C21.2133 23.5556 21.2688 23.6111 21.3243 23.6667C22.2306 24.6667 23.0258 25.7407 23.6177 26.9444C23.8766 27.463 24.117 27.9815 24.3575 28.5185C25.8555 27.4815 27.3351 26.4444 28.8332 25.3889C27.7975 24.4259 26.8728 23.4074 26.1145 22.2037C26.7803 21.963 27.4091 21.7037 28.0564 21.4815C29.2401 21.0741 30.1463 20.3333 30.7567 19.2407C30.9231 18.9259 31.0156 18.5741 31.1451 18.2407L31.219 17.963C31.33 17.7037 31.4595 17.4444 31.5704 17.1852C32.1253 15.9259 32.7726 14.7037 33.7158 13.6852C34.6591 12.6667 35.7503 11.8333 36.8785 11.0556C37.5628 10.5741 37.7662 9.53704 37.4888 8.88889ZM14.8881 3.07407C15.4984 3.07407 16.0533 3.07407 16.6636 3.07407C16.4972 4.57407 16.4602 6.05556 16.7191 7.57407C16.1273 7.57407 15.5724 7.57407 15.0361 7.57407C14.9806 7.57407 14.8881 7.48148 14.8881 7.42593C14.7586 5.98148 14.8326 4.53704 14.8881 3.07407ZM10.2274 1.64815C11.4481 1.64815 12.6502 1.64815 13.7969 1.64815C13.7599 3.61111 13.7229 5.59259 13.6859 7.51852C12.5393 7.7037 11.3371 7.88889 10.1164 8.07407C10.3569 5.98148 10.3939 3.83333 10.2274 1.64815ZM11.9659 29.5185C11.1336 30.1296 10.1904 30 9.65406 29.2222C9.63557 29.2037 9.63557 29.1852 9.61707 29.1852C9.30266 28.7037 9.32115 28.5185 9.83901 28.2963C10.6158 27.963 11.3926 27.6667 12.1879 27.3704C13.0571 27.037 13.9264 26.7222 14.7956 26.4074C14.8511 26.3889 14.9066 26.3704 14.9621 26.3519C14.9806 26.3704 14.9806 26.3889 14.9991 26.4074C14.8511 26.5926 14.7216 26.7963 14.5737 26.9815C13.7969 27.9259 12.9461 28.7963 11.9659 29.5185ZM15.7574 35.1296C14.8696 34.9815 14.0188 34.8148 13.1126 34.6667C13.2606 34.2593 13.39 33.8889 13.5195 33.5185C13.9819 32.2222 14.1483 30.8519 14.1668 29.4815C14.1668 29.2037 14.2408 29.0185 14.4442 28.8333C14.5737 28.7222 14.6662 28.5741 14.7771 28.4444C15.406 27.8704 15.9608 27.2222 16.2197 26.4074C16.3677 25.8889 16.6451 25.6667 17.1075 25.537C17.2924 25.4815 17.4774 25.4074 17.7178 25.3148C16.7376 28.5185 16.1088 31.7778 15.7574 35.1296ZM18.8275 22.2778C18.8275 23.2407 18.4206 23.8333 17.5144 24.1667C15.4614 24.9259 13.427 25.7037 11.3741 26.4444C10.4493 26.7778 9.48761 27.0741 8.65534 27.6296C7.60113 28.3519 6.56542 29.1296 5.52971 29.8889C4.54949 30.6111 3.56926 31.3333 2.58903 32.0556C1.9972 32.5 1.40536 32.2963 1.16493 31.5926L1.14644 31.1852C1.14644 28.0185 1.14644 24.8704 1.14644 21.7037C1.14644 16.3519 4.38303 11.5926 9.35814 9.61111C10.8562 9.01852 12.4283 8.72222 14.0373 8.72222C15.073 8.72222 16.1273 8.7037 17.163 8.74074C18.0137 8.75926 18.7535 9.51852 18.7905 10.3704C18.7905 10.4444 18.7905 10.537 18.7905 10.6111C18.8275 14.5 18.8275 18.3889 18.8275 22.2778ZM26.9652 25.2778C26.2809 25.7593 25.5596 26.2593 24.8753 26.7407C24.154 25.6296 23.4512 24.5556 22.7299 23.463C23.4512 23.2037 24.2095 22.9074 24.9308 22.6481C25.6151 23.5185 26.2809 24.3889 26.9652 25.2778ZM36.1387 10.1481C35.0105 10.9074 33.9378 11.7407 32.9945 12.7407C31.6074 14.2037 30.6827 15.9444 30.0724 17.8704C29.9429 18.1852 29.8134 18.4815 29.684 18.7963C29.1476 19.5926 28.4448 20.1296 27.5386 20.4444C25.837 21.037 24.1725 21.6852 22.4895 22.3148C21.4538 22.7037 20.4181 22.2963 20.0667 21.3148C19.9927 21.0926 19.9557 20.8519 19.9557 20.6111C19.9557 17.2778 19.9557 13.9444 19.9557 10.5926C19.9557 9.44444 20.7695 8.68519 21.9346 8.72222C22.8594 8.74074 23.7656 8.72222 24.6904 8.72222C27.6126 8.72222 30.5347 8.7037 33.4569 8.7037C34.1782 8.7037 34.881 8.72222 35.6023 8.72222C35.8982 8.72222 36.1202 8.87037 36.3051 9.09259C36.5641 9.42593 36.4531 9.94444 36.1387 10.1481Z" fill="#4C5983"/>
</g>
<defs>
<clipPath id="clip0_153_5271">
<rect width="37.6" height="36" fill="white" transform="translate(0 0.5)"/>
</clipPath>
</defs>
</svg>
