<svg width="99" height="19" viewBox="0 0 99 19" fill="none" xmlns="http://www.w3.org/2000/svg">
<path d="M8.93526 8.91134L0.856319 0.854027C0.540686 0.539239 0.763623 0 1.2094 0H98C98.5523 0 99 0.447715 99 1V19H1.16681C0.72719 19 0.501556 18.4735 0.80477 18.1551L8.94422 9.61023C9.13159 9.41352 9.12762 9.10319 8.93526 8.91134Z" fill="white"/>
<path d="M22.8807 13V5.72727H25.3381C25.9086 5.72727 26.375 5.83026 26.7372 6.03622C27.1018 6.23982 27.3717 6.51562 27.5469 6.86364C27.7221 7.21165 27.8097 7.59991 27.8097 8.02841C27.8097 8.45691 27.7221 8.84635 27.5469 9.19673C27.3741 9.54711 27.1065 9.82647 26.7443 10.0348C26.3821 10.2408 25.9181 10.3438 25.3523 10.3438H23.5909V9.5625H25.3239C25.7145 9.5625 26.0282 9.49503 26.2649 9.36009C26.5017 9.22514 26.6733 9.04285 26.7798 8.81321C26.8887 8.5812 26.9432 8.3196 26.9432 8.02841C26.9432 7.73722 26.8887 7.4768 26.7798 7.24716C26.6733 7.01752 26.5005 6.83759 26.2614 6.70739C26.0223 6.57481 25.705 6.50852 25.3097 6.50852H23.7614V13H22.8807ZM30.7198 13.1278C30.3742 13.1278 30.0605 13.0627 29.7788 12.9325C29.497 12.8 29.2733 12.6094 29.1076 12.3608C28.9419 12.1098 28.859 11.8068 28.859 11.4517C28.859 11.1392 28.9206 10.8859 29.0437 10.6918C29.1668 10.4953 29.3313 10.3414 29.5373 10.2301C29.7433 10.1188 29.9705 10.036 30.2191 9.98153C30.4701 9.92472 30.7222 9.87973 30.9755 9.84659C31.3069 9.80398 31.5756 9.77202 31.7816 9.75071C31.9899 9.72704 32.1415 9.68797 32.2362 9.63352C32.3332 9.57907 32.3817 9.48437 32.3817 9.34943V9.32102C32.3817 8.97064 32.2859 8.69839 32.0941 8.50426C31.9047 8.31013 31.6171 8.21307 31.2312 8.21307C30.8311 8.21307 30.5174 8.30066 30.2901 8.47585C30.0629 8.65104 29.9031 8.83807 29.8107 9.03693L29.0153 8.75284C29.1573 8.4214 29.3467 8.16335 29.5835 7.97869C29.8226 7.79167 30.083 7.66146 30.3647 7.58807C30.6488 7.51231 30.9281 7.47443 31.2028 7.47443C31.378 7.47443 31.5792 7.49574 31.8065 7.53835C32.0361 7.5786 32.2575 7.66264 32.4705 7.79048C32.686 7.91832 32.8647 8.11127 33.0067 8.36932C33.1488 8.62737 33.2198 8.97301 33.2198 9.40625V13H32.3817V12.2614H32.3391C32.2823 12.3797 32.1876 12.5064 32.055 12.6413C31.9225 12.7763 31.7461 12.8911 31.5259 12.9858C31.3058 13.0805 31.0371 13.1278 30.7198 13.1278ZM30.8477 12.375C31.1791 12.375 31.4585 12.3099 31.6857 12.1797C31.9154 12.0495 32.0882 11.8814 32.2042 11.6754C32.3226 11.4695 32.3817 11.2528 32.3817 11.0256V10.2585C32.3462 10.3011 32.2681 10.3402 32.1474 10.3757C32.029 10.4089 31.8917 10.4384 31.7354 10.4645C31.5816 10.4882 31.4312 10.5095 31.2844 10.5284C31.14 10.545 31.0228 10.5592 30.9329 10.571C30.7151 10.5994 30.5115 10.6456 30.3221 10.7095C30.1351 10.7711 29.9835 10.8646 29.8675 10.9901C29.7539 11.1132 29.6971 11.2812 29.6971 11.4943C29.6971 11.7855 29.8048 12.0057 30.0202 12.1548C30.238 12.3016 30.5138 12.375 30.8477 12.375ZM34.7495 13V7.54545H35.5875V13H34.7495ZM35.1756 6.63636C35.0123 6.63636 34.8714 6.58073 34.753 6.46946C34.637 6.35819 34.579 6.22443 34.579 6.06818C34.579 5.91193 34.637 5.77817 34.753 5.6669C34.8714 5.55563 35.0123 5.5 35.1756 5.5C35.339 5.5 35.4786 5.55563 35.5946 5.6669C35.713 5.77817 35.7722 5.91193 35.7722 6.06818C35.7722 6.22443 35.713 6.35819 35.5946 6.46946C35.4786 6.58073 35.339 6.63636 35.1756 6.63636ZM39.1822 13.1136C38.7276 13.1136 38.3263 12.9988 37.9783 12.7692C37.6303 12.5372 37.3581 12.2105 37.1616 11.7891C36.9651 11.3653 36.8668 10.8646 36.8668 10.2869C36.8668 9.71402 36.9651 9.21686 37.1616 8.79545C37.3581 8.37405 37.6315 8.04853 37.9819 7.81889C38.3323 7.58925 38.7371 7.47443 39.1964 7.47443C39.5515 7.47443 39.832 7.53362 40.038 7.65199C40.2463 7.76799 40.4049 7.90057 40.5138 8.04972C40.6251 8.1965 40.7115 8.31723 40.7731 8.41193H40.8441V5.72727H41.6822V13H40.8725V12.1619H40.7731C40.7115 12.2614 40.6239 12.3868 40.5103 12.5384C40.3967 12.6875 40.2345 12.8213 40.0238 12.9396C39.8131 13.0556 39.5326 13.1136 39.1822 13.1136ZM39.2958 12.3608C39.632 12.3608 39.9161 12.2732 40.1481 12.098C40.3801 11.9205 40.5565 11.6754 40.6772 11.3629C40.7979 11.0481 40.8583 10.6847 40.8583 10.2727C40.8583 9.86553 40.7991 9.50923 40.6808 9.20384C40.5624 8.89607 40.3872 8.65696 40.1552 8.48651C39.9232 8.31368 39.6367 8.22727 39.2958 8.22727C38.9407 8.22727 38.6448 8.31842 38.408 8.50071C38.1737 8.68063 37.9973 8.92566 37.8789 9.2358C37.7629 9.54356 37.7049 9.8892 37.7049 10.2727C37.7049 10.661 37.7641 11.0137 37.8825 11.331C38.0032 11.6458 38.1808 11.8968 38.4151 12.0838C38.6519 12.2685 38.9454 12.3608 39.2958 12.3608ZM46.2596 5.72727H47.3107L49.7823 11.7642H49.8675L52.3391 5.72727H53.3903V13H52.5664V7.47443H52.4954L50.2227 13H49.4272L47.1545 7.47443H47.0835V13H46.2596V5.72727ZM57.3294 13.1136C56.8038 13.1136 56.3504 12.9976 55.9693 12.7656C55.5905 12.5312 55.2981 12.2045 55.0922 11.7855C54.8886 11.3641 54.7868 10.8741 54.7868 10.3153C54.7868 9.75663 54.8886 9.2642 55.0922 8.83807C55.2981 8.40956 55.5846 8.07576 55.9515 7.83665C56.3208 7.59517 56.7517 7.47443 57.2441 7.47443C57.5282 7.47443 57.8088 7.52178 58.0858 7.61648C58.3627 7.71117 58.6149 7.86506 58.8422 8.07812C59.0694 8.28883 59.2505 8.56818 59.3855 8.91619C59.5204 9.2642 59.5879 9.69271 59.5879 10.2017V10.5568H55.3833V9.83239H58.7356C58.7356 9.52462 58.6741 9.25 58.551 9.00852C58.4302 8.76705 58.2574 8.57647 58.0325 8.43679C57.81 8.29711 57.5472 8.22727 57.2441 8.22727C56.9103 8.22727 56.6215 8.31013 56.3777 8.47585C56.1362 8.6392 55.9503 8.85227 55.8201 9.11506C55.6899 9.37784 55.6248 9.65956 55.6248 9.96023V10.4432C55.6248 10.8551 55.6958 11.2043 55.8379 11.4908C55.9823 11.7749 56.1824 11.9915 56.438 12.1406C56.6937 12.2874 56.9908 12.3608 57.3294 12.3608C57.5495 12.3608 57.7484 12.33 57.926 12.2685C58.1059 12.2045 58.2609 12.1098 58.3912 11.9844C58.5214 11.8565 58.622 11.6979 58.693 11.5085L59.5027 11.7358C59.4174 12.0104 59.2742 12.2519 59.073 12.4602C58.8717 12.6662 58.6232 12.8272 58.3272 12.9432C58.0313 13.0568 57.6987 13.1136 57.3294 13.1136ZM60.8627 13V7.54545H61.6724V8.39773H61.7434C61.8571 8.10653 62.0405 7.88045 62.2939 7.71946C62.5472 7.55611 62.8514 7.47443 63.2065 7.47443C63.5663 7.47443 63.8658 7.55611 64.1049 7.71946C64.3464 7.88045 64.5346 8.10653 64.6696 8.39773H64.7264C64.8661 8.116 65.0756 7.89228 65.3549 7.72656C65.6343 7.55848 65.9693 7.47443 66.3599 7.47443C66.8476 7.47443 67.2465 7.62713 67.5566 7.93253C67.8668 8.23556 68.0218 8.70786 68.0218 9.34943V13H67.1838V9.34943C67.1838 8.94697 67.0737 8.65933 66.8535 8.48651C66.6333 8.31368 66.3741 8.22727 66.0758 8.22727C65.6923 8.22727 65.3952 8.34328 65.1845 8.57528C64.9738 8.80492 64.8684 9.09612 64.8684 9.44886V13H64.0162V9.2642C64.0162 8.95407 63.9155 8.70431 63.7143 8.51491C63.5131 8.32315 63.2538 8.22727 62.9366 8.22727C62.7188 8.22727 62.5152 8.28527 62.3258 8.40128C62.1388 8.51728 61.9873 8.67827 61.8713 8.88423C61.7576 9.08783 61.7008 9.32339 61.7008 9.59091V13H60.8627ZM69.6678 13V5.72727H70.5059V8.41193H70.5769C70.6384 8.31723 70.7237 8.1965 70.8326 8.04972C70.9438 7.90057 71.1025 7.76799 71.3084 7.65199C71.5167 7.53362 71.7985 7.47443 72.1536 7.47443C72.6129 7.47443 73.0177 7.58925 73.3681 7.81889C73.7185 8.04853 73.9919 8.37405 74.1884 8.79545C74.3849 9.21686 74.4831 9.71402 74.4831 10.2869C74.4831 10.8646 74.3849 11.3653 74.1884 11.7891C73.9919 12.2105 73.7196 12.5372 73.3716 12.7692C73.0236 12.9988 72.6223 13.1136 72.1678 13.1136C71.8174 13.1136 71.5369 13.0556 71.3262 12.9396C71.1155 12.8213 70.9533 12.6875 70.8397 12.5384C70.726 12.3868 70.6384 12.2614 70.5769 12.1619H70.4775V13H69.6678ZM70.4917 10.2727C70.4917 10.6847 70.552 11.0481 70.6728 11.3629C70.7935 11.6754 70.9699 11.9205 71.2019 12.098C71.4339 12.2732 71.718 12.3608 72.0542 12.3608C72.4045 12.3608 72.6969 12.2685 72.9313 12.0838C73.168 11.8968 73.3456 11.6458 73.464 11.331C73.5847 11.0137 73.6451 10.661 73.6451 10.2727C73.6451 9.8892 73.5859 9.54356 73.4675 9.2358C73.3515 8.92566 73.1751 8.68063 72.9384 8.50071C72.704 8.31842 72.4093 8.22727 72.0542 8.22727C71.7132 8.22727 71.4268 8.31368 71.1948 8.48651C70.9628 8.65696 70.7876 8.89607 70.6692 9.20384C70.5508 9.50923 70.4917 9.86553 70.4917 10.2727ZM78.052 13.1136C77.5265 13.1136 77.0731 12.9976 76.6919 12.7656C76.3132 12.5312 76.0208 12.2045 75.8148 11.7855C75.6112 11.3641 75.5094 10.8741 75.5094 10.3153C75.5094 9.75663 75.6112 9.2642 75.8148 8.83807C76.0208 8.40956 76.3072 8.07576 76.6742 7.83665C77.0435 7.59517 77.4744 7.47443 77.9668 7.47443C78.2509 7.47443 78.5314 7.52178 78.8084 7.61648C79.0854 7.71117 79.3375 7.86506 79.5648 8.07812C79.7921 8.28883 79.9732 8.56818 80.1081 8.91619C80.2431 9.2642 80.3105 9.69271 80.3105 10.2017V10.5568H76.106V9.83239H79.4583C79.4583 9.52462 79.3967 9.25 79.2736 9.00852C79.1529 8.76705 78.9801 8.57647 78.7551 8.43679C78.5326 8.29711 78.2698 8.22727 77.9668 8.22727C77.633 8.22727 77.3442 8.31013 77.1003 8.47585C76.8588 8.6392 76.673 8.85227 76.5428 9.11506C76.4126 9.37784 76.3475 9.65956 76.3475 9.96023V10.4432C76.3475 10.8551 76.4185 11.2043 76.5605 11.4908C76.705 11.7749 76.905 11.9915 77.1607 12.1406C77.4164 12.2874 77.7135 12.3608 78.052 12.3608C78.2722 12.3608 78.4711 12.33 78.6486 12.2685C78.8285 12.2045 78.9836 12.1098 79.1138 11.9844C79.244 11.8565 79.3446 11.6979 79.4157 11.5085L80.2253 11.7358C80.1401 12.0104 79.9969 12.2519 79.7956 12.4602C79.5944 12.6662 79.3458 12.8272 79.0499 12.9432C78.754 13.0568 78.4213 13.1136 78.052 13.1136ZM81.5854 13V7.54545H82.3951V8.36932H82.4519C82.5513 8.09943 82.7312 7.88045 82.9917 7.71236C83.2521 7.54427 83.5456 7.46023 83.8723 7.46023C83.9339 7.46023 84.0108 7.46141 84.1032 7.46378C84.1955 7.46615 84.2653 7.4697 84.3127 7.47443V8.3267C84.2843 8.3196 84.2192 8.30895 84.1174 8.29474C84.0179 8.27817 83.9126 8.26989 83.8013 8.26989C83.5362 8.26989 83.2994 8.32552 83.0911 8.43679C82.8851 8.54569 82.7218 8.69721 82.601 8.89134C82.4827 9.0831 82.4235 9.30208 82.4235 9.5483V13H81.5854Z" fill="#2587F1"/>
</svg>
